<?xml version="1.0" encoding="us-ascii" standalone="no"?><svg xmlns="http://www.w3.org/2000/svg" xmlns:xlink="http://www.w3.org/1999/xlink" contentStyleType="text/css" height="4151.5625px" preserveAspectRatio="none" style="width:1187px;height:4151px;background:#FFFFFF;" version="1.1" viewBox="0 0 1187 4151" width="1187.5px" zoomAndPan="magnify"><defs/><g><text fill="#000000" font-family="sans-serif" font-size="21.875" font-weight="bold" lengthAdjust="spacing" textLength="706.25" x="238.2813" y="54.6343">Prepare-Doc - Multi-Task Training Pipeline (3-Step Virtuous Cycle)</text><ellipse cx="410.9375" cy="93.8561" fill="#222222" rx="15.625" ry="15.625" style="stroke:#222222;stroke-width:1.5625;"/><rect fill="none" height="222.8094" style="stroke:#000000;stroke-width:2.34375;" width="656.25" x="268.75" y="125.1061"/><path d="M353.125,125.1061 L353.125,143.9622 L337.5,159.5872 L268.75,159.5872 " fill="none" style="stroke:#000000;stroke-width:2.34375;"/><text fill="#000000" font-family="sans-serif" font-size="21.875" lengthAdjust="spacing" textLength="68.75" x="273.4375" y="150.0529">Inputs</text><path d="M568.75,175.2122 L568.75,245.9389 L537.5,252.1889 L568.75,258.4389 L568.75,329.1655 A0,0 0 0 0 568.75,329.1655 L909.375,329.1655 A0,0 0 0 0 909.375,329.1655 L909.375,190.8372 L893.75,175.2122 L568.75,175.2122 A0,0 0 0 0 568.75,175.2122 " fill="#F8F8F8" style="stroke:#BBBBBB;stroke-width:0.78125;"/><path d="M893.75,175.2122 L893.75,190.8372 L909.375,190.8372 L893.75,175.2122 " fill="#F8F8F8" style="stroke:#BBBBBB;stroke-width:0.78125;"/><text fill="#000000" font-family="sans-serif" font-size="20.3125" lengthAdjust="spacing" textLength="273.4375" x="578.125" y="204.7388">Orientation (50K), Skew (40K),</text><text fill="#000000" font-family="sans-serif" font-size="20.3125" lengthAdjust="spacing" textLength="307.8125" x="578.125" y="232.4045">Resolution (30K), IQA (16K+100K),</text><text fill="#000000" font-family="sans-serif" font-size="20.3125" lengthAdjust="spacing" textLength="298.4375" x="578.125" y="260.0701">Script (108K), Handwriting (60K),</text><text fill="#000000" font-family="sans-serif" font-size="20.3125" lengthAdjust="spacing" textLength="267.1875" x="578.125" y="287.7358">Capture (50K), Shadow (15K),</text><text fill="#000000" font-family="sans-serif" font-size="20.3125" lengthAdjust="spacing" textLength="240.625" x="578.125" y="315.4014">Warping (20K), Code (10K)</text><rect fill="#F1F1F1" height="82.3254" rx="19.5313" ry="19.5313" style="stroke:#181818;stroke-width:0.78125;" width="253.125" x="284.375" y="211.0262"/><text fill="#000000" font-family="sans-serif" font-size="18.75" lengthAdjust="spacing" textLength="221.875" x="300" y="246.6951">10 purpose-built datasets</text><text fill="#000000" font-family="sans-serif" font-size="18.75" lengthAdjust="spacing" textLength="179.6875" x="300" y="272.2328">(~503K total images)</text><rect fill="none" height="712.1857" style="stroke:#000000;stroke-width:2.34375;" width="556.25" x="141.4063" y="363.5405"/><path d="M557.0313,363.5405 L557.0313,382.3966 L541.4063,398.0216 L141.4063,398.0216 " fill="none" style="stroke:#000000;stroke-width:2.34375;"/><text fill="#000000" font-family="sans-serif" font-size="21.875" lengthAdjust="spacing" textLength="400" x="146.0938" y="388.4873">Step 1: MobileNetV4-Conv-S Bootstrap</text><rect fill="#F1F1F1" height="82.3254" rx="19.5313" ry="19.5313" style="stroke:#181818;stroke-width:0.78125;" width="289.0625" x="266.4063" y="424.5841"/><text fill="#000000" font-family="sans-serif" font-size="18.75" lengthAdjust="spacing" textLength="257.8125" x="282.0313" y="460.253">Initialize MobileNetV4-Conv-S</text><text fill="#000000" font-family="sans-serif" font-size="18.75" lengthAdjust="spacing" textLength="225" x="282.0313" y="485.7907">(~4M params, pretrained)</text><rect fill="#F1F1F1" height="133.4007" rx="19.5313" ry="19.5313" style="stroke:#181818;stroke-width:0.78125;" width="446.875" x="187.5" y="538.1595"/><text fill="#000000" font-family="sans-serif" font-size="18.75" lengthAdjust="spacing" textLength="415.625" x="203.125" y="573.8284">Train 3 heads on synthetic\nground truth labels:</text><text fill="#000000" font-family="sans-serif" font-size="18.75" lengthAdjust="spacing" textLength="314.0625" x="203.125" y="599.366">- Orientation (4-class: 0/90/180/270)</text><text fill="#000000" font-family="sans-serif" font-size="18.75" lengthAdjust="spacing" textLength="212.5" x="203.125" y="624.9037">- Skew regression (&#177;10&#176;)</text><text fill="#000000" font-family="sans-serif" font-size="18.75" lengthAdjust="spacing" textLength="209.375" x="203.125" y="650.4414">- Resolution quality (0-1)</text><rect fill="#F1F1F1" height="107.863" rx="19.5313" ry="19.5313" style="stroke:#181818;stroke-width:0.78125;" width="278.125" x="271.875" y="702.8102"/><text fill="#000000" font-family="sans-serif" font-size="18.75" lengthAdjust="spacing" textLength="129.6875" x="287.5" y="738.4791">Multi-task loss:</text><text fill="#000000" font-family="sans-serif" font-size="18.75" lengthAdjust="spacing" textLength="246.875" x="287.5" y="764.0168">CE(orientation) + MSE(skew)</text><text fill="#000000" font-family="sans-serif" font-size="18.75" lengthAdjust="spacing" textLength="154.6875" x="287.5" y="789.5544">+ MSE(resolution)</text><polygon fill="#F1F1F1" points="318.75,841.9232,503.125,841.9232,521.875,877.037,503.125,912.1508,318.75,912.1508,300,877.037,318.75,841.9232" style="stroke:#181818;stroke-width:0.78125;"/><text fill="#000000" font-family="sans-serif" font-size="17.1875" lengthAdjust="spacing" textLength="184.375" x="318.75" y="860.2965">Orientation acc &gt; 95%?</text><text fill="#000000" font-family="sans-serif" font-size="17.1875" lengthAdjust="spacing" textLength="140.625" x="318.75" y="883.7057">Skew MAE &lt; 0.5&#176;?</text><text fill="#000000" font-family="sans-serif" font-size="17.1875" lengthAdjust="spacing" textLength="178.125" x="318.75" y="907.1149">Resolution MAE &lt; 0.1?</text><text fill="#000000" font-family="sans-serif" font-size="17.1875" lengthAdjust="spacing" textLength="26.5625" x="273.4375" y="872.0011">yes</text><text fill="#000000" font-family="sans-serif" font-size="17.1875" lengthAdjust="spacing" textLength="21.875" x="521.875" y="872.0011">no</text><rect fill="#F1F1F1" height="82.3254" rx="19.5313" ry="19.5313" style="stroke:#181818;stroke-width:0.78125;" width="214.0625" x="172.6563" y="927.7758"/><text fill="#000000" font-family="sans-serif" font-size="18.75" lengthAdjust="spacing" textLength="159.375" x="188.2813" y="963.4447">Save MobileNetV4</text><text fill="#000000" font-family="sans-serif" font-size="18.75" lengthAdjust="spacing" textLength="182.8125" x="188.2813" y="988.9824">bootstrap checkpoint</text><rect fill="#F1F1F1" height="82.3254" rx="19.5313" ry="19.5313" style="stroke:#181818;stroke-width:0.78125;" width="248.4375" x="417.9688" y="927.7758"/><text fill="#000000" font-family="sans-serif" font-size="18.75" lengthAdjust="spacing" textLength="217.1875" x="433.5938" y="963.4447">Adjust hyperparameters;</text><text fill="#000000" font-family="sans-serif" font-size="18.75" lengthAdjust="spacing" textLength="59.375" x="433.5938" y="988.9824">retrain</text><polygon fill="#F1F1F1" points="410.9375,1019.4762,429.6875,1038.2262,410.9375,1056.9762,392.1875,1038.2262,410.9375,1019.4762" style="stroke:#181818;stroke-width:0.78125;"/><rect fill="none" height="881.7644" style="stroke:#000000;stroke-width:2.34375;" width="1153.125" x="17.1875" y="1091.3512"/><path d="M387.5,1091.3512 L387.5,1110.2073 L371.875,1125.8323 L17.1875,1125.8323 " fill="none" style="stroke:#000000;stroke-width:2.34375;"/><text fill="#000000" font-family="sans-serif" font-size="21.875" lengthAdjust="spacing" textLength="354.6875" x="21.875" y="1116.298">Step 2: SigLIP 2 NAFlex Multi-Task</text><rect fill="#F1F1F1" height="82.3254" rx="19.5313" ry="19.5313" style="stroke:#181818;stroke-width:0.78125;" width="309.375" x="256.25" y="1152.3948"/><text fill="#000000" font-family="sans-serif" font-size="18.75" lengthAdjust="spacing" textLength="270.3125" x="271.875" y="1188.0637">Load SigLIP 2 NAFlex backbone</text><text fill="#000000" font-family="sans-serif" font-size="18.75" lengthAdjust="spacing" textLength="278.125" x="271.875" y="1213.6014">(~88M params, frozen ViT-B/16)</text><rect fill="#F1F1F1" height="184.4761" rx="19.5313" ry="19.5313" style="stroke:#181818;stroke-width:0.78125;" width="756.25" x="32.8125" y="1265.9702"/><text fill="#000000" font-family="sans-serif" font-size="18.75" lengthAdjust="spacing" textLength="342.1875" x="48.4375" y="1301.639">Attach 22 task heads\nacross 5 groups:</text><text fill="#000000" font-family="sans-serif" font-size="18.75" lengthAdjust="spacing" textLength="642.1875" x="48.4375" y="1327.1767">G1: IQA (6 heads: blur/noise/contrast/skew/compression + overall_quality)</text><text fill="#000000" font-family="sans-serif" font-size="18.75" lengthAdjust="spacing" textLength="521.875" x="48.4375" y="1352.7144">G2: Script (3 heads: script_code cls + has_non_latin + has_rtl)</text><text fill="#000000" font-family="sans-serif" font-size="18.75" lengthAdjust="spacing" textLength="628.125" x="48.4375" y="1378.2521">G3: Orientation+Skew (3 heads: orientation_cls + skew_reg + confidence)</text><text fill="#000000" font-family="sans-serif" font-size="18.75" lengthAdjust="spacing" textLength="621.875" x="48.4375" y="1403.7898">G4: Handwriting (5 heads: 3 cls presence/legibility/content_type + 2 reg)</text><text fill="#000000" font-family="sans-serif" font-size="18.75" lengthAdjust="spacing" textLength="725" x="48.4375" y="1429.3274">G5: Page Attrs (5 heads: capture_cls + shadow/warping/code/resolution_quality reg)</text><rect fill="#F1F1F1" height="82.3254" rx="19.5313" ry="19.5313" style="stroke:#181818;stroke-width:0.78125;" width="292.1875" x="264.8438" y="1481.6962"/><text fill="#000000" font-family="sans-serif" font-size="18.75" lengthAdjust="spacing" textLength="203.125" x="280.4688" y="1517.3651">Train on all 10 datasets</text><text fill="#000000" font-family="sans-serif" font-size="18.75" lengthAdjust="spacing" textLength="260.9375" x="280.4688" y="1542.9028">(frozen backbone, heads only)</text><path d="M564.0625,1579.6466 L564.0625,1636.5404 L532.8125,1642.7904 L564.0625,1649.0404 L564.0625,1705.9342 A0,0 0 0 0 564.0625,1705.9342 L1154.6875,1705.9342 A0,0 0 0 0 1154.6875,1705.9342 L1154.6875,1595.2716 L1139.0625,1579.6466 L564.0625,1579.6466 A0,0 0 0 0 564.0625,1579.6466 " fill="#F8F8F8" style="stroke:#BBBBBB;stroke-width:0.78125;"/><path d="M1139.0625,1579.6466 L1139.0625,1595.2716 L1154.6875,1595.2716 L1139.0625,1579.6466 " fill="#F8F8F8" style="stroke:#BBBBBB;stroke-width:0.78125;"/><text fill="#000000" font-family="sans-serif" font-size="20.3125" lengthAdjust="spacing" textLength="337.5" x="573.4375" y="1609.1732">Phased training schedule (4 phases):</text><text fill="#000000" font-family="sans-serif" font-size="20.3125" lengthAdjust="spacing" textLength="314.0625" x="573.4375" y="1636.8388">warmup &#8594; expand &#8594; full &#8594; refine.</text><text fill="#000000" font-family="sans-serif" font-size="20.3125" lengthAdjust="spacing" textLength="429.6875" x="573.4375" y="1664.5045">See: prepare-doc-siglip2-phased-training.puml</text><text fill="#000000" font-family="sans-serif" font-size="20.3125" lengthAdjust="spacing" textLength="557.8125" x="573.4375" y="1692.1701">Source: docs/planning/TRAINING_OPTIMIZATION_PLAN.md</text><rect fill="#F1F1F1" height="82.3254" rx="19.5313" ry="19.5313" style="stroke:#181818;stroke-width:0.78125;" width="243.75" x="289.0625" y="1601.6277"/><text fill="#000000" font-family="sans-serif" font-size="18.75" lengthAdjust="spacing" textLength="212.5" x="304.6875" y="1637.2966">Weighted multi-task loss</text><text fill="#000000" font-family="sans-serif" font-size="18.75" lengthAdjust="spacing" textLength="171.875" x="304.6875" y="1662.8343">(per-group weights)</text><polygon fill="#F1F1F1" points="314.8438,1737.1842,507.0313,1737.1842,525.7813,1760.5934,507.0313,1784.0026,314.8438,1784.0026,296.0938,1760.5934,314.8438,1737.1842" style="stroke:#181818;stroke-width:0.78125;"/><text fill="#000000" font-family="sans-serif" font-size="17.1875" lengthAdjust="spacing" textLength="114.0625" x="314.8438" y="1755.5575">All heads pass</text><text fill="#000000" font-family="sans-serif" font-size="17.1875" lengthAdjust="spacing" textLength="192.1875" x="314.8438" y="1778.9667">graduation thresholds?</text><text fill="#000000" font-family="sans-serif" font-size="17.1875" lengthAdjust="spacing" textLength="26.5625" x="269.5313" y="1755.5575">yes</text><text fill="#000000" font-family="sans-serif" font-size="17.1875" lengthAdjust="spacing" textLength="21.875" x="525.7813" y="1755.5575">no</text><rect fill="#F1F1F1" height="82.3254" rx="19.5313" ry="19.5313" style="stroke:#181818;stroke-width:0.78125;" width="215.625" x="172.6563" y="1799.6276"/><text fill="#000000" font-family="sans-serif" font-size="18.75" lengthAdjust="spacing" textLength="115.625" x="188.2813" y="1835.2965">Save SigLIP 2</text><text fill="#000000" font-family="sans-serif" font-size="18.75" lengthAdjust="spacing" textLength="184.375" x="188.2813" y="1860.8342">multi-task checkpoint</text><rect fill="#F1F1F1" height="107.863" rx="19.5313" ry="19.5313" style="stroke:#181818;stroke-width:0.78125;" width="214.0625" x="434.375" y="1799.6276"/><text fill="#000000" font-family="sans-serif" font-size="18.75" lengthAdjust="spacing" textLength="165.625" x="450" y="1835.2965">Adjust loss weights</text><text fill="#000000" font-family="sans-serif" font-size="18.75" lengthAdjust="spacing" textLength="182.8125" x="450" y="1860.8342">or head architecture;</text><text fill="#000000" font-family="sans-serif" font-size="18.75" lengthAdjust="spacing" textLength="59.375" x="450" y="1886.3718">retrain</text><polygon fill="#F1F1F1" points="410.9375,1916.8656,429.6875,1935.6156,410.9375,1954.3656,392.1875,1935.6156,410.9375,1916.8656" style="stroke:#181818;stroke-width:0.78125;"/><rect fill="none" height="714.3142" style="stroke:#000000;stroke-width:2.34375;" width="490.625" x="153.9063" y="1991.2437"/><path d="M628.9063,1991.2437 L628.9063,2010.0998 L613.2813,2025.7248 L153.9063,2025.7248 " fill="none" style="stroke:#000000;stroke-width:2.34375;"/><text fill="#000000" font-family="sans-serif" font-size="21.875" lengthAdjust="spacing" textLength="459.375" x="158.5938" y="2016.1905">Step 3: MobileNetV4 Distillation Refinement</text><rect fill="#F1F1F1" height="107.863" rx="19.5313" ry="19.5313" style="stroke:#181818;stroke-width:0.78125;" width="306.25" x="257.8125" y="2052.2873"/><text fill="#000000" font-family="sans-serif" font-size="18.75" lengthAdjust="spacing" textLength="250" x="273.4375" y="2087.9562">Generate SigLIP 2 soft labels</text><text fill="#000000" font-family="sans-serif" font-size="18.75" lengthAdjust="spacing" textLength="275" x="273.4375" y="2113.4939">for orientation, skew, resolution</text><text fill="#000000" font-family="sans-serif" font-size="18.75" lengthAdjust="spacing" textLength="160.9375" x="273.4375" y="2139.0316">(from Groups 3+5)</text><rect fill="#F1F1F1" height="107.863" rx="19.5313" ry="19.5313" style="stroke:#181818;stroke-width:0.78125;" width="284.375" x="268.75" y="2191.4004"/><text fill="#000000" font-family="sans-serif" font-size="18.75" lengthAdjust="spacing" textLength="253.125" x="284.375" y="2227.0693">Re-train MobileNetV4-Conv-S</text><text fill="#000000" font-family="sans-serif" font-size="18.75" lengthAdjust="spacing" textLength="225" x="284.375" y="2252.6069">using KL-divergence (T=3)</text><text fill="#000000" font-family="sans-serif" font-size="18.75" lengthAdjust="spacing" textLength="209.375" x="284.375" y="2278.1446">from SigLIP 2 soft labels</text><rect fill="#F1F1F1" height="107.863" rx="19.5313" ry="19.5313" style="stroke:#181818;stroke-width:0.78125;" width="332.8125" x="244.5313" y="2330.5134"/><text fill="#000000" font-family="sans-serif" font-size="18.75" lengthAdjust="spacing" textLength="301.5625" x="260.1563" y="2366.1823">Loss: &#945;&#215;KL(SigLIP2||MobileNetV4)</text><text fill="#000000" font-family="sans-serif" font-size="18.75" lengthAdjust="spacing" textLength="167.1875" x="260.1563" y="2391.72">+ (1-&#945;)&#215;Hard labels</text><text fill="#000000" font-family="sans-serif" font-size="18.75" lengthAdjust="spacing" textLength="103.125" x="260.1563" y="2417.2577">(&#945;=0.7, T=3)</text><polygon fill="#F1F1F1" points="318.75,2469.6264,503.125,2469.6264,521.875,2493.0356,503.125,2516.4448,318.75,2516.4448,300,2493.0356,318.75,2469.6264" style="stroke:#181818;stroke-width:0.78125;"/><text fill="#000000" font-family="sans-serif" font-size="17.1875" lengthAdjust="spacing" textLength="184.375" x="318.75" y="2487.9997">Orientation acc &gt; 98%?</text><text fill="#000000" font-family="sans-serif" font-size="17.1875" lengthAdjust="spacing" textLength="140.625" x="318.75" y="2511.4089">Skew MAE &lt; 0.3&#176;?</text><text fill="#000000" font-family="sans-serif" font-size="17.1875" lengthAdjust="spacing" textLength="26.5625" x="273.4375" y="2487.9997">yes</text><text fill="#000000" font-family="sans-serif" font-size="17.1875" lengthAdjust="spacing" textLength="21.875" x="521.875" y="2487.9997">no</text><rect fill="#F1F1F1" height="82.3254" rx="19.5313" ry="19.5313" style="stroke:#181818;stroke-width:0.78125;" width="196.875" x="185.9375" y="2532.0698"/><text fill="#000000" font-family="sans-serif" font-size="18.75" lengthAdjust="spacing" textLength="159.375" x="201.5625" y="2567.7387">Save MobileNetV4</text><text fill="#000000" font-family="sans-serif" font-size="18.75" lengthAdjust="spacing" textLength="165.625" x="201.5625" y="2593.2764">distilled checkpoint</text><rect fill="#F1F1F1" height="107.863" rx="19.5313" ry="19.5313" style="stroke:#181818;stroke-width:0.78125;" width="150" x="462.5" y="2532.0698"/><text fill="#000000" font-family="sans-serif" font-size="18.75" lengthAdjust="spacing" textLength="118.75" x="478.125" y="2567.7387">Adjust &#945;, T, or</text><text fill="#000000" font-family="sans-serif" font-size="18.75" lengthAdjust="spacing" textLength="117.1875" x="478.125" y="2593.2764">learning rate;</text><text fill="#000000" font-family="sans-serif" font-size="18.75" lengthAdjust="spacing" textLength="59.375" x="478.125" y="2618.8141">retrain</text><polygon fill="#F1F1F1" points="410.9375,2649.3079,429.6875,2668.0579,410.9375,2686.8079,392.1875,2668.0579,410.9375,2649.3079" style="stroke:#181818;stroke-width:0.78125;"/><rect fill="none" height="1349.1112" style="stroke:#000000;stroke-width:2.34375;" width="916.4063" x="253.125" y="2721.1829"/><path d="M492.1875,2721.1829 L492.1875,2740.039 L476.5625,2755.664 L253.125,2755.664 " fill="none" style="stroke:#000000;stroke-width:2.34375;"/><text fill="#000000" font-family="sans-serif" font-size="21.875" lengthAdjust="spacing" textLength="223.4375" x="257.8125" y="2746.1297">Export &amp; Registration</text><rect fill="#F1F1F1" height="82.3254" rx="19.5313" ry="19.5313" style="stroke:#181818;stroke-width:0.78125;" width="270.3125" x="275.7813" y="2782.2265"/><text fill="#000000" font-family="sans-serif" font-size="18.75" lengthAdjust="spacing" textLength="209.375" x="291.4063" y="2817.8954">Export SigLIP 2 to ONNX</text><text fill="#000000" font-family="sans-serif" font-size="18.75" lengthAdjust="spacing" textLength="239.0625" x="291.4063" y="2843.4331">(22 output heads, 5 groups)</text><rect fill="#F1F1F1" height="82.3254" rx="19.5313" ry="19.5313" style="stroke:#181818;stroke-width:0.78125;" width="284.375" x="268.75" y="2895.8019"/><text fill="#000000" font-family="sans-serif" font-size="18.75" lengthAdjust="spacing" textLength="253.125" x="284.375" y="2931.4708">Export MobileNetV4 to ONNX</text><text fill="#000000" font-family="sans-serif" font-size="18.75" lengthAdjust="spacing" textLength="142.1875" x="284.375" y="2957.0084">(3 output heads)</text><rect fill="#F1F1F1" height="82.3254" rx="19.5313" ry="19.5313" style="stroke:#181818;stroke-width:0.78125;" width="254.6875" x="283.5938" y="3009.3772"/><text fill="#000000" font-family="sans-serif" font-size="18.75" lengthAdjust="spacing" textLength="223.4375" x="299.2188" y="3045.0461">Register in model registry</text><text fill="#000000" font-family="sans-serif" font-size="18.75" lengthAdjust="spacing" textLength="112.5" x="299.2188" y="3070.5838">(GCS bucket)</text><path d="M552.3438,3107.3276 L552.3438,3573.1858 L521.0938,3579.4358 L552.3438,3585.6858 L552.3438,4051.5441 A0,0 0 0 0 552.3438,4051.5441 L1153.9063,4051.5441 A0,0 0 0 0 1153.9063,4051.5441 L1153.9063,3122.9526 L1138.2813,3107.3276 L552.3438,3107.3276 A0,0 0 0 0 552.3438,3107.3276 " fill="#F8F8F8" style="stroke:#BBBBBB;stroke-width:0.78125;"/><path d="M1138.2813,3107.3276 L1138.2813,3122.9526 L1153.9063,3122.9526 L1138.2813,3107.3276 " fill="#F8F8F8" style="stroke:#BBBBBB;stroke-width:0.78125;"/><text fill="#000000" font-family="sans-serif" font-size="20.3125" font-weight="bold" lengthAdjust="spacing" textLength="207.8125" x="561.7188" y="3136.8542">PLANNED (Deferred)</text><text fill="#000000" font-family="sans-serif" font-size="20.3125" lengthAdjust="spacing" textLength="4.6875" x="769.5313" y="3136.8542">:</text><text fill="#000000" font-family="sans-serif" font-size="20.3125" lengthAdjust="spacing" textLength="335.9375" x="561.7188" y="3164.5198">Distillation cascade for edge/mobile:</text><text fill="#000000" font-family="sans-serif" font-size="20.3125" lengthAdjust="spacing" textLength="325" x="561.7188" y="3192.1855">SigLIP 2 --&gt; MobileCLIP-2 S4 (~35M)</text><text fill="#000000" font-family="sans-serif" font-size="20.3125" lengthAdjust="spacing" textLength="262.5" x="561.7188" y="3219.8511">--&gt; MobileCLIP-2 S0 (~11.4M)</text><text fill="#000000" font-family="sans-serif" font-size="20.3125" lengthAdjust="spacing" textLength="4.6875" x="561.7188" y="3247.5168">&#160;</text><line style="stroke:#BBBBBB;stroke-width:1.5625;" x1="552.3438" x2="1153.9063" y1="3261.2808" y2="3261.2808"/><line style="stroke:#BBBBBB;stroke-width:1.5625;" x1="552.3438" x2="1153.9063" y1="3264.4058" y2="3264.4058"/><text fill="#000000" font-family="sans-serif" font-size="20.3125" lengthAdjust="spacing" textLength="4.6875" x="561.7188" y="3290.8074">&#160;</text><text fill="#000000" font-family="sans-serif" font-size="20.3125" font-weight="bold" lengthAdjust="spacing" textLength="76.5625" x="561.7188" y="3318.4731">Source:</text><text fill="#000000" font-family="sans-serif" font-size="20.3125" lengthAdjust="spacing" textLength="315.625" x="561.7188" y="3346.1387">- modal/train_siglip2_multitask.py</text><text fill="#000000" font-family="sans-serif" font-size="20.3125" lengthAdjust="spacing" textLength="287.5" x="561.7188" y="3373.8044">- modal/train_siglip2_iqa_v2.py</text><text fill="#000000" font-family="sans-serif" font-size="20.3125" lengthAdjust="spacing" textLength="306.25" x="561.7188" y="3401.47">- modal/train_skew_estimator.py</text><text fill="#000000" font-family="sans-serif" font-size="20.3125" lengthAdjust="spacing" textLength="295.3125" x="561.7188" y="3429.1357">- modal/shared/metrics_utils.py</text><text fill="#000000" font-family="sans-serif" font-size="20.3125" lengthAdjust="spacing" textLength="257.8125" x="561.7188" y="3456.8013">- modal/shared/gcs_utils.py</text><text fill="#000000" font-family="sans-serif" font-size="20.3125" lengthAdjust="spacing" textLength="296.875" x="561.7188" y="3484.467">- modal/shared/dataset_utils.py</text><text fill="#000000" font-family="sans-serif" font-size="20.3125" lengthAdjust="spacing" textLength="270.3125" x="561.7188" y="3512.1326">- modal/shared/constants.py</text><text fill="#000000" font-family="sans-serif" font-size="20.3125" lengthAdjust="spacing" textLength="4.6875" x="561.7188" y="3539.7983">&#160;</text><text fill="#000000" font-family="sans-serif" font-size="20.3125" font-weight="bold" lengthAdjust="spacing" textLength="75" x="561.7188" y="3567.4639">Scripts:</text><text fill="#000000" font-family="sans-serif" font-size="20.3125" lengthAdjust="spacing" textLength="367.1875" x="561.7188" y="3595.1296">- scripts/prepare_multitask_datasets.py</text><text fill="#000000" font-family="sans-serif" font-size="20.3125" lengthAdjust="spacing" textLength="328.125" x="561.7188" y="3622.7952">- scripts/generate_skew_dataset.py</text><text fill="#000000" font-family="sans-serif" font-size="20.3125" lengthAdjust="spacing" textLength="357.8125" x="561.7188" y="3650.4609">- scripts/generate_v3_shadow_view.py</text><text fill="#000000" font-family="sans-serif" font-size="20.3125" lengthAdjust="spacing" textLength="360.9375" x="561.7188" y="3678.1265">- scripts/generate_v3_warping_view.py</text><text fill="#000000" font-family="sans-serif" font-size="20.3125" lengthAdjust="spacing" textLength="362.5" x="561.7188" y="3705.7922">- scripts/derive_v3_orientation_view.py</text><text fill="#000000" font-family="sans-serif" font-size="20.3125" lengthAdjust="spacing" textLength="4.6875" x="561.7188" y="3733.4578">&#160;</text><text fill="#000000" font-family="sans-serif" font-size="20.3125" font-weight="bold" lengthAdjust="spacing" textLength="170.3125" x="561.7188" y="3761.1235">Documentation:</text><a href="docs/planning/SIGLIP2_MULTITASK_REQUIREMENTS.md" target="_top" title="docs/planning/SIGLIP2_MULTITASK_REQUIREMENTS.md" xlink:actuate="onRequest" xlink:href="docs/planning/SIGLIP2_MULTITASK_REQUIREMENTS.md" xlink:show="new" xlink:title="docs/planning/SIGLIP2_MULTITASK_REQUIREMENTS.md" xlink:type="simple"><text fill="#0000FF" font-family="sans-serif" font-size="20.3125" lengthAdjust="spacing" text-decoration="underline" textLength="529.6875" x="561.7188" y="3788.7891">docs/planning/SIGLIP2_MULTITASK_REQUIREMENTS.md</text></a><a href="docs/planning/TRAINING_OPTIMIZATION_PLAN.md" target="_top" title="docs/planning/TRAINING_OPTIMIZATION_PLAN.md" xlink:actuate="onRequest" xlink:href="docs/planning/TRAINING_OPTIMIZATION_PLAN.md" xlink:show="new" xlink:title="docs/planning/TRAINING_OPTIMIZATION_PLAN.md" xlink:type="simple"><text fill="#0000FF" font-family="sans-serif" font-size="20.3125" lengthAdjust="spacing" text-decoration="underline" textLength="484.375" x="561.7188" y="3816.4548">docs/planning/TRAINING_OPTIMIZATION_PLAN.md</text></a><a href="docs/planning/DATASET_DIVERSITY_REQUIREMENTS.md" target="_top" title="docs/planning/DATASET_DIVERSITY_REQUIREMENTS.md" xlink:actuate="onRequest" xlink:href="docs/planning/DATASET_DIVERSITY_REQUIREMENTS.md" xlink:show="new" xlink:title="docs/planning/DATASET_DIVERSITY_REQUIREMENTS.md" xlink:type="simple"><text fill="#0000FF" font-family="sans-serif" font-size="20.3125" lengthAdjust="spacing" text-decoration="underline" textLength="526.5625" x="561.7188" y="3844.1204">docs/planning/DATASET_DIVERSITY_REQUIREMENTS.md</text></a><a href="docs/architecture/diagrams/level-2/model-training/index.md" target="_top" title="docs/architecture/diagrams/level-2/model-training/index.md" xlink:actuate="onRequest" xlink:href="docs/architecture/diagrams/level-2/model-training/index.md" xlink:show="new" xlink:title="docs/architecture/diagrams/level-2/model-training/index.md" xlink:type="simple"><text fill="#0000FF" font-family="sans-serif" font-size="20.3125" lengthAdjust="spacing" text-decoration="underline" textLength="568.75" x="561.7188" y="3871.7861">docs/architecture/diagrams/level-2/model-training/index.md</text></a><text fill="#000000" font-family="sans-serif" font-size="20.3125" lengthAdjust="spacing" textLength="4.6875" x="561.7188" y="3899.4517">&#160;</text><text fill="#000000" font-family="sans-serif" font-size="20.3125" font-weight="bold" lengthAdjust="spacing" textLength="50" x="561.7188" y="3927.1174">ADR:</text><a href="docs/ADRs/0028-resnet-teacher-student-architecture.md" target="_top" title="docs/ADRs/0028-resnet-teacher-student-architecture.md" xlink:actuate="onRequest" xlink:href="docs/ADRs/0028-resnet-teacher-student-architecture.md" xlink:show="new" xlink:title="docs/ADRs/0028-resnet-teacher-student-architecture.md" xlink:type="simple"><text fill="#0000FF" font-family="sans-serif" font-size="20.3125" lengthAdjust="spacing" text-decoration="underline" textLength="528.125" x="561.7188" y="3954.783">docs/ADRs/0028-resnet-teacher-student-architecture.md</text></a><a href="docs/ADRs/0035-modal-gpu-integration.md" target="_top" title="docs/ADRs/0035-modal-gpu-integration.md" xlink:actuate="onRequest" xlink:href="docs/ADRs/0035-modal-gpu-integration.md" xlink:show="new" xlink:title="docs/ADRs/0035-modal-gpu-integration.md" xlink:type="simple"><text fill="#0000FF" font-family="sans-serif" font-size="20.3125" lengthAdjust="spacing" text-decoration="underline" textLength="407.8125" x="561.7188" y="3982.4487">docs/ADRs/0035-modal-gpu-integration.md</text></a><a href="docs/ADRs/0027-int8-quantization-onnx.md" target="_top" title="docs/ADRs/0027-int8-quantization-onnx.md" xlink:actuate="onRequest" xlink:href="docs/ADRs/0027-int8-quantization-onnx.md" xlink:show="new" xlink:title="docs/ADRs/0027-int8-quantization-onnx.md" xlink:type="simple"><text fill="#0000FF" font-family="sans-serif" font-size="20.3125" lengthAdjust="spacing" text-decoration="underline" textLength="409.375" x="561.7188" y="4010.1143">docs/ADRs/0027-int8-quantization-onnx.md</text></a><a href="docs/ADRs/0022-synthetic-data-generation.md" target="_top" title="docs/ADRs/0022-synthetic-data-generation.md" xlink:actuate="onRequest" xlink:href="docs/ADRs/0022-synthetic-data-generation.md" xlink:show="new" xlink:title="docs/ADRs/0022-synthetic-data-generation.md" xlink:type="simple"><text fill="#0000FF" font-family="sans-serif" font-size="20.3125" lengthAdjust="spacing" text-decoration="underline" textLength="437.5" x="561.7188" y="4037.78">docs/ADRs/0022-synthetic-data-generation.md</text></a><rect fill="#F1F1F1" height="82.3254" rx="19.5313" ry="19.5313" style="stroke:#181818;stroke-width:0.78125;" width="220.3125" x="300.7813" y="3538.2731"/><text fill="#000000" font-family="sans-serif" font-size="18.75" lengthAdjust="spacing" textLength="142.1875" x="316.4063" y="3573.942">Arena validation</text><text fill="#000000" font-family="sans-serif" font-size="18.75" lengthAdjust="spacing" textLength="189.0625" x="316.4063" y="3599.4797">(per-head thresholds)</text><ellipse cx="410.9375" cy="4118.7316" fill="none" rx="17.1875" ry="17.1875" style="stroke:#222222;stroke-width:1.5625;"/><ellipse cx="410.9375" cy="4118.7316" fill="#222222" rx="9.375" ry="9.375" style="stroke:#222222;stroke-width:1.5625;"/><line style="stroke:#181818;stroke-width:1.5625;" x1="410.9375" x2="410.9375" y1="109.4811" y2="211.0262"/><polygon fill="#181818" points="404.6875,195.4012,410.9375,211.0262,417.1875,195.4012,410.9375,201.6512" style="stroke:#181818;stroke-width:1.5625;"/><line style="stroke:#181818;stroke-width:1.5625;" x1="410.9375" x2="410.9375" y1="506.9095" y2="538.1595"/><polygon fill="#181818" points="404.6875,522.5345,410.9375,538.1595,417.1875,522.5345,410.9375,528.7845" style="stroke:#181818;stroke-width:1.5625;"/><line style="stroke:#181818;stroke-width:1.5625;" x1="410.9375" x2="410.9375" y1="671.5602" y2="702.8102"/><polygon fill="#181818" points="404.6875,687.1852,410.9375,702.8102,417.1875,687.1852,410.9375,693.4352" style="stroke:#181818;stroke-width:1.5625;"/><line style="stroke:#181818;stroke-width:1.5625;" x1="300" x2="279.6875" y1="877.037" y2="877.037"/><line style="stroke:#181818;stroke-width:1.5625;" x1="279.6875" x2="279.6875" y1="877.037" y2="927.7758"/><polygon fill="#181818" points="273.4375,912.1508,279.6875,927.7758,285.9375,912.1508,279.6875,918.4008" style="stroke:#181818;stroke-width:1.5625;"/><line style="stroke:#181818;stroke-width:1.5625;" x1="521.875" x2="542.1875" y1="877.037" y2="877.037"/><line style="stroke:#181818;stroke-width:1.5625;" x1="542.1875" x2="542.1875" y1="877.037" y2="927.7758"/><polygon fill="#181818" points="535.9375,912.1508,542.1875,927.7758,548.4375,912.1508,542.1875,918.4008" style="stroke:#181818;stroke-width:1.5625;"/><line style="stroke:#181818;stroke-width:1.5625;" x1="279.6875" x2="279.6875" y1="1010.1012" y2="1038.2262"/><line style="stroke:#181818;stroke-width:1.5625;" x1="279.6875" x2="392.1875" y1="1038.2262" y2="1038.2262"/><polygon fill="#181818" points="376.5625,1031.9762,392.1875,1038.2262,376.5625,1044.4762,382.8125,1038.2262" style="stroke:#181818;stroke-width:1.5625;"/><line style="stroke:#181818;stroke-width:1.5625;" x1="542.1875" x2="542.1875" y1="1010.1012" y2="1038.2262"/><line style="stroke:#181818;stroke-width:1.5625;" x1="542.1875" x2="429.6875" y1="1038.2262" y2="1038.2262"/><polygon fill="#181818" points="445.3125,1031.9762,429.6875,1038.2262,445.3125,1044.4762,439.0625,1038.2262" style="stroke:#181818;stroke-width:1.5625;"/><line style="stroke:#181818;stroke-width:1.5625;" x1="410.9375" x2="410.9375" y1="810.6732" y2="841.9232"/><polygon fill="#181818" points="404.6875,826.2982,410.9375,841.9232,417.1875,826.2982,410.9375,832.5482" style="stroke:#181818;stroke-width:1.5625;"/><line style="stroke:#181818;stroke-width:1.5625;" x1="410.9375" x2="410.9375" y1="293.3515" y2="424.5841"/><polygon fill="#181818" points="404.6875,408.9591,410.9375,424.5841,417.1875,408.9591,410.9375,415.2091" style="stroke:#181818;stroke-width:1.5625;"/><line style="stroke:#181818;stroke-width:1.5625;" x1="410.9375" x2="410.9375" y1="1234.7202" y2="1265.9702"/><polygon fill="#181818" points="404.6875,1250.3452,410.9375,1265.9702,417.1875,1250.3452,410.9375,1256.5952" style="stroke:#181818;stroke-width:1.5625;"/><line style="stroke:#181818;stroke-width:1.5625;" x1="410.9375" x2="410.9375" y1="1450.4462" y2="1481.6962"/><polygon fill="#181818" points="404.6875,1466.0712,410.9375,1481.6962,417.1875,1466.0712,410.9375,1472.3212" style="stroke:#181818;stroke-width:1.5625;"/><line style="stroke:#181818;stroke-width:1.5625;" x1="410.9375" x2="410.9375" y1="1564.0216" y2="1601.6277"/><polygon fill="#181818" points="404.6875,1586.0027,410.9375,1601.6277,417.1875,1586.0027,410.9375,1592.2527" style="stroke:#181818;stroke-width:1.5625;"/><line style="stroke:#181818;stroke-width:1.5625;" x1="296.0938" x2="280.4688" y1="1760.5934" y2="1760.5934"/><line style="stroke:#181818;stroke-width:1.5625;" x1="280.4688" x2="280.4688" y1="1760.5934" y2="1799.6276"/><polygon fill="#181818" points="274.2188,1784.0026,280.4688,1799.6276,286.7188,1784.0026,280.4688,1790.2526" style="stroke:#181818;stroke-width:1.5625;"/><line style="stroke:#181818;stroke-width:1.5625;" x1="525.7813" x2="541.4063" y1="1760.5934" y2="1760.5934"/><line style="stroke:#181818;stroke-width:1.5625;" x1="541.4063" x2="541.4063" y1="1760.5934" y2="1799.6276"/><polygon fill="#181818" points="535.1563,1784.0026,541.4063,1799.6276,547.6563,1784.0026,541.4063,1790.2526" style="stroke:#181818;stroke-width:1.5625;"/><line style="stroke:#181818;stroke-width:1.5625;" x1="280.4688" x2="280.4688" y1="1881.9529" y2="1935.6156"/><line style="stroke:#181818;stroke-width:1.5625;" x1="280.4688" x2="392.1875" y1="1935.6156" y2="1935.6156"/><polygon fill="#181818" points="376.5625,1929.3656,392.1875,1935.6156,376.5625,1941.8656,382.8125,1935.6156" style="stroke:#181818;stroke-width:1.5625;"/><line style="stroke:#181818;stroke-width:1.5625;" x1="541.4063" x2="541.4063" y1="1907.4906" y2="1935.6156"/><line style="stroke:#181818;stroke-width:1.5625;" x1="541.4063" x2="429.6875" y1="1935.6156" y2="1935.6156"/><polygon fill="#181818" points="445.3125,1929.3656,429.6875,1935.6156,445.3125,1941.8656,439.0625,1935.6156" style="stroke:#181818;stroke-width:1.5625;"/><line style="stroke:#181818;stroke-width:1.5625;" x1="410.9375" x2="410.9375" y1="1683.9531" y2="1737.1842"/><polygon fill="#181818" points="404.6875,1721.5592,410.9375,1737.1842,417.1875,1721.5592,410.9375,1727.8092" style="stroke:#181818;stroke-width:1.5625;"/><line style="stroke:#181818;stroke-width:1.5625;" x1="410.9375" x2="410.9375" y1="1056.9762" y2="1152.3948"/><polygon fill="#181818" points="404.6875,1136.7698,410.9375,1152.3948,417.1875,1136.7698,410.9375,1143.0198" style="stroke:#181818;stroke-width:1.5625;"/><line style="stroke:#181818;stroke-width:1.5625;" x1="410.9375" x2="410.9375" y1="2160.1504" y2="2191.4004"/><polygon fill="#181818" points="404.6875,2175.7754,410.9375,2191.4004,417.1875,2175.7754,410.9375,2182.0254" style="stroke:#181818;stroke-width:1.5625;"/><line style="stroke:#181818;stroke-width:1.5625;" x1="410.9375" x2="410.9375" y1="2299.2634" y2="2330.5134"/><polygon fill="#181818" points="404.6875,2314.8884,410.9375,2330.5134,417.1875,2314.8884,410.9375,2321.1384" style="stroke:#181818;stroke-width:1.5625;"/><line style="stroke:#181818;stroke-width:1.5625;" x1="300" x2="284.375" y1="2493.0356" y2="2493.0356"/><line style="stroke:#181818;stroke-width:1.5625;" x1="284.375" x2="284.375" y1="2493.0356" y2="2532.0698"/><polygon fill="#181818" points="278.125,2516.4448,284.375,2532.0698,290.625,2516.4448,284.375,2522.6948" style="stroke:#181818;stroke-width:1.5625;"/><line style="stroke:#181818;stroke-width:1.5625;" x1="521.875" x2="537.5" y1="2493.0356" y2="2493.0356"/><line style="stroke:#181818;stroke-width:1.5625;" x1="537.5" x2="537.5" y1="2493.0356" y2="2532.0698"/><polygon fill="#181818" points="531.25,2516.4448,537.5,2532.0698,543.75,2516.4448,537.5,2522.6948" style="stroke:#181818;stroke-width:1.5625;"/><line style="stroke:#181818;stroke-width:1.5625;" x1="284.375" x2="284.375" y1="2614.3952" y2="2668.0579"/><line style="stroke:#181818;stroke-width:1.5625;" x1="284.375" x2="392.1875" y1="2668.0579" y2="2668.0579"/><polygon fill="#181818" points="376.5625,2661.8079,392.1875,2668.0579,376.5625,2674.3079,382.8125,2668.0579" style="stroke:#181818;stroke-width:1.5625;"/><line style="stroke:#181818;stroke-width:1.5625;" x1="537.5" x2="537.5" y1="2639.9329" y2="2668.0579"/><line style="stroke:#181818;stroke-width:1.5625;" x1="537.5" x2="429.6875" y1="2668.0579" y2="2668.0579"/><polygon fill="#181818" points="445.3125,2661.8079,429.6875,2668.0579,445.3125,2674.3079,439.0625,2668.0579" style="stroke:#181818;stroke-width:1.5625;"/><line style="stroke:#181818;stroke-width:1.5625;" x1="410.9375" x2="410.9375" y1="2438.3764" y2="2469.6264"/><polygon fill="#181818" points="404.6875,2454.0014,410.9375,2469.6264,417.1875,2454.0014,410.9375,2460.2514" style="stroke:#181818;stroke-width:1.5625;"/><line style="stroke:#181818;stroke-width:1.5625;" x1="410.9375" x2="410.9375" y1="1954.3656" y2="2052.2873"/><polygon fill="#181818" points="404.6875,2036.6623,410.9375,2052.2873,417.1875,2036.6623,410.9375,2042.9123" style="stroke:#181818;stroke-width:1.5625;"/><line style="stroke:#181818;stroke-width:1.5625;" x1="410.9375" x2="410.9375" y1="2864.5519" y2="2895.8019"/><polygon fill="#181818" points="404.6875,2880.1769,410.9375,2895.8019,417.1875,2880.1769,410.9375,2886.4269" style="stroke:#181818;stroke-width:1.5625;"/><line style="stroke:#181818;stroke-width:1.5625;" x1="410.9375" x2="410.9375" y1="2978.1272" y2="3009.3772"/><polygon fill="#181818" points="404.6875,2993.7522,410.9375,3009.3772,417.1875,2993.7522,410.9375,3000.0022" style="stroke:#181818;stroke-width:1.5625;"/><line style="stroke:#181818;stroke-width:1.5625;" x1="410.9375" x2="410.9375" y1="3091.7026" y2="3538.2731"/><polygon fill="#181818" points="404.6875,3522.6481,410.9375,3538.2731,417.1875,3522.6481,410.9375,3528.8981" style="stroke:#181818;stroke-width:1.5625;"/><line style="stroke:#181818;stroke-width:1.5625;" x1="410.9375" x2="410.9375" y1="2686.8079" y2="2782.2265"/><polygon fill="#181818" points="404.6875,2766.6015,410.9375,2782.2265,417.1875,2766.6015,410.9375,2772.8515" style="stroke:#181818;stroke-width:1.5625;"/><line style="stroke:#181818;stroke-width:1.5625;" x1="410.9375" x2="410.9375" y1="3620.5985" y2="4101.5441"/><polygon fill="#181818" points="404.6875,4085.9191,410.9375,4101.5441,417.1875,4085.9191,410.9375,4092.1691" style="stroke:#181818;stroke-width:1.5625;"/><!--SRC=[ZLVTSjis5hxNKvnfPpkKRPhwiH9NQTfHRDNLs59SIqrsMtKuC0bHM4C02u3-oRQzx0FiJL-ZVeNqFW-nJx8702bJZUB6lX693mVdvplV0GqpdCAveZbHD3oM2OGmBhXXuOpeAvWfmWGJ6Popd78cA0JTS6fe3g-OCeKiD1pT9Pms6mrznGGQ8Ij8SmRjNglsHYz9Ac-idGNXcjPM54qC4Hdwy9y6m0kIN6LA5Y8zabmgUBraXjhtKgLK-NSlE88QlzHi26csR__qwqFx_nS3dxvmVsYYeGrHfj50CuOP9WLyCX9vOVGdpbo_tOAyKBdKDBmi63UG4aCqDNekWbzxhUuf66a81xOY6TNDPxZ7-Q9OjZJu0F1ICIeCSRQ3NkkqkGVJAte3mO7zxI0NL4jUU4JN8KRV3Y1eFpdTRRVMg6cYM6xmTUlGGhuX8hrHw3EcD7YoHXsHt1IAhezoQSTDlGhmcgZSxUaum95CgRLvsiHLAbBdlarCBIEkskq-ZEKbutH2pQk3y4YAwt2AMPL66qNoCbyZWNi8Ps_e5hJDsS4ONCdq7kIA6aikchgyzHtJe0jBIb8DUB2-4sP93KlcmjSKZ2hC4ZYvf5ptSK-ucTw3CE54wpwqeizRKVkm5NMUjfeEvtAkQAQerWxxzhxTUlk7NwmLuAS2lJTt4BJ2jdVBzuAnlS0b6f-Bes4W7uvjmYwCfyD0umdDkV0FQctH6M4B2EgUaYI1B-7ptZ- -cWldsNWmX2-WjTzx-mU-glbJBRI_QW8c0ns_GvwvIlQdv7eZpNDnMPK3aYLDhdB9XB7dOxgmoaAM6mVflmjjO7cNK-MgGGrL-jbSb1Lvvhd05jk8qEd3b6LdetFem6JmDQUtDRaeQN0cIVeUwX9xyr8AQcbmUFZ0WuMIRp2mLsmMleZQJtpM1yQGP0cT3hZCEqxC1KaKbW1wOFcGEmgS835Tkppne3vSya95GZ9DeqGA34YRo1O7drPvLVzTaDTK4SxZik8sDISsjhBDkfKvxLx4YMsKX6lSkIGw5bB478ifocTbkBFGxTSfkUjRVMshHflOsxAEnSXB_8dEBbXAHKATfOF-Pe_tAYDTvuQDn68ZJZE65C0GNBXeFpPOM3JOiOHtjdfzE4U10iogqZLJYLUBoXSd5j6DLuZ8HXmz4BbAb3DQQrXBPyu1bRAcZMLDgvBlhPkQt_czhwbLI9h2QhEzS2-ICdJrXHi7sYghvvXqQWMXd4uQ2PyME4I20yZjccxs7H2ZMQ6f__tsNw2tEIRK_LmKwBBzeUW25MZVAoobVPjNDmXJcOIQPPpbdT0PJCFgiFsyM76_GnOgmKq8rb7EYR3BqUnYC9gC9YVno_FPQ3pwVZ0RlPp4vsU3oVughSki5uO1kkBJanERW4oHjF0wOPQO_wNagVvG-rTDDXUrH7vCyzjaLmcU2noArWKWAh43Dx6i-4Wzw6uC1ZXcsZ3ElVyNBhihv6Gf32TKODUP1xz1ouKf5Nqk5kX7hKVsN7limGC9FRLMSEBw7xgxFK-d2-ghitNg5DeovFGiJ1dsV6Qx1eBPyowgjJEspPTdNiRiC7bt_-VlfsU1HtL-_hbsXDFxe1s-ks_- -VitHANhI89tzyzR-q_tm9xpo0WuV6y4T744V8pMfpxHs0GVK-vtz-ZA7YPtBZWbolMCBSJV5tbucqjbu3CiPiRiSB6lotAMQ-i46Wal9vD_OlWetB8mU9ForDvRQxQlLxcnJfo7lTsDhLM1xU5K0TPuXSB4hGnPT-vmmydH52wBv8gQSdWeAWXSerobf6ID5HN7y8UMGYn6kg4hEpksIoV3OmYEwO8gXNUJdHqh91kqJeXE28u3IrUQPZHQkJWiRfsACFoo3Ey8NuGTc1v0y6ktDtPNZlSMMxZORkyVu3AkFyU_XlEdL9YT7NTHmSW9ZrovubASOjVtjkttyxiFWjXF9BxkR4NO0KGnk1KnKcqYS21W1YAy7YYMw1WxaEkjYEpHrN8kF8B0mOKNSM7Sge_RJLrT1Uw7C6giL-U7eEDgw5HsAsHMAeqFi4Hz47JTZVtqYwyPlNaCLax7hJZym425iQZweA-GBYxylYfMrPAFxeSVDiV7T7HYXIOUVtSs6yq6qzFuOlZjTwEBuNWucKrnXFpuuvPTZmwThJkE1sXyE8kFHw-65zFHx5-FdLCV357AI6RlRdZtkAOyx4Ik8zVpCM8YfRVUW0jwS7on4Ie-wwZLwXo6s8k2cj1GlEnXXsfJu0N8XFNJ_k98kRVR2ns3mYmlGbG-lDcxb6v7TvvQp668LnXXs1k73AKGjn-0TyBrjqTegHEM35WVi1xX-04fyyR_0G00]--></g></svg>
