<?xml version="1.0" encoding="us-ascii" standalone="no"?><svg xmlns="http://www.w3.org/2000/svg" xmlns:xlink="http://www.w3.org/1999/xlink" contentStyleType="text/css" height="4056.25px" preserveAspectRatio="none" style="width:3045px;height:4056px;background:#FFFFFF;" version="1.1" viewBox="0 0 3045 4056" width="3045.3125px" zoomAndPan="magnify"><defs/><g><text fill="#000000" font-family="sans-serif" font-size="21.875" font-weight="bold" lengthAdjust="spacing" textLength="490.625" x="1275" y="54.6343">Prepare-Doc - Training Workflow (High Level)</text><rect fill="none" height="38.306" style="stroke:none;stroke-width:1.5625;" width="2993.75" x="23.4375" y="84.1279"/><ellipse cx="203.125" cy="145.8715" fill="#222222" rx="15.625" ry="15.625" style="stroke:#222222;stroke-width:1.5625;"/><rect fill="#F1F1F1" height="158.9384" rx="19.5313" ry="19.5313" style="stroke:#181818;stroke-width:0.78125;" width="317.1875" x="44.5313" y="192.7465"/><text fill="#000000" font-family="sans-serif" font-size="18.75" lengthAdjust="spacing" textLength="285.9375" x="60.1563" y="228.4153">Collect 10 purpose-built datasets</text><text fill="#000000" font-family="sans-serif" font-size="18.75" lengthAdjust="spacing" textLength="271.875" x="60.1563" y="253.953">(~503K total: Orientation, Skew,</text><text fill="#000000" font-family="sans-serif" font-size="18.75" lengthAdjust="spacing" textLength="196.875" x="60.1563" y="279.4907">Resolution, IQA, Script,</text><text fill="#000000" font-family="sans-serif" font-size="18.75" lengthAdjust="spacing" textLength="268.75" x="60.1563" y="305.0284">Handwriting, Capture, Shadow,</text><text fill="#000000" font-family="sans-serif" font-size="18.75" lengthAdjust="spacing" textLength="134.375" x="60.1563" y="330.5661">Warping, Code)</text><rect fill="#F1F1F1" height="107.863" rx="19.5313" ry="19.5313" style="stroke:#181818;stroke-width:0.78125;" width="337.5" x="34.375" y="382.9348"/><text fill="#000000" font-family="sans-serif" font-size="18.75" lengthAdjust="spacing" textLength="245.3125" x="50" y="418.6037">Apply augmentation profiles</text><text fill="#000000" font-family="sans-serif" font-size="18.75" lengthAdjust="spacing" textLength="306.25" x="50" y="444.1414">(aged/historical, multi-degradation,</text><text fill="#000000" font-family="sans-serif" font-size="18.75" lengthAdjust="spacing" textLength="182.8125" x="50" y="469.6791">color mode diversity)</text><rect fill="#F1F1F1" height="82.3254" rx="19.5313" ry="19.5313" style="stroke:#181818;stroke-width:0.78125;" width="340.625" x="32.8125" y="522.0479"/><text fill="#000000" font-family="sans-serif" font-size="18.75" lengthAdjust="spacing" textLength="214.0625" x="48.4375" y="557.7168">Create annotation labels</text><text fill="#000000" font-family="sans-serif" font-size="18.75" lengthAdjust="spacing" textLength="309.375" x="48.4375" y="583.2545">(per-task: classification, regression)</text><rect fill="#F1F1F1" height="82.3254" rx="19.5313" ry="19.5313" style="stroke:#181818;stroke-width:0.78125;" width="301.5625" x="52.3438" y="635.6232"/><text fill="#000000" font-family="sans-serif" font-size="18.75" lengthAdjust="spacing" textLength="193.75" x="67.9688" y="671.2921">Split train/val/test sets</text><text fill="#000000" font-family="sans-serif" font-size="18.75" lengthAdjust="spacing" textLength="270.3125" x="67.9688" y="696.8298">(SHA256-keyed global registry)</text><line style="stroke:#000000;stroke-width:2.34375;" x1="23.4375" x2="23.4375" y1="84.1279" y2="4038.1166"/><rect fill="#F1F1F1" height="82.3254" rx="19.5313" ry="19.5313" style="stroke:#181818;stroke-width:0.78125;" width="289.0625" x="545.7031" y="749.1986"/><text fill="#000000" font-family="sans-serif" font-size="18.75" lengthAdjust="spacing" textLength="257.8125" x="561.3281" y="784.8675">Initialize MobileNetV4-Conv-S</text><text fill="#000000" font-family="sans-serif" font-size="18.75" lengthAdjust="spacing" textLength="225" x="561.3281" y="810.4052">(~4M params, pretrained)</text><rect fill="#F1F1F1" height="133.4007" rx="19.5313" ry="19.5313" style="stroke:#181818;stroke-width:0.78125;" width="243.75" x="568.3594" y="862.774"/><text fill="#000000" font-family="sans-serif" font-size="18.75" lengthAdjust="spacing" textLength="153.125" x="583.9844" y="898.4428">Add 3 task heads:</text><text fill="#000000" font-family="sans-serif" font-size="18.75" lengthAdjust="spacing" textLength="187.5" x="583.9844" y="923.9805">- Orientation (4-class)</text><text fill="#000000" font-family="sans-serif" font-size="18.75" lengthAdjust="spacing" textLength="212.5" x="583.9844" y="949.5182">- Skew regression (&#177;10&#176;)</text><text fill="#000000" font-family="sans-serif" font-size="18.75" lengthAdjust="spacing" textLength="209.375" x="583.9844" y="975.0559">- Resolution quality (0-1)</text><rect fill="#F1F1F1" height="82.3254" rx="19.5313" ry="19.5313" style="stroke:#181818;stroke-width:0.78125;" width="273.4375" x="553.5156" y="1027.4247"/><text fill="#000000" font-family="sans-serif" font-size="18.75" lengthAdjust="spacing" textLength="242.1875" x="569.1406" y="1063.0936">Train on ground truth labels</text><text fill="#000000" font-family="sans-serif" font-size="18.75" lengthAdjust="spacing" textLength="154.6875" x="569.1406" y="1088.6312">(Modal GPU: A10)</text><rect fill="#F1F1F1" height="82.3254" rx="19.5313" ry="19.5313" style="stroke:#181818;stroke-width:0.78125;" width="350" x="515.2344" y="1141"/><text fill="#000000" font-family="sans-serif" font-size="18.75" lengthAdjust="spacing" textLength="251.5625" x="530.8594" y="1176.6689">Validate per-head thresholds</text><text fill="#000000" font-family="sans-serif" font-size="18.75" lengthAdjust="spacing" textLength="318.75" x="530.8594" y="1202.2066">(orientation &gt; 95%, skew MAE &lt; 0.5&#176;)</text><polygon fill="#F1F1F1" points="608.9844,1254.5754,771.4844,1254.5754,790.2344,1277.9846,771.4844,1301.3938,608.9844,1301.3938,590.2344,1277.9846,608.9844,1254.5754" style="stroke:#181818;stroke-width:0.78125;"/><text fill="#000000" font-family="sans-serif" font-size="17.1875" lengthAdjust="spacing" textLength="162.5" x="608.9844" y="1272.9487">MobileNetV4 passes</text><text fill="#000000" font-family="sans-serif" font-size="17.1875" lengthAdjust="spacing" textLength="89.0625" x="608.9844" y="1296.3579">validation?</text><text fill="#000000" font-family="sans-serif" font-size="17.1875" lengthAdjust="spacing" textLength="26.5625" x="563.6719" y="1272.9487">yes</text><text fill="#000000" font-family="sans-serif" font-size="17.1875" lengthAdjust="spacing" textLength="21.875" x="790.2344" y="1272.9487">no</text><rect fill="#F1F1F1" height="56.7877" rx="19.5313" ry="19.5313" style="stroke:#181818;stroke-width:0.78125;" width="303.125" x="389.0625" y="1317.0188"/><text fill="#000000" font-family="sans-serif" font-size="18.75" lengthAdjust="spacing" textLength="271.875" x="404.6875" y="1352.6877">Export MobileNetV4 checkpoint</text><rect fill="#F1F1F1" height="56.7877" rx="19.5313" ry="19.5313" style="stroke:#181818;stroke-width:0.78125;" width="232.8125" x="723.4375" y="1317.0188"/><text fill="#000000" font-family="sans-serif" font-size="18.75" lengthAdjust="spacing" textLength="201.5625" x="739.0625" y="1352.6877">Tune hyperparameters</text><rect fill="#F1F1F1" height="56.7877" rx="19.5313" ry="19.5313" style="stroke:#181818;stroke-width:0.78125;" width="93.75" x="792.9688" y="1405.0565"/><text fill="#000000" font-family="sans-serif" font-size="18.75" lengthAdjust="spacing" textLength="62.5" x="808.5938" y="1440.7254">Retrain</text><polygon fill="#F1F1F1" points="690.2344,1471.2191,708.9844,1489.9691,690.2344,1508.7191,671.4844,1489.9691,690.2344,1471.2191" style="stroke:#181818;stroke-width:0.78125;"/><line style="stroke:#000000;stroke-width:2.34375;" x1="379.6875" x2="379.6875" y1="84.1279" y2="4038.1166"/><rect fill="#F1F1F1" height="82.3254" rx="19.5313" ry="19.5313" style="stroke:#181818;stroke-width:0.78125;" width="301.5625" x="1081.25" y="1539.9691"/><text fill="#000000" font-family="sans-serif" font-size="18.75" lengthAdjust="spacing" textLength="270.3125" x="1096.875" y="1575.638">Load SigLIP 2 NAFlex backbone</text><text fill="#000000" font-family="sans-serif" font-size="18.75" lengthAdjust="spacing" textLength="206.25" x="1096.875" y="1601.1757">(~88M, frozen ViT-B/16)</text><rect fill="#F1F1F1" height="133.4007" rx="19.5313" ry="19.5313" style="stroke:#181818;stroke-width:0.78125;" width="353.125" x="1055.4688" y="1653.5445"/><text fill="#000000" font-family="sans-serif" font-size="18.75" lengthAdjust="spacing" textLength="181.25" x="1071.0938" y="1689.2134">Attach 19 task heads</text><text fill="#000000" font-family="sans-serif" font-size="18.75" lengthAdjust="spacing" textLength="235.9375" x="1071.0938" y="1714.7511">(5 groups: IQA[6], Script[1],</text><text fill="#000000" font-family="sans-serif" font-size="18.75" lengthAdjust="spacing" textLength="321.875" x="1071.0938" y="1740.2887">Orientation+Skew[2], Handwriting[5],</text><text fill="#000000" font-family="sans-serif" font-size="18.75" lengthAdjust="spacing" textLength="120.3125" x="1071.0938" y="1765.8264">Page Attrs[5])</text><rect fill="#F1F1F1" height="82.3254" rx="19.5313" ry="19.5313" style="stroke:#181818;stroke-width:0.78125;" width="292.1875" x="1085.9375" y="1818.1952"/><text fill="#000000" font-family="sans-serif" font-size="18.75" lengthAdjust="spacing" textLength="260.9375" x="1101.5625" y="1853.8641">Train heads on all 10 datasets</text><text fill="#000000" font-family="sans-serif" font-size="18.75" lengthAdjust="spacing" textLength="221.875" x="1101.5625" y="1879.4018">(weighted multi-task loss)</text><polygon fill="#F1F1F1" points="1135.9375,1931.7706,1328.125,1931.7706,1346.875,1955.1798,1328.125,1978.589,1135.9375,1978.589,1117.1875,1955.1798,1135.9375,1931.7706" style="stroke:#181818;stroke-width:0.78125;"/><text fill="#000000" font-family="sans-serif" font-size="17.1875" lengthAdjust="spacing" textLength="114.0625" x="1135.9375" y="1950.1439">All heads pass</text><text fill="#000000" font-family="sans-serif" font-size="17.1875" lengthAdjust="spacing" textLength="192.1875" x="1135.9375" y="1973.5531">graduation thresholds?</text><text fill="#000000" font-family="sans-serif" font-size="17.1875" lengthAdjust="spacing" textLength="26.5625" x="1090.625" y="1950.1439">yes</text><text fill="#000000" font-family="sans-serif" font-size="17.1875" lengthAdjust="spacing" textLength="21.875" x="1346.875" y="1950.1439">no</text><rect fill="#F1F1F1" height="56.7877" rx="19.5313" ry="19.5313" style="stroke:#181818;stroke-width:0.78125;" width="259.375" x="971.875" y="1994.214"/><text fill="#000000" font-family="sans-serif" font-size="18.75" lengthAdjust="spacing" textLength="228.125" x="987.5" y="2029.8829">Export SigLIP 2 checkpoint</text><rect fill="#F1F1F1" height="56.7877" rx="19.5313" ry="19.5313" style="stroke:#181818;stroke-width:0.78125;" width="196.875" x="1264.0625" y="1994.214"/><text fill="#000000" font-family="sans-serif" font-size="18.75" lengthAdjust="spacing" textLength="165.625" x="1279.6875" y="2029.8829">Adjust loss weights</text><rect fill="#F1F1F1" height="56.7877" rx="19.5313" ry="19.5313" style="stroke:#181818;stroke-width:0.78125;" width="93.75" x="1315.625" y="2082.2516"/><text fill="#000000" font-family="sans-serif" font-size="18.75" lengthAdjust="spacing" textLength="62.5" x="1331.25" y="2117.9205">Retrain</text><polygon fill="#F1F1F1" points="1232.0313,2148.4143,1250.7813,2167.1643,1232.0313,2185.9143,1213.2813,2167.1643,1232.0313,2148.4143" style="stroke:#181818;stroke-width:0.78125;"/><line style="stroke:#000000;stroke-width:2.34375;" x1="962.5" x2="962.5" y1="84.1279" y2="4038.1166"/><rect fill="#F1F1F1" height="82.3254" rx="19.5313" ry="19.5313" style="stroke:#181818;stroke-width:0.78125;" width="289.0625" x="1665.625" y="2217.1643"/><text fill="#000000" font-family="sans-serif" font-size="18.75" lengthAdjust="spacing" textLength="250" x="1681.25" y="2252.8332">Generate SigLIP 2 soft labels</text><text fill="#000000" font-family="sans-serif" font-size="18.75" lengthAdjust="spacing" textLength="257.8125" x="1681.25" y="2278.3709">(orientation, skew, resolution)</text><rect fill="#F1F1F1" height="82.3254" rx="19.5313" ry="19.5313" style="stroke:#181818;stroke-width:0.78125;" width="284.375" x="1667.9688" y="2330.7397"/><text fill="#000000" font-family="sans-serif" font-size="18.75" lengthAdjust="spacing" textLength="253.125" x="1683.5938" y="2366.4086">Re-train MobileNetV4-Conv-S</text><text fill="#000000" font-family="sans-serif" font-size="18.75" lengthAdjust="spacing" textLength="214.0625" x="1683.5938" y="2391.9463">with KL-divergence (T=3)</text><polygon fill="#F1F1F1" points="1719.5313,2444.315,1900.7813,2444.315,1919.5313,2467.7242,1900.7813,2491.1334,1719.5313,2491.1334,1700.7813,2467.7242,1719.5313,2444.315" style="stroke:#181818;stroke-width:0.78125;"/><text fill="#000000" font-family="sans-serif" font-size="17.1875" lengthAdjust="spacing" textLength="181.25" x="1719.5313" y="2462.6883">Improved thresholds?</text><text fill="#000000" font-family="sans-serif" font-size="17.1875" lengthAdjust="spacing" textLength="151.5625" x="1719.5313" y="2486.0975">orientation &gt; 98%?</text><text fill="#000000" font-family="sans-serif" font-size="17.1875" lengthAdjust="spacing" textLength="26.5625" x="1674.2188" y="2462.6883">yes</text><text fill="#000000" font-family="sans-serif" font-size="17.1875" lengthAdjust="spacing" textLength="21.875" x="1919.5313" y="2462.6883">no</text><rect fill="#F1F1F1" height="56.7877" rx="19.5313" ry="19.5313" style="stroke:#181818;stroke-width:0.78125;" width="253.125" x="1518.75" y="2506.7584"/><text fill="#000000" font-family="sans-serif" font-size="18.75" lengthAdjust="spacing" textLength="221.875" x="1534.375" y="2542.4273">Export to ONNX (3 heads)</text><rect fill="#F1F1F1" height="56.7877" rx="19.5313" ry="19.5313" style="stroke:#181818;stroke-width:0.78125;" width="337.5" x="1476.5625" y="2594.7961"/><text fill="#000000" font-family="sans-serif" font-size="18.75" lengthAdjust="spacing" textLength="306.25" x="1492.1875" y="2630.465">Export SigLIP 2 to ONNX (19 heads)</text><rect fill="#F1F1F1" height="56.7877" rx="19.5313" ry="19.5313" style="stroke:#181818;stroke-width:0.78125;" width="259.375" x="1845.3125" y="2506.7584"/><text fill="#000000" font-family="sans-serif" font-size="18.75" lengthAdjust="spacing" textLength="228.125" x="1860.9375" y="2542.4273">Adjust alpha, temperature</text><rect fill="#F1F1F1" height="56.7877" rx="19.5313" ry="19.5313" style="stroke:#181818;stroke-width:0.78125;" width="210.9375" x="1869.5313" y="2594.7961"/><text fill="#000000" font-family="sans-serif" font-size="18.75" lengthAdjust="spacing" textLength="179.6875" x="1885.1563" y="2630.465">Retrain MobileNetV4</text><polygon fill="#F1F1F1" points="1810.1563,2660.9588,1828.9063,2679.7088,1810.1563,2698.4588,1791.4063,2679.7088,1810.1563,2660.9588" style="stroke:#181818;stroke-width:0.78125;"/><line style="stroke:#000000;stroke-width:2.34375;" x1="1467.1875" x2="1467.1875" y1="84.1279" y2="4038.1166"/><rect fill="#F1F1F1" height="56.7877" rx="19.5313" ry="19.5313" style="stroke:#181818;stroke-width:0.78125;" width="264.0625" x="2225" y="2729.7088"/><text fill="#000000" font-family="sans-serif" font-size="18.75" lengthAdjust="spacing" textLength="232.8125" x="2240.625" y="2765.3777">Register models in registry</text><rect fill="#F1F1F1" height="56.7877" rx="19.5313" ry="19.5313" style="stroke:#181818;stroke-width:0.78125;" width="473.4375" x="2120.3125" y="2817.7465"/><text fill="#000000" font-family="sans-serif" font-size="18.75" lengthAdjust="spacing" textLength="442.1875" x="2135.9375" y="2853.4154">Deploy MobileNetV4 as pre-correction gate (~3ms)</text><rect fill="#F1F1F1" height="56.7877" rx="19.5313" ry="19.5313" style="stroke:#181818;stroke-width:0.78125;" width="417.1875" x="2148.4375" y="2905.7842"/><text fill="#000000" font-family="sans-serif" font-size="18.75" lengthAdjust="spacing" textLength="385.9375" x="2164.0625" y="2941.453">Deploy SigLIP 2 as multi-task model (~50ms)</text><rect fill="#F1F1F1" height="56.7877" rx="19.5313" ry="19.5313" style="stroke:#181818;stroke-width:0.78125;" width="442.1875" x="2135.9375" y="2993.8218"/><text fill="#000000" font-family="sans-serif" font-size="18.75" lengthAdjust="spacing" textLength="410.9375" x="2151.5625" y="3029.4907">Docling layout models (pre-trained, no training)</text><path d="M2405.4688,3066.2345 L2405.4688,3545.9256 L2374.2188,3552.1756 L2405.4688,3558.4256 L2405.4688,4038.1166 A0,0 0 0 0 2405.4688,4038.1166 L3007.0313,4038.1166 A0,0 0 0 0 3007.0313,4038.1166 L3007.0313,3081.8595 L2991.4063,3066.2345 L2405.4688,3066.2345 A0,0 0 0 0 2405.4688,3066.2345 " fill="#FEFFDD" style="stroke:#181818;stroke-width:0.78125;"/><path d="M2991.4063,3066.2345 L2991.4063,3081.8595 L3007.0313,3081.8595 L2991.4063,3066.2345 " fill="#FEFFDD" style="stroke:#181818;stroke-width:0.78125;"/><text fill="#000000" font-family="sans-serif" font-size="20.3125" font-weight="bold" lengthAdjust="spacing" textLength="248.4375" x="2414.8438" y="3095.7611">Training Infrastructure:</text><text fill="#000000" font-family="sans-serif" font-size="20.3125" lengthAdjust="spacing" textLength="265.625" x="2414.8438" y="3123.4267">- Modal serverless GPU (A10)</text><text fill="#000000" font-family="sans-serif" font-size="20.3125" lengthAdjust="spacing" textLength="164.0625" x="2414.8438" y="3151.0924">- GCS for datasets</text><text fill="#000000" font-family="sans-serif" font-size="20.3125" lengthAdjust="spacing" textLength="342.1875" x="2414.8438" y="3178.758">- HuggingFace for SigLIP 2 backbone</text><text fill="#000000" font-family="sans-serif" font-size="20.3125" lengthAdjust="spacing" textLength="254.6875" x="2414.8438" y="3206.4237">- ~$10 total per training run</text><text fill="#000000" font-family="sans-serif" font-size="20.3125" lengthAdjust="spacing" textLength="4.6875" x="2414.8438" y="3234.0893">&#160;</text><text fill="#000000" font-family="sans-serif" font-size="20.3125" font-weight="bold" lengthAdjust="spacing" textLength="207.8125" x="2414.8438" y="3261.755">PLANNED (Deferred)</text><text fill="#000000" font-family="sans-serif" font-size="20.3125" lengthAdjust="spacing" textLength="4.6875" x="2622.6563" y="3261.755">:</text><text fill="#000000" font-family="sans-serif" font-size="20.3125" lengthAdjust="spacing" textLength="303.125" x="2414.8438" y="3289.4206">MobileCLIP-2 distillation cascade</text><text fill="#000000" font-family="sans-serif" font-size="20.3125" lengthAdjust="spacing" textLength="268.75" x="2414.8438" y="3317.0863">for edge/mobile deployment</text><text fill="#000000" font-family="sans-serif" font-size="20.3125" lengthAdjust="spacing" textLength="4.6875" x="2414.8438" y="3344.752">&#160;</text><line style="stroke:#181818;stroke-width:1.5625;" x1="2405.4688" x2="3007.0313" y1="3358.516" y2="3358.516"/><line style="stroke:#181818;stroke-width:1.5625;" x1="2405.4688" x2="3007.0313" y1="3361.641" y2="3361.641"/><text fill="#000000" font-family="sans-serif" font-size="20.3125" lengthAdjust="spacing" textLength="4.6875" x="2414.8438" y="3388.0426">&#160;</text><text fill="#000000" font-family="sans-serif" font-size="20.3125" font-weight="bold" lengthAdjust="spacing" textLength="76.5625" x="2414.8438" y="3415.7083">Source:</text><text fill="#000000" font-family="sans-serif" font-size="20.3125" lengthAdjust="spacing" textLength="315.625" x="2414.8438" y="3443.3739">- modal/train_siglip2_multitask.py</text><text fill="#000000" font-family="sans-serif" font-size="20.3125" lengthAdjust="spacing" textLength="287.5" x="2414.8438" y="3471.0396">- modal/train_siglip2_iqa_v2.py</text><text fill="#000000" font-family="sans-serif" font-size="20.3125" lengthAdjust="spacing" textLength="306.25" x="2414.8438" y="3498.7052">- modal/train_skew_estimator.py</text><text fill="#000000" font-family="sans-serif" font-size="20.3125" lengthAdjust="spacing" textLength="295.3125" x="2414.8438" y="3526.3709">- modal/shared/metrics_utils.py</text><text fill="#000000" font-family="sans-serif" font-size="20.3125" lengthAdjust="spacing" textLength="257.8125" x="2414.8438" y="3554.0365">- modal/shared/gcs_utils.py</text><text fill="#000000" font-family="sans-serif" font-size="20.3125" lengthAdjust="spacing" textLength="296.875" x="2414.8438" y="3581.7022">- modal/shared/dataset_utils.py</text><text fill="#000000" font-family="sans-serif" font-size="20.3125" lengthAdjust="spacing" textLength="4.6875" x="2414.8438" y="3609.3678">&#160;</text><text fill="#000000" font-family="sans-serif" font-size="20.3125" font-weight="bold" lengthAdjust="spacing" textLength="75" x="2414.8438" y="3637.0335">Scripts:</text><text fill="#000000" font-family="sans-serif" font-size="20.3125" lengthAdjust="spacing" textLength="367.1875" x="2414.8438" y="3664.6991">- scripts/prepare_multitask_datasets.py</text><text fill="#000000" font-family="sans-serif" font-size="20.3125" lengthAdjust="spacing" textLength="328.125" x="2414.8438" y="3692.3648">- scripts/generate_skew_dataset.py</text><text fill="#000000" font-family="sans-serif" font-size="20.3125" lengthAdjust="spacing" textLength="362.5" x="2414.8438" y="3720.0304">- scripts/derive_v3_orientation_view.py</text><text fill="#000000" font-family="sans-serif" font-size="20.3125" lengthAdjust="spacing" textLength="4.6875" x="2414.8438" y="3747.6961">&#160;</text><text fill="#000000" font-family="sans-serif" font-size="20.3125" font-weight="bold" lengthAdjust="spacing" textLength="170.3125" x="2414.8438" y="3775.3617">Documentation:</text><a href="docs/planning/SIGLIP2_MULTITASK_REQUIREMENTS.md" target="_top" title="docs/planning/SIGLIP2_MULTITASK_REQUIREMENTS.md" xlink:actuate="onRequest" xlink:href="docs/planning/SIGLIP2_MULTITASK_REQUIREMENTS.md" xlink:show="new" xlink:title="docs/planning/SIGLIP2_MULTITASK_REQUIREMENTS.md" xlink:type="simple"><text fill="#0000FF" font-family="sans-serif" font-size="20.3125" lengthAdjust="spacing" text-decoration="underline" textLength="529.6875" x="2414.8438" y="3803.0274">docs/planning/SIGLIP2_MULTITASK_REQUIREMENTS.md</text></a><a href="docs/planning/TRAINING_OPTIMIZATION_PLAN.md" target="_top" title="docs/planning/TRAINING_OPTIMIZATION_PLAN.md" xlink:actuate="onRequest" xlink:href="docs/planning/TRAINING_OPTIMIZATION_PLAN.md" xlink:show="new" xlink:title="docs/planning/TRAINING_OPTIMIZATION_PLAN.md" xlink:type="simple"><text fill="#0000FF" font-family="sans-serif" font-size="20.3125" lengthAdjust="spacing" text-decoration="underline" textLength="484.375" x="2414.8438" y="3830.693">docs/planning/TRAINING_OPTIMIZATION_PLAN.md</text></a><a href="docs/planning/DATASET_DIVERSITY_REQUIREMENTS.md" target="_top" title="docs/planning/DATASET_DIVERSITY_REQUIREMENTS.md" xlink:actuate="onRequest" xlink:href="docs/planning/DATASET_DIVERSITY_REQUIREMENTS.md" xlink:show="new" xlink:title="docs/planning/DATASET_DIVERSITY_REQUIREMENTS.md" xlink:type="simple"><text fill="#0000FF" font-family="sans-serif" font-size="20.3125" lengthAdjust="spacing" text-decoration="underline" textLength="526.5625" x="2414.8438" y="3858.3587">docs/planning/DATASET_DIVERSITY_REQUIREMENTS.md</text></a><a href="docs/architecture/diagrams/level-2/model-training/index.md" target="_top" title="docs/architecture/diagrams/level-2/model-training/index.md" xlink:actuate="onRequest" xlink:href="docs/architecture/diagrams/level-2/model-training/index.md" xlink:show="new" xlink:title="docs/architecture/diagrams/level-2/model-training/index.md" xlink:type="simple"><text fill="#0000FF" font-family="sans-serif" font-size="20.3125" lengthAdjust="spacing" text-decoration="underline" textLength="568.75" x="2414.8438" y="3886.0243">docs/architecture/diagrams/level-2/model-training/index.md</text></a><text fill="#000000" font-family="sans-serif" font-size="20.3125" lengthAdjust="spacing" textLength="4.6875" x="2414.8438" y="3913.69">&#160;</text><text fill="#000000" font-family="sans-serif" font-size="20.3125" font-weight="bold" lengthAdjust="spacing" textLength="50" x="2414.8438" y="3941.3556">ADR:</text><a href="docs/ADRs/0035-modal-gpu-integration.md" target="_top" title="docs/ADRs/0035-modal-gpu-integration.md" xlink:actuate="onRequest" xlink:href="docs/ADRs/0035-modal-gpu-integration.md" xlink:show="new" xlink:title="docs/ADRs/0035-modal-gpu-integration.md" xlink:type="simple"><text fill="#0000FF" font-family="sans-serif" font-size="20.3125" lengthAdjust="spacing" text-decoration="underline" textLength="407.8125" x="2414.8438" y="3969.0213">docs/ADRs/0035-modal-gpu-integration.md</text></a><a href="docs/ADRs/0030-gcs-colab-training-workflow.md" target="_top" title="docs/ADRs/0030-gcs-colab-training-workflow.md" xlink:actuate="onRequest" xlink:href="docs/ADRs/0030-gcs-colab-training-workflow.md" xlink:show="new" xlink:title="docs/ADRs/0030-gcs-colab-training-workflow.md" xlink:type="simple"><text fill="#0000FF" font-family="sans-serif" font-size="20.3125" lengthAdjust="spacing" text-decoration="underline" textLength="453.125" x="2414.8438" y="3996.6869">docs/ADRs/0030-gcs-colab-training-workflow.md</text></a><a href="docs/ADRs/0022-synthetic-data-generation.md" target="_top" title="docs/ADRs/0022-synthetic-data-generation.md" xlink:actuate="onRequest" xlink:href="docs/ADRs/0022-synthetic-data-generation.md" xlink:show="new" xlink:title="docs/ADRs/0022-synthetic-data-generation.md" xlink:type="simple"><text fill="#0000FF" font-family="sans-serif" font-size="20.3125" lengthAdjust="spacing" text-decoration="underline" textLength="437.5" x="2414.8438" y="4024.3526">docs/ADRs/0022-synthetic-data-generation.md</text></a><ellipse cx="2357.0313" cy="3552.1756" fill="none" rx="17.1875" ry="17.1875" style="stroke:#222222;stroke-width:1.5625;"/><ellipse cx="2357.0313" cy="3552.1756" fill="#222222" rx="9.375" ry="9.375" style="stroke:#222222;stroke-width:1.5625;"/><line style="stroke:#000000;stroke-width:2.34375;" x1="2110.9375" x2="2110.9375" y1="84.1279" y2="4038.1166"/><line style="stroke:#000000;stroke-width:2.34375;" x1="3014.8438" x2="3014.8438" y1="84.1279" y2="4038.1166"/><line style="stroke:#181818;stroke-width:1.5625;" x1="203.125" x2="203.125" y1="161.4965" y2="192.7465"/><polygon fill="#181818" points="196.875,177.1215,203.125,192.7465,209.375,177.1215,203.125,183.3715" style="stroke:#181818;stroke-width:1.5625;"/><line style="stroke:#181818;stroke-width:1.5625;" x1="203.125" x2="203.125" y1="351.6848" y2="382.9348"/><polygon fill="#181818" points="196.875,367.3098,203.125,382.9348,209.375,367.3098,203.125,373.5598" style="stroke:#181818;stroke-width:1.5625;"/><line style="stroke:#181818;stroke-width:1.5625;" x1="203.125" x2="203.125" y1="490.7979" y2="522.0479"/><polygon fill="#181818" points="196.875,506.4229,203.125,522.0479,209.375,506.4229,203.125,512.6729" style="stroke:#181818;stroke-width:1.5625;"/><line style="stroke:#181818;stroke-width:1.5625;" x1="203.125" x2="203.125" y1="604.3732" y2="635.6232"/><polygon fill="#181818" points="196.875,619.9982,203.125,635.6232,209.375,619.9982,203.125,626.2482" style="stroke:#181818;stroke-width:1.5625;"/><line style="stroke:#181818;stroke-width:1.5625;" x1="690.2344" x2="690.2344" y1="831.524" y2="862.774"/><polygon fill="#181818" points="683.9844,847.149,690.2344,862.774,696.4844,847.149,690.2344,853.399" style="stroke:#181818;stroke-width:1.5625;"/><line style="stroke:#181818;stroke-width:1.5625;" x1="690.2344" x2="690.2344" y1="996.1747" y2="1027.4247"/><polygon fill="#181818" points="683.9844,1011.7997,690.2344,1027.4247,696.4844,1011.7997,690.2344,1018.0497" style="stroke:#181818;stroke-width:1.5625;"/><line style="stroke:#181818;stroke-width:1.5625;" x1="690.2344" x2="690.2344" y1="1109.75" y2="1141"/><polygon fill="#181818" points="683.9844,1125.375,690.2344,1141,696.4844,1125.375,690.2344,1131.625" style="stroke:#181818;stroke-width:1.5625;"/><line style="stroke:#181818;stroke-width:1.5625;" x1="839.8438" x2="839.8438" y1="1373.8065" y2="1405.0565"/><polygon fill="#181818" points="833.5938,1389.4315,839.8438,1405.0565,846.0938,1389.4315,839.8438,1395.6815" style="stroke:#181818;stroke-width:1.5625;"/><line style="stroke:#181818;stroke-width:1.5625;" x1="590.2344" x2="540.625" y1="1277.9846" y2="1277.9846"/><line style="stroke:#181818;stroke-width:1.5625;" x1="540.625" x2="540.625" y1="1277.9846" y2="1317.0188"/><polygon fill="#181818" points="534.375,1301.3938,540.625,1317.0188,546.875,1301.3938,540.625,1307.6438" style="stroke:#181818;stroke-width:1.5625;"/><line style="stroke:#181818;stroke-width:1.5625;" x1="790.2344" x2="839.8438" y1="1277.9846" y2="1277.9846"/><line style="stroke:#181818;stroke-width:1.5625;" x1="839.8438" x2="839.8438" y1="1277.9846" y2="1317.0188"/><polygon fill="#181818" points="833.5938,1301.3938,839.8438,1317.0188,846.0938,1301.3938,839.8438,1307.6438" style="stroke:#181818;stroke-width:1.5625;"/><line style="stroke:#181818;stroke-width:1.5625;" x1="540.625" x2="540.625" y1="1373.8065" y2="1489.9691"/><line style="stroke:#181818;stroke-width:1.5625;" x1="540.625" x2="671.4844" y1="1489.9691" y2="1489.9691"/><polygon fill="#181818" points="655.8594,1483.7191,671.4844,1489.9691,655.8594,1496.2191,662.1094,1489.9691" style="stroke:#181818;stroke-width:1.5625;"/><line style="stroke:#181818;stroke-width:1.5625;" x1="839.8438" x2="839.8438" y1="1461.8441" y2="1489.9691"/><line style="stroke:#181818;stroke-width:1.5625;" x1="839.8438" x2="708.9844" y1="1489.9691" y2="1489.9691"/><polygon fill="#181818" points="724.6094,1483.7191,708.9844,1489.9691,724.6094,1496.2191,718.3594,1489.9691" style="stroke:#181818;stroke-width:1.5625;"/><line style="stroke:#181818;stroke-width:1.5625;" x1="690.2344" x2="690.2344" y1="1223.3254" y2="1254.5754"/><polygon fill="#181818" points="683.9844,1238.9504,690.2344,1254.5754,696.4844,1238.9504,690.2344,1245.2004" style="stroke:#181818;stroke-width:1.5625;"/><line style="stroke:#181818;stroke-width:1.5625;" x1="1232.0313" x2="1232.0313" y1="1622.2945" y2="1653.5445"/><polygon fill="#181818" points="1225.7813,1637.9195,1232.0313,1653.5445,1238.2813,1637.9195,1232.0313,1644.1695" style="stroke:#181818;stroke-width:1.5625;"/><line style="stroke:#181818;stroke-width:1.5625;" x1="1232.0313" x2="1232.0313" y1="1786.9452" y2="1818.1952"/><polygon fill="#181818" points="1225.7813,1802.5702,1232.0313,1818.1952,1238.2813,1802.5702,1232.0313,1808.8202" style="stroke:#181818;stroke-width:1.5625;"/><line style="stroke:#181818;stroke-width:1.5625;" x1="1362.5" x2="1362.5" y1="2051.0016" y2="2082.2516"/><polygon fill="#181818" points="1356.25,2066.6266,1362.5,2082.2516,1368.75,2066.6266,1362.5,2072.8766" style="stroke:#181818;stroke-width:1.5625;"/><line style="stroke:#181818;stroke-width:1.5625;" x1="1117.1875" x2="1101.5625" y1="1955.1798" y2="1955.1798"/><line style="stroke:#181818;stroke-width:1.5625;" x1="1101.5625" x2="1101.5625" y1="1955.1798" y2="1994.214"/><polygon fill="#181818" points="1095.3125,1978.589,1101.5625,1994.214,1107.8125,1978.589,1101.5625,1984.839" style="stroke:#181818;stroke-width:1.5625;"/><line style="stroke:#181818;stroke-width:1.5625;" x1="1346.875" x2="1362.5" y1="1955.1798" y2="1955.1798"/><line style="stroke:#181818;stroke-width:1.5625;" x1="1362.5" x2="1362.5" y1="1955.1798" y2="1994.214"/><polygon fill="#181818" points="1356.25,1978.589,1362.5,1994.214,1368.75,1978.589,1362.5,1984.839" style="stroke:#181818;stroke-width:1.5625;"/><line style="stroke:#181818;stroke-width:1.5625;" x1="1101.5625" x2="1101.5625" y1="2051.0016" y2="2167.1643"/><line style="stroke:#181818;stroke-width:1.5625;" x1="1101.5625" x2="1213.2813" y1="2167.1643" y2="2167.1643"/><polygon fill="#181818" points="1197.6563,2160.9143,1213.2813,2167.1643,1197.6563,2173.4143,1203.9063,2167.1643" style="stroke:#181818;stroke-width:1.5625;"/><line style="stroke:#181818;stroke-width:1.5625;" x1="1362.5" x2="1362.5" y1="2139.0393" y2="2167.1643"/><line style="stroke:#181818;stroke-width:1.5625;" x1="1362.5" x2="1250.7813" y1="2167.1643" y2="2167.1643"/><polygon fill="#181818" points="1266.4063,2160.9143,1250.7813,2167.1643,1266.4063,2173.4143,1260.1563,2167.1643" style="stroke:#181818;stroke-width:1.5625;"/><line style="stroke:#181818;stroke-width:1.5625;" x1="1232.0313" x2="1232.0313" y1="1900.5206" y2="1931.7706"/><polygon fill="#181818" points="1225.7813,1916.1456,1232.0313,1931.7706,1238.2813,1916.1456,1232.0313,1922.3956" style="stroke:#181818;stroke-width:1.5625;"/><line style="stroke:#181818;stroke-width:1.5625;" x1="1810.1563" x2="1810.1563" y1="2299.4897" y2="2330.7397"/><polygon fill="#181818" points="1803.9063,2315.1147,1810.1563,2330.7397,1816.4063,2315.1147,1810.1563,2321.3647" style="stroke:#181818;stroke-width:1.5625;"/><line style="stroke:#181818;stroke-width:1.5625;" x1="1645.3125" x2="1645.3125" y1="2563.5461" y2="2594.7961"/><polygon fill="#181818" points="1639.0625,2579.1711,1645.3125,2594.7961,1651.5625,2579.1711,1645.3125,2585.4211" style="stroke:#181818;stroke-width:1.5625;"/><line style="stroke:#181818;stroke-width:1.5625;" x1="1975" x2="1975" y1="2563.5461" y2="2594.7961"/><polygon fill="#181818" points="1968.75,2579.1711,1975,2594.7961,1981.25,2579.1711,1975,2585.4211" style="stroke:#181818;stroke-width:1.5625;"/><line style="stroke:#181818;stroke-width:1.5625;" x1="1700.7813" x2="1645.3125" y1="2467.7242" y2="2467.7242"/><line style="stroke:#181818;stroke-width:1.5625;" x1="1645.3125" x2="1645.3125" y1="2467.7242" y2="2506.7584"/><polygon fill="#181818" points="1639.0625,2491.1334,1645.3125,2506.7584,1651.5625,2491.1334,1645.3125,2497.3834" style="stroke:#181818;stroke-width:1.5625;"/><line style="stroke:#181818;stroke-width:1.5625;" x1="1919.5313" x2="1975" y1="2467.7242" y2="2467.7242"/><line style="stroke:#181818;stroke-width:1.5625;" x1="1975" x2="1975" y1="2467.7242" y2="2506.7584"/><polygon fill="#181818" points="1968.75,2491.1334,1975,2506.7584,1981.25,2491.1334,1975,2497.3834" style="stroke:#181818;stroke-width:1.5625;"/><line style="stroke:#181818;stroke-width:1.5625;" x1="1645.3125" x2="1645.3125" y1="2651.5838" y2="2679.7088"/><line style="stroke:#181818;stroke-width:1.5625;" x1="1645.3125" x2="1791.4063" y1="2679.7088" y2="2679.7088"/><polygon fill="#181818" points="1775.7813,2673.4588,1791.4063,2679.7088,1775.7813,2685.9588,1782.0313,2679.7088" style="stroke:#181818;stroke-width:1.5625;"/><line style="stroke:#181818;stroke-width:1.5625;" x1="1975" x2="1975" y1="2651.5838" y2="2679.7088"/><line style="stroke:#181818;stroke-width:1.5625;" x1="1975" x2="1828.9063" y1="2679.7088" y2="2679.7088"/><polygon fill="#181818" points="1844.5313,2673.4588,1828.9063,2679.7088,1844.5313,2685.9588,1838.2813,2679.7088" style="stroke:#181818;stroke-width:1.5625;"/><line style="stroke:#181818;stroke-width:1.5625;" x1="1810.1563" x2="1810.1563" y1="2413.065" y2="2444.315"/><polygon fill="#181818" points="1803.9063,2428.69,1810.1563,2444.315,1816.4063,2428.69,1810.1563,2434.94" style="stroke:#181818;stroke-width:1.5625;"/><line style="stroke:#181818;stroke-width:1.5625;" x1="2357.0313" x2="2357.0313" y1="2786.4965" y2="2817.7465"/><polygon fill="#181818" points="2350.7813,2802.1215,2357.0313,2817.7465,2363.2813,2802.1215,2357.0313,2808.3715" style="stroke:#181818;stroke-width:1.5625;"/><line style="stroke:#181818;stroke-width:1.5625;" x1="2357.0313" x2="2357.0313" y1="2874.5342" y2="2905.7842"/><polygon fill="#181818" points="2350.7813,2890.1592,2357.0313,2905.7842,2363.2813,2890.1592,2357.0313,2896.4092" style="stroke:#181818;stroke-width:1.5625;"/><line style="stroke:#181818;stroke-width:1.5625;" x1="2357.0313" x2="2357.0313" y1="2962.5718" y2="2993.8218"/><polygon fill="#181818" points="2350.7813,2978.1968,2357.0313,2993.8218,2363.2813,2978.1968,2357.0313,2984.4468" style="stroke:#181818;stroke-width:1.5625;"/><line style="stroke:#181818;stroke-width:1.5625;" x1="2357.0313" x2="2357.0313" y1="3050.6095" y2="3534.9881"/><polygon fill="#181818" points="2350.7813,3519.3631,2357.0313,3534.9881,2363.2813,3519.3631,2357.0313,3525.6131" style="stroke:#181818;stroke-width:1.5625;"/><line style="stroke:#181818;stroke-width:1.5625;" x1="203.125" x2="203.125" y1="717.9486" y2="725.7611"/><line style="stroke:#181818;stroke-width:1.5625;" x1="203.125" x2="690.2344" y1="725.7611" y2="725.7611"/><line style="stroke:#181818;stroke-width:1.5625;" x1="690.2344" x2="690.2344" y1="725.7611" y2="749.1986"/><polygon fill="#181818" points="683.9844,733.5736,690.2344,749.1986,696.4844,733.5736,690.2344,739.8236" style="stroke:#181818;stroke-width:1.5625;"/><line style="stroke:#181818;stroke-width:1.5625;" x1="690.2344" x2="690.2344" y1="1508.7191" y2="1516.5316"/><line style="stroke:#181818;stroke-width:1.5625;" x1="690.2344" x2="1232.0313" y1="1516.5316" y2="1516.5316"/><line style="stroke:#181818;stroke-width:1.5625;" x1="1232.0313" x2="1232.0313" y1="1516.5316" y2="1539.9691"/><polygon fill="#181818" points="1225.7813,1524.3441,1232.0313,1539.9691,1238.2813,1524.3441,1232.0313,1530.5941" style="stroke:#181818;stroke-width:1.5625;"/><line style="stroke:#181818;stroke-width:1.5625;" x1="1232.0313" x2="1232.0313" y1="2185.9143" y2="2193.7268"/><line style="stroke:#181818;stroke-width:1.5625;" x1="1232.0313" x2="1810.1563" y1="2193.7268" y2="2193.7268"/><line style="stroke:#181818;stroke-width:1.5625;" x1="1810.1563" x2="1810.1563" y1="2193.7268" y2="2217.1643"/><polygon fill="#181818" points="1803.9063,2201.5393,1810.1563,2217.1643,1816.4063,2201.5393,1810.1563,2207.7893" style="stroke:#181818;stroke-width:1.5625;"/><line style="stroke:#181818;stroke-width:1.5625;" x1="1810.1563" x2="1810.1563" y1="2698.4588" y2="2706.2713"/><line style="stroke:#181818;stroke-width:1.5625;" x1="1810.1563" x2="2357.0313" y1="2706.2713" y2="2706.2713"/><line style="stroke:#181818;stroke-width:1.5625;" x1="2357.0313" x2="2357.0313" y1="2706.2713" y2="2729.7088"/><polygon fill="#181818" points="2350.7813,2714.0838,2357.0313,2729.7088,2363.2813,2714.0838,2357.0313,2720.3338" style="stroke:#181818;stroke-width:1.5625;"/><text fill="#000000" font-family="sans-serif" font-size="28.125" lengthAdjust="spacing" textLength="226.5625" x="88.2813" y="114.1934">Data Preparation</text><text fill="#000000" font-family="sans-serif" font-size="28.125" lengthAdjust="spacing" textLength="410.9375" x="465.625" y="114.1934">Step 1: MobileNetV4 Bootstrap</text><text fill="#000000" font-family="sans-serif" font-size="28.125" lengthAdjust="spacing" textLength="350" x="1039.8438" y="114.1934">Step 2: SigLIP 2 Multi-Task</text><text fill="#000000" font-family="sans-serif" font-size="28.125" lengthAdjust="spacing" textLength="423.4375" x="1577.3438" y="114.1934">Step 3: MobileNetV4 Distillation</text><text fill="#000000" font-family="sans-serif" font-size="28.125" lengthAdjust="spacing" textLength="162.5" x="2481.6406" y="114.1934">Deployment</text><!--SRC=[VLPjSnet4Fv-ls8_D3FOvS9Ro2IuQOSOOZCns07YjBKpZ7md3jL2kaWw2AcRtzJ-XVooxkeuE6Viy8tRrUu-pxExaXDEShWmF6M6XpqTGGXJmuGIAe4FsjpEfLv3vLGa2pZZAouFWi3U2eNkR0bnAg3HhfU-s0MBzPeEpvcql6GnF79C9PZjxm3WDOjk4wCp5HzhgGryM0Z7wRisCJVvjzSIdO9_Wk2knnpR5icSqEeki8uP5tJGKM9SQDGXpKogBGzlCY4Tn7Z2ScUlLULhkzvw2qux9ZjmRWHNpWUfmkIMhwlNQiojbbd-QV2kYzyZ8rA7bbEcuhKH3l5KuPYbBZCSpHuZcZyma-Oc7VE3ew3JJLEv0POboo89f4RFXUHK24juN5i8wxGH4PDLM6RIYJ3cYM5nNjArYZpq9GQ4MAouiS9jAFInuSnnO4hfRMJ9RhYak2at8QAzxK0acRLYZj5pD0P3S_oY5OMOf58uSAHkRSLapN7hO4lIvBJRR3yFR_c6nv18VSCadSPY3QKFxYQEfz3em53V89mHTvVFK2pjq86bTq5de90c9iKNNdO9ZxLQXHDIuTaGV2FOAdB2VHKyzgJ5CRI00C22izXshbLOrWagpq8Fx80Cf5a95rI-_TUeV_lNs_P2mgSCQt4RgDJ31YNnFGreo9iEMSZSOa_XKCS8-EJYVGUwZJeTkCJpCJ5Ex59Tu1QOSw5bJ0TqgRvVuMNxIHKiLJRizk4Ng3zjOqb7WPX3fKnOYYYe5LPvS3pysm76vGXZm-q1zd-d_pdLnjsZELhmw3RLGhcZ0ClbK57Q-qupnM6nmGeziznXknoHOPppY-ug5lD2lMO79Y8v6rn04uQ-zQP8EcftfX7UpZJglf7yCzpWyDrenKcx5o-6LPWR_GKhlHJJy7MjyTnBvnoB5j1uMP8F_TkUvTHsQ9okddyi9kggyH4xl2JjpwJcLHCTIfDsrIQl2vmMmFZ6ul-zWZu5wSYafAalpVcQuv9osBxvMFcAfCQsoNNeue7yDAbmhMZeibp0lRAFoR4Zvr4jkl5V6OuJ9OIyaXz9qRe_I3sSCo7bThTrJhZYXdflbzRgkTjtgoulCMexclIYzOchCGzzrWT7SIsmyz-UXNwz95n526BwghMbQR34ZRNYvNR_xLfzr-uldZn6bDDmFXhz3fLMJlR1qKCixhomSmgtXzXaCbsmAZY-J8aGtBvbJilezlpsU2hrXXRm7H51Aupd2rLQm4F5LaEQSjTxIZ1BsocCjA7xYk0c94JbQsj9HHP7TaZGlzHkFWlGZRFrrf6akr2oZSvSKKI5CcmNO1MKpbSo-k4Hl1pI8C0Tpy5G4o7SmyFTXJnGSyEm-2mYBZg7XsWE8LzUbXlK4syQItiC-nttc3UV74zWZdTACIh-uscM91Zn3KFroRW3L8ozz_hw4uwOlpbf3Uxg19Efm5TsSTOTZVezgFJud2DbyS7XOGSjEQN7639iuZssxsw8c8rOJE4fBOyJNbjwPuXtmb7iL_ZBSqnqPg8Ts2M1hVbAPbOaKgJDcLU017YQRXvr4f_ORDLyq0CdQ8PteLWol9hlU-1x1b7LSBVYdMrdE67IFkYH_D2wvNxlaIFpMz4Mq6p-jvRchx4zh5aXNH6xy4osYoA7iFNwtWdVKpZfirLhLfhYsKhmzQuGxDDizsJ9oxcwYdM4jKXySQ3ajSdW1DLipeRlpwQ3QNVoTZRklti_6FU7_T5qydGPV_pumAdfk3iO3KOdi_EBwM0u-BCx7PoFPjGrZvteTJ5uVphh3IxxuybW-iUFyZ0JqRlHJqCj5YoXzqLDqZirRDRyk8L5qzQ4YlddF807tUsDxq75_xPMhxVQePSkJD8in3rFhpEYvRlKXNSzHELnN-1otgKArzk7yyDdcitGRXIkJoUYa4GBjphkik0k0ze1mVy0]--></g></svg>
