<svg xmlns="http://www.w3.org/2000/svg" xmlns:xlink="http://www.w3.org/1999/xlink" contentStyleType="text/css" height="3303.125px" preserveAspectRatio="none" style="width:845px;height:3303px;background:#FFFFFF;" version="1.1" viewBox="0 0 845 3303" width="845.3125px" zoomAndPan="magnify"><title>Project A - Multi-Task Training Pipeline (3-Step Virtuous Cycle)</title><defs/><g><text fill="#000000" font-family="sans-serif" font-size="21.875" font-weight="bold" lengthAdjust="spacing" textLength="673.3539" x="84.0555" y="54.6343">Project A - Multi-Task Training Pipeline (3-Step Virtuous Cycle)</text><ellipse cx="290.8202" cy="93.8561" fill="#222222" rx="15.625" ry="15.625" style="stroke:#222222;stroke-width:1.5625;"/><rect fill="none" height="222.8094" style="stroke:#000000;stroke-width:2.3438;" width="670.127" x="147.2006" y="125.1061"/><path d="M229.1066,125.1061 L229.1066,143.9622 L213.4816,159.5872 L147.2006,159.5872 " fill="none" style="stroke:#000000;stroke-width:2.3438;"/><text fill="#000000" font-family="sans-serif" font-size="21.875" lengthAdjust="spacing" textLength="66.281" x="151.8881" y="150.0529">Inputs</text><path d="M450.0647,175.2122 L450.0647,245.9389 L418.8147,252.1889 L450.0647,258.4389 L450.0647,329.1655 A0,0 0 0 0 450.0647,329.1655 L801.7026,329.1655 A0,0 0 0 0 801.7026,329.1655 L801.7026,190.8372 L786.0776,175.2122 L450.0647,175.2122 A0,0 0 0 0 450.0647,175.2122 " fill="#F8F8F8" style="stroke:#BBBBBB;stroke-width:0.7813;"/><path d="M786.0776,175.2122 L786.0776,190.8372 L801.7026,190.8372 L786.0776,175.2122 " fill="#F8F8F8" style="stroke:#BBBBBB;stroke-width:0.7813;"/><text fill="#000000" font-family="sans-serif" font-size="20.3125" lengthAdjust="spacing" textLength="281.7956" x="459.4397" y="204.7388">Orientation (50K), Skew (40K),</text><text fill="#000000" font-family="sans-serif" font-size="20.3125" lengthAdjust="spacing" textLength="318.8254" x="459.4397" y="232.4045">Resolution (30K), IQA (16K+100K),</text><text fill="#000000" font-family="sans-serif" font-size="20.3125" lengthAdjust="spacing" textLength="307.4097" x="459.4397" y="260.0701">Script (108K), Handwriting (60K),</text><text fill="#000000" font-family="sans-serif" font-size="20.3125" lengthAdjust="spacing" textLength="275.0315" x="459.4397" y="287.7358">Capture (50K), Shadow (15K),</text><text fill="#000000" font-family="sans-serif" font-size="20.3125" lengthAdjust="spacing" textLength="247.8128" x="459.4397" y="315.4014">Warping (20K), Code (10K)</text><rect fill="#F1F1F1" height="82.3254" rx="19.5313" ry="19.5313" style="stroke:#181818;stroke-width:0.7813;" width="255.9891" x="162.8256" y="211.0262"/><text fill="#000000" font-family="sans-serif" font-size="18.75" lengthAdjust="spacing" textLength="224.7391" x="178.4506" y="246.6951">10 purpose-built datasets</text><text fill="#000000" font-family="sans-serif" font-size="18.75" lengthAdjust="spacing" textLength="179.72" x="178.4506" y="272.2328">(~503K total images)</text><rect fill="none" height="712.1857" style="stroke:#000000;stroke-width:2.3438;" width="562.9779" x="17.1875" y="363.5405"/><path d="M426.1016,363.5405 L426.1016,382.3966 L410.4766,398.0216 L17.1875,398.0216 " fill="none" style="stroke:#000000;stroke-width:2.3438;"/><text fill="#000000" font-family="sans-serif" font-size="21.875" lengthAdjust="spacing" textLength="393.2891" x="21.875" y="388.4873">Step 1: MobileNetV4-Conv-S Bootstrap</text><rect fill="#F1F1F1" height="82.3254" rx="19.5313" ry="19.5313" style="stroke:#181818;stroke-width:0.7813;" width="290.4706" x="145.5848" y="424.5841"/><text fill="#000000" font-family="sans-serif" font-size="18.75" lengthAdjust="spacing" textLength="259.2206" x="161.2098" y="460.253">Initialize MobileNetV4-Conv-S</text><text fill="#000000" font-family="sans-serif" font-size="18.75" lengthAdjust="spacing" textLength="224.7203" x="161.2098" y="485.7907">(~4M params, pretrained)</text><rect fill="#F1F1F1" height="133.4007" rx="19.5313" ry="19.5313" style="stroke:#181818;stroke-width:0.7813;" width="456.7842" x="62.4281" y="538.1595"/><text fill="#000000" font-family="sans-serif" font-size="18.75" lengthAdjust="spacing" textLength="425.5342" x="78.0531" y="573.8284">Train 3 heads on synthetic\nground truth labels:</text><text fill="#000000" font-family="sans-serif" font-size="18.75" lengthAdjust="spacing" textLength="314.6834" x="78.0531" y="599.366">- Orientation (4-class: 0/90/180/270)</text><text fill="#000000" font-family="sans-serif" font-size="18.75" lengthAdjust="spacing" textLength="211.6328" x="78.0531" y="624.9037">- Skew regression (&#177;10&#176;)</text><text fill="#000000" font-family="sans-serif" font-size="18.75" lengthAdjust="spacing" textLength="212.5702" x="78.0531" y="650.4414">- Resolution quality (0-1)</text><rect fill="#F1F1F1" height="107.863" rx="19.5313" ry="19.5313" style="stroke:#181818;stroke-width:0.7813;" width="276.4455" x="152.5974" y="702.8102"/><text fill="#000000" font-family="sans-serif" font-size="18.75" lengthAdjust="spacing" textLength="131.401" x="168.2224" y="738.4791">Multi-task loss:</text><text fill="#000000" font-family="sans-serif" font-size="18.75" lengthAdjust="spacing" textLength="245.1955" x="168.2224" y="764.0168">CE(orientation) + MSE(skew)</text><text fill="#000000" font-family="sans-serif" font-size="18.75" lengthAdjust="spacing" textLength="154.1823" x="168.2224" y="789.5544">+ MSE(resolution)</text><polygon fill="#F1F1F1" points="199.0395,841.9232,382.6008,841.9232,401.3508,877.037,382.6008,912.1508,199.0395,912.1508,180.2895,877.037,199.0395,841.9232" style="stroke:#181818;stroke-width:0.7813;"/><text fill="#000000" font-family="sans-serif" font-size="17.1875" lengthAdjust="spacing" textLength="183.5612" x="199.0395" y="860.2965">Orientation acc &gt; 95%?</text><text fill="#000000" font-family="sans-serif" font-size="17.1875" lengthAdjust="spacing" textLength="140.2662" x="199.0395" y="883.7057">Skew MAE &lt; 0.5&#176;?</text><text fill="#000000" font-family="sans-serif" font-size="17.1875" lengthAdjust="spacing" textLength="176.8237" x="199.0395" y="907.1149">Resolution MAE &lt; 0.1?</text><text fill="#000000" font-family="sans-serif" font-size="17.1875" lengthAdjust="spacing" textLength="26.692" x="153.5976" y="872.0011">yes</text><text fill="#000000" font-family="sans-serif" font-size="17.1875" lengthAdjust="spacing" textLength="21.0202" x="401.3508" y="872.0011">no</text><rect fill="#F1F1F1" height="82.3254" rx="19.5313" ry="19.5313" style="stroke:#181818;stroke-width:0.7813;" width="218.9013" x="48.4375" y="927.7758"/><text fill="#000000" font-family="sans-serif" font-size="18.75" lengthAdjust="spacing" textLength="159.4887" x="64.0625" y="963.4447">Save MobileNetV4</text><text fill="#000000" font-family="sans-serif" font-size="18.75" lengthAdjust="spacing" textLength="187.6513" x="64.0625" y="988.9824">bootstrap checkpoint</text><rect fill="#F1F1F1" height="82.3254" rx="19.5313" ry="19.5313" style="stroke:#181818;stroke-width:0.7813;" width="250.3266" x="298.5888" y="927.7758"/><text fill="#000000" font-family="sans-serif" font-size="18.75" lengthAdjust="spacing" textLength="219.0766" x="314.2138" y="963.4447">Adjust hyperparameters;</text><text fill="#000000" font-family="sans-serif" font-size="18.75" lengthAdjust="spacing" textLength="59.7754" x="314.2138" y="988.9824">retrain</text><polygon fill="#F1F1F1" points="290.8202,1019.4762,309.5702,1038.2262,290.8202,1056.9762,272.0702,1038.2262,290.8202,1019.4762" style="stroke:#181818;stroke-width:0.7813;"/><rect fill="none" height="853.4272" style="stroke:#000000;stroke-width:2.3438;" width="537.2328" x="21.149" y="1091.3512"/><path d="M382.704,1091.3512 L382.704,1110.2073 L367.079,1125.8323 L21.149,1125.8323 " fill="none" style="stroke:#000000;stroke-width:2.3438;"/><text fill="#000000" font-family="sans-serif" font-size="21.875" lengthAdjust="spacing" textLength="345.9299" x="25.8365" y="1116.298">Step 2: SigLIP 2 NAFlex Multi-Task</text><rect fill="#F1F1F1" height="82.3254" rx="19.5313" ry="19.5313" style="stroke:#181818;stroke-width:0.7813;" width="307.8332" x="136.9036" y="1152.3948"/><text fill="#000000" font-family="sans-serif" font-size="18.75" lengthAdjust="spacing" textLength="275.0269" x="152.5286" y="1188.0637">Load SigLIP 2 NAFlex backbone</text><text fill="#000000" font-family="sans-serif" font-size="18.75" lengthAdjust="spacing" textLength="276.5832" x="152.5286" y="1213.6014">(~88M params, frozen ViT-B/16)</text><rect fill="#F1F1F1" height="184.4761" rx="19.5313" ry="19.5313" style="stroke:#181818;stroke-width:0.7813;" width="376.7775" x="102.4314" y="1265.9702"/><text fill="#000000" font-family="sans-serif" font-size="18.75" lengthAdjust="spacing" textLength="345.5275" x="118.0564" y="1301.639">Attach 16 task heads\nacross 5 groups:</text><text fill="#000000" font-family="sans-serif" font-size="18.75" lengthAdjust="spacing" textLength="192.8827" x="118.0564" y="1327.1767">G1: IQA (6 regression)</text><text fill="#000000" font-family="sans-serif" font-size="18.75" lengthAdjust="spacing" textLength="228.6766" x="118.0564" y="1352.7144">G2: Script (1 classification)</text><text fill="#000000" font-family="sans-serif" font-size="18.75" lengthAdjust="spacing" textLength="312.3022" x="118.0564" y="1378.2521">G3: Orientation+Skew (1 cls + 1 reg)</text><text fill="#000000" font-family="sans-serif" font-size="18.75" lengthAdjust="spacing" textLength="228.7703" x="118.0564" y="1403.7898">G4: Handwriting (3 heads)</text><text fill="#000000" font-family="sans-serif" font-size="18.75" lengthAdjust="spacing" textLength="210.2828" x="118.0564" y="1429.3274">G5: Page Attrs (4 heads)</text><rect fill="#F1F1F1" height="82.3254" rx="19.5313" ry="19.5313" style="stroke:#181818;stroke-width:0.7813;" width="295.2894" x="143.1755" y="1481.6962"/><text fill="#000000" font-family="sans-serif" font-size="18.75" lengthAdjust="spacing" textLength="203.8327" x="158.8005" y="1517.3651">Train on all 10 datasets</text><text fill="#000000" font-family="sans-serif" font-size="18.75" lengthAdjust="spacing" textLength="264.0394" x="158.8005" y="1542.9028">(frozen backbone, heads only)</text><rect fill="#F1F1F1" height="82.3254" rx="19.5313" ry="19.5313" style="stroke:#181818;stroke-width:0.7813;" width="247.8703" x="166.885" y="1595.2716"/><text fill="#000000" font-family="sans-serif" font-size="18.75" lengthAdjust="spacing" textLength="216.6203" x="182.51" y="1630.9405">Weighted multi-task loss</text><text fill="#000000" font-family="sans-serif" font-size="18.75" lengthAdjust="spacing" textLength="174.77" x="182.51" y="1656.4782">(per-group weights)</text><polygon fill="#F1F1F1" points="196.8997,1708.8469,384.7406,1708.8469,403.4906,1732.2561,384.7406,1755.6653,196.8997,1755.6653,178.1497,1732.2561,196.8997,1708.8469" style="stroke:#181818;stroke-width:0.7813;"/><text fill="#000000" font-family="sans-serif" font-size="17.1875" lengthAdjust="spacing" textLength="114.2273" x="196.8997" y="1727.2202">All heads pass</text><text fill="#000000" font-family="sans-serif" font-size="17.1875" lengthAdjust="spacing" textLength="187.8409" x="196.8997" y="1750.6294">graduation thresholds?</text><text fill="#000000" font-family="sans-serif" font-size="17.1875" lengthAdjust="spacing" textLength="26.692" x="151.4577" y="1727.2202">yes</text><text fill="#000000" font-family="sans-serif" font-size="17.1875" lengthAdjust="spacing" textLength="21.0202" x="403.4906" y="1727.2202">no</text><rect fill="#F1F1F1" height="82.3254" rx="19.5313" ry="19.5313" style="stroke:#181818;stroke-width:0.7813;" width="220.2513" x="52.399" y="1771.2903"/><text fill="#000000" font-family="sans-serif" font-size="18.75" lengthAdjust="spacing" textLength="115.5758" x="68.024" y="1806.9592">Save SigLIP 2</text><text fill="#000000" font-family="sans-serif" font-size="18.75" lengthAdjust="spacing" textLength="189.0013" x="68.024" y="1832.4969">multi-task checkpoint</text><rect fill="#F1F1F1" height="107.863" rx="19.5313" ry="19.5313" style="stroke:#181818;stroke-width:0.7813;" width="216.0326" x="311.0993" y="1771.2903"/><text fill="#000000" font-family="sans-serif" font-size="18.75" lengthAdjust="spacing" textLength="168.6013" x="326.7243" y="1806.9592">Adjust loss weights</text><text fill="#000000" font-family="sans-serif" font-size="18.75" lengthAdjust="spacing" textLength="184.7826" x="326.7243" y="1832.4969">or head architecture;</text><text fill="#000000" font-family="sans-serif" font-size="18.75" lengthAdjust="spacing" textLength="59.7754" x="326.7243" y="1858.0346">retrain</text><polygon fill="#F1F1F1" points="290.8202,1888.5284,309.5702,1907.2784,290.8202,1926.0284,272.0702,1907.2784,290.8202,1888.5284" style="stroke:#181818;stroke-width:0.7813;"/><rect fill="none" height="714.3142" style="stroke:#000000;stroke-width:2.3438;" width="491.6935" x="32.8608" y="1960.4034"/><path d="M496.6152,1960.4034 L496.6152,1979.2595 L480.9902,1994.8845 L32.8608,1994.8845 " fill="none" style="stroke:#000000;stroke-width:2.3438;"/><text fill="#000000" font-family="sans-serif" font-size="21.875" lengthAdjust="spacing" textLength="448.1294" x="37.5483" y="1985.3501">Step 3: MobileNetV4 Distillation Refinement</text><rect fill="#F1F1F1" height="107.863" rx="19.5313" ry="19.5313" style="stroke:#181818;stroke-width:0.7813;" width="313.2896" x="134.1754" y="2021.447"/><text fill="#000000" font-family="sans-serif" font-size="18.75" lengthAdjust="spacing" textLength="251.2331" x="149.8004" y="2057.1159">Generate SigLIP 2 soft labels</text><text fill="#000000" font-family="sans-serif" font-size="18.75" lengthAdjust="spacing" textLength="282.0396" x="149.8004" y="2082.6536">for orientation, skew, resolution</text><text fill="#000000" font-family="sans-serif" font-size="18.75" lengthAdjust="spacing" textLength="161.0824" x="149.8004" y="2108.1912">(from Groups 3+5)</text><rect fill="#F1F1F1" height="107.863" rx="19.5313" ry="19.5313" style="stroke:#181818;stroke-width:0.7813;" width="286.2331" x="147.7036" y="2160.56"/><text fill="#000000" font-family="sans-serif" font-size="18.75" lengthAdjust="spacing" textLength="254.9831" x="163.3286" y="2196.2289">Re-train MobileNetV4-Conv-S</text><text fill="#000000" font-family="sans-serif" font-size="18.75" lengthAdjust="spacing" textLength="226.3516" x="163.3286" y="2221.7666">using KL-divergence (T=3)</text><text fill="#000000" font-family="sans-serif" font-size="18.75" lengthAdjust="spacing" textLength="212.3078" x="163.3286" y="2247.3043">from SigLIP 2 soft labels</text><rect fill="#F1F1F1" height="107.863" rx="19.5313" ry="19.5313" style="stroke:#181818;stroke-width:0.7813;" width="334.4959" x="123.5722" y="2299.6731"/><text fill="#000000" font-family="sans-serif" font-size="18.75" lengthAdjust="spacing" textLength="303.2459" x="139.1972" y="2335.342">Loss: &#945;&#215;KL(SigLIP2||MobileNetV4)</text><text fill="#000000" font-family="sans-serif" font-size="18.75" lengthAdjust="spacing" textLength="165.7136" x="139.1972" y="2360.8796">+ (1-&#945;)&#215;Hard labels</text><text fill="#000000" font-family="sans-serif" font-size="18.75" lengthAdjust="spacing" textLength="101.7569" x="139.1972" y="2386.4173">(&#945;=0.7, T=3)</text><polygon fill="#F1F1F1" points="199.0395,2438.7861,382.6008,2438.7861,401.3508,2462.1953,382.6008,2485.6045,199.0395,2485.6045,180.2895,2462.1953,199.0395,2438.7861" style="stroke:#181818;stroke-width:0.7813;"/><text fill="#000000" font-family="sans-serif" font-size="17.1875" lengthAdjust="spacing" textLength="183.5612" x="199.0395" y="2457.1594">Orientation acc &gt; 98%?</text><text fill="#000000" font-family="sans-serif" font-size="17.1875" lengthAdjust="spacing" textLength="140.2662" x="199.0395" y="2480.5686">Skew MAE &lt; 0.3&#176;?</text><text fill="#000000" font-family="sans-serif" font-size="17.1875" lengthAdjust="spacing" textLength="26.692" x="153.5976" y="2457.1594">yes</text><text fill="#000000" font-family="sans-serif" font-size="17.1875" lengthAdjust="spacing" textLength="21.0202" x="401.3508" y="2457.1594">no</text><rect fill="#F1F1F1" height="82.3254" rx="19.5313" ry="19.5313" style="stroke:#181818;stroke-width:0.7813;" width="201.1075" x="64.1108" y="2501.2295"/><text fill="#000000" font-family="sans-serif" font-size="18.75" lengthAdjust="spacing" textLength="159.4887" x="79.7358" y="2536.8984">Save MobileNetV4</text><text fill="#000000" font-family="sans-serif" font-size="18.75" lengthAdjust="spacing" textLength="169.8575" x="79.7358" y="2562.4361">distilled checkpoint</text><rect fill="#F1F1F1" height="107.863" rx="19.5313" ry="19.5313" style="stroke:#181818;stroke-width:0.7813;" width="152.6571" x="340.6472" y="2501.2295"/><text fill="#000000" font-family="sans-serif" font-size="18.75" lengthAdjust="spacing" textLength="121.4071" x="356.2722" y="2536.8984">Adjust &#945;, T, or</text><text fill="#000000" font-family="sans-serif" font-size="18.75" lengthAdjust="spacing" textLength="118.7258" x="356.2722" y="2562.4361">learning rate;</text><text fill="#000000" font-family="sans-serif" font-size="18.75" lengthAdjust="spacing" textLength="59.7754" x="356.2722" y="2587.9738">retrain</text><polygon fill="#F1F1F1" points="290.8202,2618.4675,309.5702,2637.2175,290.8202,2655.9675,272.0702,2637.2175,290.8202,2618.4675" style="stroke:#181818;stroke-width:0.7813;"/><rect fill="none" height="531.1823" style="stroke:#000000;stroke-width:2.3438;" width="698.5457" x="130.4192" y="2690.3425"/><path d="M365.7996,2690.3425 L365.7996,2709.1987 L350.1746,2724.8237 L130.4192,2724.8237 " fill="none" style="stroke:#000000;stroke-width:2.3438;"/><text fill="#000000" font-family="sans-serif" font-size="21.875" lengthAdjust="spacing" textLength="219.7554" x="135.1067" y="2715.2893">Export &amp; Registration</text><rect fill="#F1F1F1" height="82.3254" rx="19.5313" ry="19.5313" style="stroke:#181818;stroke-width:0.7813;" width="245.639" x="168.0006" y="2751.3862"/><text fill="#000000" font-family="sans-serif" font-size="18.75" lengthAdjust="spacing" textLength="214.389" x="183.6256" y="2787.055">Export SigLIP 2 to ONNX</text><text fill="#000000" font-family="sans-serif" font-size="18.75" lengthAdjust="spacing" textLength="155.2323" x="183.6256" y="2812.5927">(16 output heads)</text><rect fill="#F1F1F1" height="82.3254" rx="19.5313" ry="19.5313" style="stroke:#181818;stroke-width:0.7813;" width="289.5519" x="146.0442" y="2864.9615"/><text fill="#000000" font-family="sans-serif" font-size="18.75" lengthAdjust="spacing" textLength="258.3019" x="161.6692" y="2900.6304">Export MobileNetV4 to ONNX</text><text fill="#000000" font-family="sans-serif" font-size="18.75" lengthAdjust="spacing" textLength="144.5072" x="161.6692" y="2926.1681">(3 output heads)</text><rect fill="#F1F1F1" height="82.3254" rx="19.5313" ry="19.5313" style="stroke:#181818;stroke-width:0.7813;" width="258.5392" x="161.5506" y="2978.5369"/><text fill="#000000" font-family="sans-serif" font-size="18.75" lengthAdjust="spacing" textLength="227.2892" x="177.1756" y="3014.2058">Register in model registry</text><text fill="#000000" font-family="sans-serif" font-size="18.75" lengthAdjust="spacing" textLength="111.3945" x="177.1756" y="3039.7434">(GCS bucket)</text><path d="M432.7771,3076.4872 L432.7771,3133.381 L401.5271,3139.631 L432.7771,3145.881 L432.7771,3202.7748 A0,0 0 0 0 432.7771,3202.7748 L813.3399,3202.7748 A0,0 0 0 0 813.3399,3202.7748 L813.3399,3092.1122 L797.7149,3076.4872 L432.7771,3076.4872 A0,0 0 0 0 432.7771,3076.4872 " fill="#F8F8F8" style="stroke:#BBBBBB;stroke-width:0.7813;"/><path d="M797.7149,3076.4872 L797.7149,3092.1122 L813.3399,3092.1122 L797.7149,3076.4872 " fill="#F8F8F8" style="stroke:#BBBBBB;stroke-width:0.7813;"/><text fill="#000000" font-family="sans-serif" font-size="20.3125" font-weight="bold" lengthAdjust="spacing" textLength="206.944" x="442.1521" y="3106.0138">PLANNED (Deferred)</text><text fill="#000000" font-family="sans-serif" font-size="20.3125" lengthAdjust="spacing" textLength="5.4438" x="649.096" y="3106.0138">:</text><text fill="#000000" font-family="sans-serif" font-size="20.3125" lengthAdjust="spacing" textLength="347.7503" x="442.1521" y="3133.6795">Distillation cascade for edge/mobile:</text><text fill="#000000" font-family="sans-serif" font-size="20.3125" lengthAdjust="spacing" textLength="327.9434" x="442.1521" y="3161.3451">SigLIP 2 &#8594; MobileCLIP-2 S4 (~35M)</text><text fill="#000000" font-family="sans-serif" font-size="20.3125" lengthAdjust="spacing" textLength="264.1215" x="442.1521" y="3189.0108">&#8594; MobileCLIP-2 S0 (~11.4M)</text><rect fill="#F1F1F1" height="82.3254" rx="19.5313" ry="19.5313" style="stroke:#181818;stroke-width:0.7813;" width="221.4139" x="180.1132" y="3098.4684"/><text fill="#000000" font-family="sans-serif" font-size="18.75" lengthAdjust="spacing" textLength="143.5885" x="195.7382" y="3134.1372">Arena validation</text><text fill="#000000" font-family="sans-serif" font-size="18.75" lengthAdjust="spacing" textLength="190.1639" x="195.7382" y="3159.6749">(per-head thresholds)</text><ellipse cx="290.8202" cy="3269.9623" fill="none" rx="17.1875" ry="17.1875" style="stroke:#222222;stroke-width:1.5625;"/><ellipse cx="290.8202" cy="3269.9623" fill="#222222" rx="9.375" ry="9.375" style="stroke:#222222;stroke-width:1.5625;"/><line style="stroke:#181818;stroke-width:1.5625;" x1="290.8202" x2="290.8202" y1="109.4811" y2="211.0262"/><polygon fill="#181818" points="284.5702,195.4012,290.8202,211.0262,297.0702,195.4012,290.8202,201.6512" style="stroke:#181818;stroke-width:1.5625;"/><line style="stroke:#181818;stroke-width:1.5625;" x1="290.8202" x2="290.8202" y1="506.9095" y2="538.1595"/><polygon fill="#181818" points="284.5702,522.5345,290.8202,538.1595,297.0702,522.5345,290.8202,528.7845" style="stroke:#181818;stroke-width:1.5625;"/><line style="stroke:#181818;stroke-width:1.5625;" x1="290.8202" x2="290.8202" y1="671.5602" y2="702.8102"/><polygon fill="#181818" points="284.5702,687.1852,290.8202,702.8102,297.0702,687.1852,290.8202,693.4352" style="stroke:#181818;stroke-width:1.5625;"/><line style="stroke:#181818;stroke-width:1.5625;" x1="180.2895" x2="157.8882" y1="877.037" y2="877.037"/><line style="stroke:#181818;stroke-width:1.5625;" x1="157.8882" x2="157.8882" y1="877.037" y2="927.7758"/><polygon fill="#181818" points="151.6382,912.1508,157.8882,927.7758,164.1382,912.1508,157.8882,918.4008" style="stroke:#181818;stroke-width:1.5625;"/><line style="stroke:#181818;stroke-width:1.5625;" x1="401.3508" x2="423.7521" y1="877.037" y2="877.037"/><line style="stroke:#181818;stroke-width:1.5625;" x1="423.7521" x2="423.7521" y1="877.037" y2="927.7758"/><polygon fill="#181818" points="417.5021,912.1508,423.7521,927.7758,430.0021,912.1508,423.7521,918.4008" style="stroke:#181818;stroke-width:1.5625;"/><line style="stroke:#181818;stroke-width:1.5625;" x1="157.8882" x2="157.8882" y1="1010.1012" y2="1038.2262"/><line style="stroke:#181818;stroke-width:1.5625;" x1="157.8882" x2="272.0702" y1="1038.2262" y2="1038.2262"/><polygon fill="#181818" points="256.4452,1031.9762,272.0702,1038.2262,256.4452,1044.4762,262.6952,1038.2262" style="stroke:#181818;stroke-width:1.5625;"/><line style="stroke:#181818;stroke-width:1.5625;" x1="423.7521" x2="423.7521" y1="1010.1012" y2="1038.2262"/><line style="stroke:#181818;stroke-width:1.5625;" x1="423.7521" x2="309.5702" y1="1038.2262" y2="1038.2262"/><polygon fill="#181818" points="325.1952,1031.9762,309.5702,1038.2262,325.1952,1044.4762,318.9452,1038.2262" style="stroke:#181818;stroke-width:1.5625;"/><line style="stroke:#181818;stroke-width:1.5625;" x1="290.8202" x2="290.8202" y1="810.6732" y2="841.9232"/><polygon fill="#181818" points="284.5702,826.2982,290.8202,841.9232,297.0702,826.2982,290.8202,832.5482" style="stroke:#181818;stroke-width:1.5625;"/><line style="stroke:#181818;stroke-width:1.5625;" x1="290.8202" x2="290.8202" y1="293.3515" y2="424.5841"/><polygon fill="#181818" points="284.5702,408.9591,290.8202,424.5841,297.0702,408.9591,290.8202,415.2091" style="stroke:#181818;stroke-width:1.5625;"/><line style="stroke:#181818;stroke-width:1.5625;" x1="290.8202" x2="290.8202" y1="1234.7202" y2="1265.9702"/><polygon fill="#181818" points="284.5702,1250.3452,290.8202,1265.9702,297.0702,1250.3452,290.8202,1256.5952" style="stroke:#181818;stroke-width:1.5625;"/><line style="stroke:#181818;stroke-width:1.5625;" x1="290.8202" x2="290.8202" y1="1450.4462" y2="1481.6962"/><polygon fill="#181818" points="284.5702,1466.0712,290.8202,1481.6962,297.0702,1466.0712,290.8202,1472.3212" style="stroke:#181818;stroke-width:1.5625;"/><line style="stroke:#181818;stroke-width:1.5625;" x1="290.8202" x2="290.8202" y1="1564.0216" y2="1595.2716"/><polygon fill="#181818" points="284.5702,1579.6466,290.8202,1595.2716,297.0702,1579.6466,290.8202,1585.8966" style="stroke:#181818;stroke-width:1.5625;"/><line style="stroke:#181818;stroke-width:1.5625;" x1="178.1497" x2="162.5247" y1="1732.2561" y2="1732.2561"/><line style="stroke:#181818;stroke-width:1.5625;" x1="162.5247" x2="162.5247" y1="1732.2561" y2="1771.2903"/><polygon fill="#181818" points="156.2747,1755.6653,162.5247,1771.2903,168.7747,1755.6653,162.5247,1761.9153" style="stroke:#181818;stroke-width:1.5625;"/><line style="stroke:#181818;stroke-width:1.5625;" x1="403.4906" x2="419.1156" y1="1732.2561" y2="1732.2561"/><line style="stroke:#181818;stroke-width:1.5625;" x1="419.1156" x2="419.1156" y1="1732.2561" y2="1771.2903"/><polygon fill="#181818" points="412.8656,1755.6653,419.1156,1771.2903,425.3656,1755.6653,419.1156,1761.9153" style="stroke:#181818;stroke-width:1.5625;"/><line style="stroke:#181818;stroke-width:1.5625;" x1="162.5247" x2="162.5247" y1="1853.6157" y2="1907.2784"/><line style="stroke:#181818;stroke-width:1.5625;" x1="162.5247" x2="272.0702" y1="1907.2784" y2="1907.2784"/><polygon fill="#181818" points="256.4452,1901.0284,272.0702,1907.2784,256.4452,1913.5284,262.6952,1907.2784" style="stroke:#181818;stroke-width:1.5625;"/><line style="stroke:#181818;stroke-width:1.5625;" x1="419.1156" x2="419.1156" y1="1879.1534" y2="1907.2784"/><line style="stroke:#181818;stroke-width:1.5625;" x1="419.1156" x2="309.5702" y1="1907.2784" y2="1907.2784"/><polygon fill="#181818" points="325.1952,1901.0284,309.5702,1907.2784,325.1952,1913.5284,318.9452,1907.2784" style="stroke:#181818;stroke-width:1.5625;"/><line style="stroke:#181818;stroke-width:1.5625;" x1="290.8202" x2="290.8202" y1="1677.5969" y2="1708.8469"/><polygon fill="#181818" points="284.5702,1693.2219,290.8202,1708.8469,297.0702,1693.2219,290.8202,1699.4719" style="stroke:#181818;stroke-width:1.5625;"/><line style="stroke:#181818;stroke-width:1.5625;" x1="290.8202" x2="290.8202" y1="1056.9762" y2="1152.3948"/><polygon fill="#181818" points="284.5702,1136.7698,290.8202,1152.3948,297.0702,1136.7698,290.8202,1143.0198" style="stroke:#181818;stroke-width:1.5625;"/><line style="stroke:#181818;stroke-width:1.5625;" x1="290.8202" x2="290.8202" y1="2129.31" y2="2160.56"/><polygon fill="#181818" points="284.5702,2144.935,290.8202,2160.56,297.0702,2144.935,290.8202,2151.185" style="stroke:#181818;stroke-width:1.5625;"/><line style="stroke:#181818;stroke-width:1.5625;" x1="290.8202" x2="290.8202" y1="2268.4231" y2="2299.6731"/><polygon fill="#181818" points="284.5702,2284.0481,290.8202,2299.6731,297.0702,2284.0481,290.8202,2290.2981" style="stroke:#181818;stroke-width:1.5625;"/><line style="stroke:#181818;stroke-width:1.5625;" x1="180.2895" x2="164.6645" y1="2462.1953" y2="2462.1953"/><line style="stroke:#181818;stroke-width:1.5625;" x1="164.6645" x2="164.6645" y1="2462.1953" y2="2501.2295"/><polygon fill="#181818" points="158.4145,2485.6045,164.6645,2501.2295,170.9145,2485.6045,164.6645,2491.8545" style="stroke:#181818;stroke-width:1.5625;"/><line style="stroke:#181818;stroke-width:1.5625;" x1="401.3508" x2="416.9758" y1="2462.1953" y2="2462.1953"/><line style="stroke:#181818;stroke-width:1.5625;" x1="416.9758" x2="416.9758" y1="2462.1953" y2="2501.2295"/><polygon fill="#181818" points="410.7258,2485.6045,416.9758,2501.2295,423.2258,2485.6045,416.9758,2491.8545" style="stroke:#181818;stroke-width:1.5625;"/><line style="stroke:#181818;stroke-width:1.5625;" x1="164.6645" x2="164.6645" y1="2583.5549" y2="2637.2175"/><line style="stroke:#181818;stroke-width:1.5625;" x1="164.6645" x2="272.0702" y1="2637.2175" y2="2637.2175"/><polygon fill="#181818" points="256.4452,2630.9675,272.0702,2637.2175,256.4452,2643.4675,262.6952,2637.2175" style="stroke:#181818;stroke-width:1.5625;"/><line style="stroke:#181818;stroke-width:1.5625;" x1="416.9758" x2="416.9758" y1="2609.0925" y2="2637.2175"/><line style="stroke:#181818;stroke-width:1.5625;" x1="416.9758" x2="309.5702" y1="2637.2175" y2="2637.2175"/><polygon fill="#181818" points="325.1952,2630.9675,309.5702,2637.2175,325.1952,2643.4675,318.9452,2637.2175" style="stroke:#181818;stroke-width:1.5625;"/><line style="stroke:#181818;stroke-width:1.5625;" x1="290.8202" x2="290.8202" y1="2407.5361" y2="2438.7861"/><polygon fill="#181818" points="284.5702,2423.1611,290.8202,2438.7861,297.0702,2423.1611,290.8202,2429.4111" style="stroke:#181818;stroke-width:1.5625;"/><line style="stroke:#181818;stroke-width:1.5625;" x1="290.8202" x2="290.8202" y1="1926.0284" y2="2021.447"/><polygon fill="#181818" points="284.5702,2005.822,290.8202,2021.447,297.0702,2005.822,290.8202,2012.072" style="stroke:#181818;stroke-width:1.5625;"/><line style="stroke:#181818;stroke-width:1.5625;" x1="290.8202" x2="290.8202" y1="2833.7115" y2="2864.9615"/><polygon fill="#181818" points="284.5702,2849.3365,290.8202,2864.9615,297.0702,2849.3365,290.8202,2855.5865" style="stroke:#181818;stroke-width:1.5625;"/><line style="stroke:#181818;stroke-width:1.5625;" x1="290.8202" x2="290.8202" y1="2947.2869" y2="2978.5369"/><polygon fill="#181818" points="284.5702,2962.9119,290.8202,2978.5369,297.0702,2962.9119,290.8202,2969.1619" style="stroke:#181818;stroke-width:1.5625;"/><line style="stroke:#181818;stroke-width:1.5625;" x1="290.8202" x2="290.8202" y1="3060.8622" y2="3098.4684"/><polygon fill="#181818" points="284.5702,3082.8434,290.8202,3098.4684,297.0702,3082.8434,290.8202,3089.0934" style="stroke:#181818;stroke-width:1.5625;"/><line style="stroke:#181818;stroke-width:1.5625;" x1="290.8202" x2="290.8202" y1="2655.9675" y2="2751.3862"/><polygon fill="#181818" points="284.5702,2735.7612,290.8202,2751.3862,297.0702,2735.7612,290.8202,2742.0112" style="stroke:#181818;stroke-width:1.5625;"/><line style="stroke:#181818;stroke-width:1.5625;" x1="290.8202" x2="290.8202" y1="3180.7937" y2="3252.7748"/><polygon fill="#181818" points="284.5702,3237.1498,290.8202,3252.7748,297.0702,3237.1498,290.8202,3243.3998" style="stroke:#181818;stroke-width:1.5625;"/><!--SRC=[ZLRDKXiv4BxxARgIsgqnU606suIOpQQC8OJY9oocO0- -o3DjMq6M9f86ucmsnts0lUGrmYkGEm-nJx8jZN_61IbYBaRTwf_l-xfbowr0EDNgFIOMsX32SIui3y-PkO9ppRZaSWYdF4F19K9G3xiMCxZWskOgDz2P90AhbOgvuZ9ZceqXpJZ4pQXqOaOiLJSkpe09WoMBfgHC3gc2logmmvAheLQvJ3jAA0sN8swHZfLEKHT7Eu9yAd-N8aXb7xty_CsM-rk-_dp7VoX0nLYcRQL2GIotN4buTY2pt9fdBbWhZY3BTQOCXlsS2mifiyoWDJqPV6b6zKEmoZ81VCo6QAhRbQ8EpOSZMm60TvgZjCm73fhHORK6tIkyWQ3XlZkFCpHAv8L3tJiS_D668DuyN8sZcLCtqJopT1fjEO-tJAOtcieb98FDcLE7PJRNEC_ZmQOxpQdzakdCtzZmzevAqKKyh5O0PUeBTu2KaF0CnoquLdqky0JjHIFiA7aTTWbDPOtLB2jmEf1qXGd-2HznTbWrZi7pP6gGQRHEJvWwl5fUMr274RBK0AKr4sb7Q7dIamMHO7LkHo1O7uLfLKYQIx0smaGmOreGhR-CrkEjQ7tZHLHrRXvgZKEDndZNkziukllcRINSF-HKkPr048MnBwbGldNA5ueYzsHdBr2Bd5LOXUFkNc0eVhKdYt_qFA2BmGSGbAjaIGA_mylcBwzxqfTrtDw3to1QQzvzewDIDJD3_BeAX0DLFI5bEG9RNNQzX6zFzcSqG3B2v2fJN5hAJZWHjr8Lrzhf-znO64qor9u4jAZDTazEYTZs0k23nzZVQ46N3uyEJc43Jjfl17uixOM2-oF5qWTEVHh3lfBekD_QMf0_qEeJzNJ1pyETzNZJmzssbYKZY3V1G-w5q9CiqOGzDC6987EyxvCK_N1ibaYb5lTTaRC90Iy6Fk19GHMPwwsoO5QB0NIEXdYCNIpdrMWjpzLKaSxKRC4fpJTGeTgGuAQMXNeTmK80ROlIVfYsEaEYDbUucFYhb-Ys1AOmNfORNIMYGjyst7WdCvDKcx8KOJBcF8UQfNcXC3iYH4PAfEO7mfbHr9EbX4_BnfKqAwCdQNcw_C1quhPouZREpocflhH7O9SRouKeQZ_30Us3CL5KI6eV9Mfc5pM3KGCxtG0zEQ0gIkDO0pU8DLXCO87-6FQzTA2-slI8ds7eotnqH-N6qNvu5ARy6lKGPK9OdB-gqu3xM8-LiktbxtRF_UtthuT7GU6qyVbpAOFV444StjzMltzzotGwxoEultqLhRseWKlpuwMnzM1fr6bf_CHsI0kCIM9Fqtn_IsNK2DQU5CYqV-qT1K-Ik_SnKzh2hqJYaBjTv8uB6gUcEN9MmRkJap-fSPfrbLjwPqkZDFKkYsHneVxGlyY76eZGCJrcmasogs12_lkTBlJpv0fjiM8qIWRNjETJDXM8cp4lvSNWa2lrLdx1LrPEZzed9tkx4EpY0BMcHsjbXNRHadmJPX96hwdJ9QP3N1_x7iXjtlf___mxxQn31-46T1iGVAatZuc4XxQ8R76yrY3h_6ccNoegg_mF]--></g></svg>
