<svg xmlns="http://www.w3.org/2000/svg" xmlns:xlink="http://www.w3.org/1999/xlink" contentStyleType="text/css" height="1020px" preserveAspectRatio="none" style="width:1626px;height:1020px;background:#FEFEFE;" version="1.1" viewBox="0 0 1626 1020" width="1626px" zoomAndPan="magnify"><title>DIQA Pseudo-Labeling Inference Pipeline</title><defs/><g><rect fill="#FEFEFE" height="1020" style="stroke:none;stroke-width:1;" width="1626" x="0" y="0"/><text fill="#000000" font-family="Verdana" font-size="22" font-weight="bold" lengthAdjust="spacing" textLength="450.5835" x="583.3784" y="38.5181">DIQA Pseudo-Labeling Inference Pipeline</text><text fill="#000000" font-family="Verdana" font-size="22" font-weight="bold" lengthAdjust="spacing" textLength="244.7508" x="686.2947" y="68.4822">Batch Processing Flow</text><!--cluster Modal--><g id="cluster_Modal"><path d="M206.5,223.9282 L430.1972,223.9282 A3.75,3.75 0 0 1 432.6972,226.4282 L439.6972,248.9961 L1048.5,248.9961 A2.5,2.5 0 0 1 1051,251.4961 L1051,1011.4282 A2.5,2.5 0 0 1 1048.5,1013.9282 L206.5,1013.9282 A2.5,2.5 0 0 1 204,1011.4282 L204,226.4282 A2.5,2.5 0 0 1 206.5,223.9282 " fill="#FFFFFF" style="stroke:#000000;stroke-width:1;"/><line style="stroke:#000000;stroke-width:1;" x1="204" x2="439.6972" y1="248.9961" y2="248.9961"/><text fill="#000000" font-family="Verdana" font-size="14" font-weight="bold" lengthAdjust="spacing" textLength="222.6972" x="208" y="240.8941">Modal Serverless Infrastructure</text></g><!--cluster GPUPool--><g id="cluster_GPUPool"><path d="M230.5,783.9282 L295.0457,783.9282 A3.75,3.75 0 0 1 297.5457,786.4282 L304.5457,808.9961 L1024.5,808.9961 A2.5,2.5 0 0 1 1027,811.4961 L1027,987.4282 A2.5,2.5 0 0 1 1024.5,989.9282 L230.5,989.9282 A2.5,2.5 0 0 1 228,987.4282 L228,786.4282 A2.5,2.5 0 0 1 230.5,783.9282 " fill="#FFFFFF" style="stroke:#000000;stroke-width:1;"/><line style="stroke:#000000;stroke-width:1;" x1="228" x2="304.5457" y1="808.9961" y2="808.9961"/><text fill="#000000" font-family="Verdana" font-size="14" font-weight="bold" lengthAdjust="spacing" textLength="63.5457" x="232" y="800.8941">GPU Pool</text></g><!--cluster A10G--><g id="cluster_A10G"><polygon fill="#FFFFFF" points="252,839.9282,262,829.9282,549,829.9282,549,955.9282,539,965.9282,252,965.9282,252,839.9282" style="stroke:#000000;stroke-width:1;"/><line style="stroke:#000000;stroke-width:1;" x1="539" x2="549" y1="839.9282" y2="829.9282"/><line style="stroke:#000000;stroke-width:1;" x1="252" x2="539" y1="839.9282" y2="839.9282"/><line style="stroke:#000000;stroke-width:1;" x1="539" x2="539" y1="839.9282" y2="965.9282"/><text fill="#000000" font-family="Verdana" font-size="14" font-weight="bold" lengthAdjust="spacing" textLength="107.2116" x="342.8942" y="857.8941">A10G Instances</text><text fill="#000000" font-family="Verdana" font-size="14" font-weight="bold" lengthAdjust="spacing" textLength="97.9016" x="347.5492" y="876.9621">(Track A light)</text></g><!--cluster A100--><g id="cluster_A100"><polygon fill="#FFFFFF" points="573,839.9282,583,829.9282,1003,829.9282,1003,955.9282,993,965.9282,573,965.9282,573,839.9282" style="stroke:#000000;stroke-width:1;"/><line style="stroke:#000000;stroke-width:1;" x1="993" x2="1003" y1="839.9282" y2="829.9282"/><line style="stroke:#000000;stroke-width:1;" x1="573" x2="993" y1="839.9282" y2="839.9282"/><line style="stroke:#000000;stroke-width:1;" x1="993" x2="993" y1="839.9282" y2="965.9282"/><text fill="#000000" font-family="Verdana" font-size="14" font-weight="bold" lengthAdjust="spacing" textLength="145.1514" x="711.4243" y="857.8941">A100-80GB Instances</text><text fill="#000000" font-family="Verdana" font-size="14" font-weight="bold" lengthAdjust="spacing" textLength="174.2153" x="696.8923" y="876.9621">(Track A heavy + Track B)</text></g><!--cluster Orchestration--><g id="cluster_Orchestration"><path d="M232.5,269.9282 L331.7236,269.9282 A3.75,3.75 0 0 1 334.2236,272.4282 L341.2236,294.9961 L562.5,294.9961 A2.5,2.5 0 0 1 565,297.4961 L565,600.4282 A2.5,2.5 0 0 1 562.5,602.9282 L232.5,602.9282 A2.5,2.5 0 0 1 230,600.4282 L230,272.4282 A2.5,2.5 0 0 1 232.5,269.9282 " fill="#FFFFFF" style="stroke:#000000;stroke-width:1;"/><line style="stroke:#000000;stroke-width:1;" x1="230" x2="341.2236" y1="294.9961" y2="294.9961"/><text fill="#000000" font-family="Verdana" font-size="14" font-weight="bold" lengthAdjust="spacing" textLength="98.2236" x="234" y="286.8941">Orchestration</text></g><!--entity MUSIQ_Inf--><g id="elem_MUSIQ_Inf"><rect fill="#FFFFFF" height="58.1358" rx="2.5" ry="2.5" style="stroke:#000000;stroke-width:1;" width="110.6497" x="422.5" y="891.9282"/><text fill="#000000" font-family="Verdana" font-size="14" lengthAdjust="spacing" textLength="46.2978" x="432.5" y="916.8941">MUSIQ</text><text fill="#000000" font-family="Verdana" font-size="14" lengthAdjust="spacing" textLength="90.6497" x="432.5" y="935.9621">(27M params)</text></g><!--entity QualiCLIP_Inf--><g id="elem_QualiCLIP_Inf"><rect fill="#FFFFFF" height="58.1358" rx="2.5" ry="2.5" style="stroke:#000000;stroke-width:1;" width="118.6576" x="268.5" y="891.9282"/><text fill="#000000" font-family="Verdana" font-size="14" lengthAdjust="spacing" textLength="64.0638" x="278.5" y="916.8941">QualiCLIP</text><text fill="#000000" font-family="Verdana" font-size="14" lengthAdjust="spacing" textLength="98.6576" x="278.5" y="935.9621">(150M params)</text></g><!--entity DocIQ_Inf--><g id="elem_DocIQ_Inf"><rect fill="#FFFFFF" height="58.1358" rx="2.5" ry="2.5" style="stroke:#000000;stroke-width:1;" width="114.2336" x="589" y="891.9282"/><text fill="#000000" font-family="Verdana" font-size="14" lengthAdjust="spacing" textLength="92.6096" x="599" y="916.8941">DocIQ-Replica</text><text fill="#000000" font-family="Verdana" font-size="14" lengthAdjust="spacing" textLength="94.2336" x="599" y="935.9621">(25M + masks)</text></g><!--entity Qwen_Inf--><g id="elem_Qwen_Inf"><rect fill="#FFFFFF" height="58.1358" rx="2.5" ry="2.5" style="stroke:#000000;stroke-width:1;" width="108.3536" x="879" y="891.9282"/><text fill="#000000" font-family="Verdana" font-size="14" lengthAdjust="spacing" textLength="88.3536" x="889" y="916.8941">Qwen3-VL-8B</text><text fill="#000000" font-family="Verdana" font-size="14" lengthAdjust="spacing" textLength="79.0437" x="889" y="935.9621">(8B params)</text></g><!--entity InternVL_Inf--><g id="elem_InternVL_Inf"><rect fill="#FFFFFF" height="58.1358" rx="2.5" ry="2.5" style="stroke:#000000;stroke-width:1;" width="106.1416" x="738" y="891.9282"/><text fill="#000000" font-family="Verdana" font-size="14" lengthAdjust="spacing" textLength="86.1416" x="748" y="916.8941">InternVL3-8B</text><text fill="#000000" font-family="Verdana" font-size="14" lengthAdjust="spacing" textLength="79.0437" x="748" y="935.9621">(8B params)</text></g><!--entity Scheduler--><g id="elem_Scheduler"><rect fill="#FFFFFF" height="39.0679" rx="2.5" ry="2.5" style="stroke:#000000;stroke-width:1;" width="126.5256" x="246.5" y="307.9282"/><text fill="#000000" font-family="Verdana" font-size="14" lengthAdjust="spacing" textLength="106.5256" x="256.5" y="332.8941">Batch Scheduler</text></g><!--entity Aggregator--><g id="elem_Aggregator"><rect fill="#FFFFFF" height="39.0679" rx="2.5" ry="2.5" style="stroke:#000000;stroke-width:1;" width="139.8816" x="409" y="307.9282"/><text fill="#000000" font-family="Verdana" font-size="14" lengthAdjust="spacing" textLength="119.8816" x="419" y="332.8941">Result Aggregator</text></g><!--entity JobQueue--><g id="elem_JobQueue"><path d="M250.5,557.9282 L329.0717,557.9282 C334.0717,557.9282 334.0717,572.4622 334.0717,572.4622 C334.0717,572.4622 334.0717,586.9961 329.0717,586.9961 L250.5,586.9961 C245.5,586.9961 245.5,572.4622 245.5,572.4622 C245.5,572.4622 245.5,557.9282 250.5,557.9282 " fill="#FFFFFF" style="stroke:#000000;stroke-width:1;"/><path d="M329.0717,557.9282 C324.0717,557.9282 324.0717,572.4622 324.0717,572.4622 C324.0717,586.9961 329.0717,586.9961 329.0717,586.9961 " fill="none" style="stroke:#000000;stroke-width:1;"/><text fill="#000000" font-family="Verdana" font-size="14" lengthAdjust="spacing" textLength="68.5717" x="250.5" y="577.8941">Job Queue</text></g><!--entity InputBucket--><g id="elem_InputBucket"><path d="M256,101.9282 C256,91.9282 310.1278,91.9282 310.1278,91.9282 C310.1278,91.9282 364.2557,91.9282 364.2557,101.9282 L364.2557,149.064 C364.2557,159.064 310.1278,159.064 310.1278,159.064 C310.1278,159.064 256,159.064 256,149.064 L256,101.9282 " fill="#FFFFFF" style="stroke:#000000;stroke-width:1;"/><path d="M256,101.9282 C256,111.9282 310.1278,111.9282 310.1278,111.9282 C310.1278,111.9282 364.2557,111.9282 364.2557,101.9282 " fill="none" style="stroke:#000000;stroke-width:1;"/><text fill="#000000" font-family="Verdana" font-size="14" lengthAdjust="spacing" textLength="88.2557" x="266" y="130.8941">Input Images</text><text fill="#000000" font-family="Verdana" font-size="14" lengthAdjust="spacing" textLength="83.6637" x="266" y="149.9621">(GCS Bucket)</text></g><!--entity MaskCache--><g id="elem_MaskCache"><path d="M11,548.9282 C11,538.9282 84.2448,538.9282 84.2448,538.9282 C84.2448,538.9282 157.4895,538.9282 157.4895,548.9282 L157.4895,596.064 C157.4895,606.064 84.2448,606.064 84.2448,606.064 C84.2448,606.064 11,606.064 11,596.064 L11,548.9282 " fill="#FFFFFF" style="stroke:#000000;stroke-width:1;"/><path d="M11,548.9282 C11,558.9282 84.2448,558.9282 84.2448,558.9282 C84.2448,558.9282 157.4895,558.9282 157.4895,548.9282 " fill="none" style="stroke:#000000;stroke-width:1;"/><text fill="#000000" font-family="Verdana" font-size="14" lengthAdjust="spacing" textLength="126.4895" x="21" y="577.8941">Layout Mask Cache</text><text fill="#000000" font-family="Verdana" font-size="14" lengthAdjust="spacing" textLength="35.1259" x="21" y="596.9621">(GCS)</text></g><!--entity OutputBucket--><g id="elem_OutputBucket"><path d="M1070.5,548.9282 C1070.5,538.9282 1126.8048,538.9282 1126.8048,538.9282 C1126.8048,538.9282 1183.1096,538.9282 1183.1096,548.9282 L1183.1096,596.064 C1183.1096,606.064 1126.8048,606.064 1126.8048,606.064 C1126.8048,606.064 1070.5,606.064 1070.5,596.064 L1070.5,548.9282 " fill="#FFFFFF" style="stroke:#000000;stroke-width:1;"/><path d="M1070.5,548.9282 C1070.5,558.9282 1126.8048,558.9282 1126.8048,558.9282 C1126.8048,558.9282 1183.1096,558.9282 1183.1096,548.9282 " fill="none" style="stroke:#000000;stroke-width:1;"/><text fill="#000000" font-family="Verdana" font-size="14" lengthAdjust="spacing" textLength="92.6096" x="1080.5" y="577.8941">Output Labels</text><text fill="#000000" font-family="Verdana" font-size="14" lengthAdjust="spacing" textLength="35.1259" x="1080.5" y="596.9621">(GCS)</text></g><g id="elem_GMN32"><path d="M1219,425.9282 L1219,568.4282 L1183.75,572.4282 L1219,576.4282 L1219,719.2245 A0,0 0 0 0 1219,719.2245 L1619.3402,719.2245 A0,0 0 0 0 1619.3402,719.2245 L1619.3402,435.9282 L1609.3402,425.9282 L1219,425.9282 A0,0 0 0 0 1219,425.9282 " fill="#FFFFFF" style="stroke:#000000;stroke-width:1;"/><path d="M1609.3402,425.9282 L1609.3402,435.9282 L1619.3402,435.9282 L1609.3402,425.9282 " fill="#FFFFFF" style="stroke:#000000;stroke-width:1;"/><text fill="#000000" font-family="Verdana" font-size="13" font-weight="bold" lengthAdjust="spacing" textLength="47.7231" x="1225" y="444.8252">Source:</text><text fill="#000000" font-family="Verdana" font-size="13" lengthAdjust="spacing" textLength="199.5112" x="1225" y="462.5312">- src/.../labeling/arena/runner.py</text><text fill="#000000" font-family="Verdana" font-size="13" lengthAdjust="spacing" textLength="258.3362" x="1225" y="480.2372">- src/.../labeling/arena/inference/modal.py</text><text fill="#000000" font-family="Verdana" font-size="13" lengthAdjust="spacing" textLength="238.3162" x="1225" y="497.9433">- src/.../labeling/arena/inference/api.py</text><text fill="#000000" font-family="Verdana" font-size="13" lengthAdjust="spacing" textLength="210.8472" x="1225" y="515.6493">- src/.../labeling/arena/schemas.py</text><text fill="#000000" font-family="Verdana" font-size="13" lengthAdjust="spacing" textLength="3.38" x="1225" y="533.3553">&#160;</text><text fill="#000000" font-family="Verdana" font-size="13" font-weight="bold" lengthAdjust="spacing" textLength="47.749" x="1225" y="551.0613">Scripts:</text><text fill="#000000" font-family="Verdana" font-size="13" lengthAdjust="spacing" textLength="205.9202" x="1225" y="568.7673">- modal/train_siglip2_multitask.py</text><text fill="#000000" font-family="Verdana" font-size="13" lengthAdjust="spacing" textLength="3.38" x="1225" y="586.4733">&#160;</text><text fill="#000000" font-family="Verdana" font-size="13" font-weight="bold" lengthAdjust="spacing" textLength="105.2741" x="1225" y="604.1794">Documentation:</text></g><a href="docs/architecture/diagrams/level-2/pseudo-labeling/index.md" target="_top" title="docs/architecture/diagrams/level-2/pseudo-labeling/index.md" xlink:actuate="onRequest" xlink:href="docs/architecture/diagrams/level-2/pseudo-labeling/index.md" xlink:show="new" xlink:title="docs/architecture/diagrams/level-2/pseudo-labeling/index.md" xlink:type="simple"><text fill="#0000FF" font-family="Verdana" font-size="13" lengthAdjust="spacing" text-decoration="underline" textLength="379.3402" x="1225" y="621.8854">docs/architecture/diagrams/level-2/pseudo-labeling/index.md</text></a><a href="docs/planning/PSEUDO_LABELING_PROJECT_PLAN.md" target="_top" title="docs/planning/PSEUDO_LABELING_PROJECT_PLAN.md" xlink:actuate="onRequest" xlink:href="docs/planning/PSEUDO_LABELING_PROJECT_PLAN.md" xlink:show="new" xlink:title="docs/planning/PSEUDO_LABELING_PROJECT_PLAN.md" xlink:type="simple"><text fill="#0000FF" font-family="Verdana" font-size="13" lengthAdjust="spacing" text-decoration="underline" textLength="330.9673" x="1225" y="639.5914">docs/planning/PSEUDO_LABELING_PROJECT_PLAN.md</text></a><a href="docs/planning/UNIFIED_LABELING_STRATEGY.md" target="_top" title="docs/planning/UNIFIED_LABELING_STRATEGY.md" xlink:actuate="onRequest" xlink:href="docs/planning/UNIFIED_LABELING_STRATEGY.md" xlink:show="new" xlink:title="docs/planning/UNIFIED_LABELING_STRATEGY.md" xlink:type="simple"><text fill="#0000FF" font-family="Verdana" font-size="13" lengthAdjust="spacing" text-decoration="underline" textLength="302.3282" x="1225" y="657.2974">docs/planning/UNIFIED_LABELING_STRATEGY.md</text></a><text fill="#000000" font-family="Verdana" font-size="13" lengthAdjust="spacing" textLength="3.38" x="1225" y="675.0034">&#160;</text><text fill="#000000" font-family="Verdana" font-size="13" font-weight="bold" lengthAdjust="spacing" textLength="30.875" x="1225" y="692.7094">ADR:</text><a href="docs/ADRs/0028-resnet-teacher-student-architecture.md" target="_top" title="docs/ADRs/0028-resnet-teacher-student-architecture.md" xlink:actuate="onRequest" xlink:href="docs/ADRs/0028-resnet-teacher-student-architecture.md" xlink:show="new" xlink:title="docs/ADRs/0028-resnet-teacher-student-architecture.md" xlink:type="simple"><text fill="#0000FF" font-family="Verdana" font-size="13" lengthAdjust="spacing" text-decoration="underline" textLength="346.5023" x="1225" y="710.4155">docs/ADRs/0028-resnet-teacher-student-architecture.md</text></a><!--link InputBucket to Scheduler--><g id="link_InputBucket_Scheduler"><path d="M310,159.0082 C310,201.2882 310,267.6782 310,301.7082 " fill="none" id="InputBucket-to-Scheduler" style="stroke:#000000;stroke-width:1;"/><polygon fill="#000000" points="310,307.7082,314,298.7082,310,302.7082,306,298.7082,310,307.7082" style="stroke:#000000;stroke-width:1;"/><text fill="#000000" font-family="Verdana" font-size="13" lengthAdjust="spacing" textLength="98.1631" x="311" y="203.8252">Batch of images</text></g><!--link Scheduler to JobQueue--><g id="link_Scheduler_JobQueue"><path d="M307.94,347.3082 C306.99,356.2782 305.88,367.1482 305,376.9282 C298.89,444.7282 293.5445,519.9825 291.3445,551.7525 " fill="none" id="Scheduler-to-JobQueue" style="stroke:#000000;stroke-width:1;"/><polygon fill="#000000" points="290.93,557.7382,295.5422,549.036,291.2754,552.7501,287.5613,548.4834,290.93,557.7382" style="stroke:#000000;stroke-width:1;"/><text fill="#000000" font-family="Verdana" font-size="13" lengthAdjust="spacing" textLength="89.3621" x="306" y="391.8252">Distribute jobs</text></g><!--link JobQueue to MUSIQ_Inf--><g id="link_JobQueue_MUSIQ_Inf"><path d="M292.07,587.0782 C298.17,622.4882 319.42,718.0082 377,767.9282 C386.78,776.4082 395.02,767.6882 405,775.9282 C441.53,806.0782 459.98,853.4153 469.43,886.0253 " fill="none" id="JobQueue-to-MUSIQ_Inf" style="stroke:#000000;stroke-width:1;"/><polygon fill="#000000" points="471.1,891.7882,472.4369,882.0305,469.7083,886.9858,464.753,884.2572,471.1,891.7882" style="stroke:#000000;stroke-width:1;"/><text fill="#000000" font-family="Verdana" font-size="13" lengthAdjust="spacing" textLength="76.8171" x="378" y="763.8252">Image batch</text></g><!--link JobQueue to QualiCLIP_Inf--><g id="link_JobQueue_QualiCLIP_Inf"><path d="M283.29,587.1882 C268.6,619.1082 236.11,700.6182 252,767.9282 C262.91,814.1582 286.9382,857.2966 305.6582,886.7066 " fill="none" id="JobQueue-to-QualiCLIP_Inf" style="stroke:#000000;stroke-width:1;"/><polygon fill="#000000" points="308.88,891.7682,307.4217,882.0279,306.1952,887.5502,300.6729,886.3237,308.88,891.7682" style="stroke:#000000;stroke-width:1;"/><text fill="#000000" font-family="Verdana" font-size="13" lengthAdjust="spacing" textLength="76.8171" x="253" y="763.8252">Image batch</text></g><!--link JobQueue to DocIQ_Inf--><g id="link_JobQueue_DocIQ_Inf"><path d="M292.98,587.3182 C299.88,616.1682 319.74,682.9182 362,718.9282 C396.35,748.1882 416.74,733.1182 459,748.9282 C478.57,756.2482 481.99,761.9082 502,767.9282 C522.29,774.0382 531.2,764.4382 549,775.9282 C592.18,803.8082 618.4997,852.9162 632.8497,886.2862 " fill="none" id="JobQueue-to-DocIQ_Inf" style="stroke:#000000;stroke-width:1;"/><polygon fill="#000000" points="635.22,891.7982,635.3392,881.9501,633.2448,887.2049,627.9899,885.1105,635.22,891.7982" style="stroke:#000000;stroke-width:1;"/><text fill="#000000" font-family="Verdana" font-size="13" lengthAdjust="spacing" textLength="123.6301" x="503" y="763.8252">Image + mask batch</text></g><!--link JobQueue to Qwen_Inf--><g id="link_JobQueue_Qwen_Inf"><path d="M292.19,587.2082 C297.76,617.0782 315.44,687.6482 362,718.9282 C454.83,781.2882 777.46,702.7282 862,775.9282 C897.51,806.6682 915.3916,853.5562 924.5916,885.9662 " fill="none" id="JobQueue-to-Qwen_Inf" style="stroke:#000000;stroke-width:1;"/><polygon fill="#000000" points="926.23,891.7382,927.6203,881.988,924.8646,886.9282,919.9244,884.1726,926.23,891.7382" style="stroke:#000000;stroke-width:1;"/><text fill="#000000" font-family="Verdana" font-size="13" lengthAdjust="spacing" textLength="99.4501" x="851" y="763.8252">Image + prompt</text></g><!--link JobQueue to InternVL_Inf--><g id="link_JobQueue_InternVL_Inf"><path d="M292.29,587.0682 C298.04,616.6782 316.07,686.7482 362,718.9282 C411.26,753.4382 572.93,733.2582 631,748.9282 C651.17,754.3682 653.99,761.9082 674,767.9282 C694.29,774.0382 704.05,763.2182 721,775.9282 C758.81,804.2782 775.8416,852.6507 783.9816,885.8607 " fill="none" id="JobQueue-to-InternVL_Inf" style="stroke:#000000;stroke-width:1;"/><polygon fill="#000000" points="785.41,891.6882,787.1525,881.9947,784.2197,886.832,779.3825,883.8992,785.41,891.6882" style="stroke:#000000;stroke-width:1;"/><text fill="#000000" font-family="Verdana" font-size="13" lengthAdjust="spacing" textLength="99.4501" x="675" y="763.8252">Image + prompt</text></g><!--link MaskCache to DocIQ_Inf--><g id="link_MaskCache_DocIQ_Inf"><path d="M77.04,606.0982 C69.79,650.1882 64.99,727.7982 110,767.9282 C128.21,784.1582 527.57,764.2782 549,775.9282 C594.68,800.7682 620.645,851.9341 634.155,886.3041 " fill="none" id="MaskCache-to-DocIQ_Inf" style="stroke:#000000;stroke-width:1;"/><polygon fill="#000000" points="636.35,891.8882,636.7803,882.0487,634.5209,887.2348,629.3348,884.9754,636.35,891.8882" style="stroke:#000000;stroke-width:1;"/><text fill="#000000" font-family="Verdana" font-size="13" lengthAdjust="spacing" textLength="129.2851" x="111" y="763.8252">Pre-computed masks</text></g><!--link MUSIQ_Inf to Aggregator--><g id="link_MUSIQ_Inf_Aggregator"><path d="M488.34,891.7182 C502.17,858.2582 530.05,803.5582 573,775.9282 C592.3,763.5182 609.09,785.3682 624,767.9282 C629.49,761.5082 628.22,756.2382 624,748.9282 C610.66,725.8282 587.95,740.3182 572,718.9282 C526.49,657.8882 491.7296,422.5133 482.2796,353.1233 " fill="none" id="MUSIQ_Inf-to-Aggregator" style="stroke:#000000;stroke-width:1;"/><polygon fill="#000000" points="481.47,347.1782,478.7211,356.6357,482.1447,352.1325,486.6479,355.5561,481.47,347.1782" style="stroke:#000000;stroke-width:1;"/><text fill="#000000" font-family="Verdana" font-size="13" lengthAdjust="spacing" textLength="68.4581" x="573" y="577.8252">predictions</text></g><!--link QualiCLIP_Inf to Aggregator--><g id="link_QualiCLIP_Inf_Aggregator"><path d="M334.9,891.9182 C344.65,858.6682 365.78,804.1782 405,775.9282 C422.19,763.5482 438.33,784.1182 452,767.9282 C457.45,761.4782 455.63,756.5482 452,748.9282 C442.89,729.8182 424.11,738.0382 415,718.9282 C358.97,601.3782 377.71,550.6982 415,425.9282 C424.1,395.4682 442.2298,370.2747 457.8898,351.8047 " fill="none" id="QualiCLIP_Inf-to-Aggregator" style="stroke:#000000;stroke-width:1;"/><polygon fill="#000000" points="461.77,347.2282,452.8987,351.5061,458.5365,351.0419,459.0007,356.6797,461.77,347.2282" style="stroke:#000000;stroke-width:1;"/><text fill="#000000" font-family="Verdana" font-size="13" lengthAdjust="spacing" textLength="68.4581" x="416" y="577.8252">predictions</text></g><!--link DocIQ_Inf to Aggregator--><g id="link_DocIQ_Inf_Aggregator"><path d="M652.45,891.8582 C661.66,858.5382 681.97,803.9782 721,775.9282 C739.63,762.5382 757.09,785.3682 772,767.9282 C777.49,761.5082 776.44,756.1082 772,748.9282 C756.33,723.5682 730.38,742.3982 712,718.9282 C629.7,613.8382 724.85,533.6382 646,425.9282 C618.24,388.0082 576.4327,364.6957 539.2327,349.2757 " fill="none" id="DocIQ_Inf-to-Aggregator" style="stroke:#000000;stroke-width:1;"/><polygon fill="#000000" points="533.69,346.9782,540.4723,354.1196,538.3089,348.8928,543.5357,346.7294,533.69,346.9782" style="stroke:#000000;stroke-width:1;"/><text fill="#000000" font-family="Verdana" font-size="13" lengthAdjust="spacing" textLength="68.4581" x="713" y="577.8252">predictions</text></g><!--link Qwen_Inf to Aggregator--><g id="link_Qwen_Inf_Aggregator"><path d="M936.83,891.8982 C948.99,798.3782 982.67,498.7982 926,425.9282 C880.47,367.3782 669.4704,342.8532 555.4204,333.6032 " fill="none" id="Qwen_Inf-to-Aggregator" style="stroke:#000000;stroke-width:1;"/><polygon fill="#000000" points="549.44,333.1182,558.0872,337.8327,554.4236,333.5224,558.7339,329.8588,549.44,333.1182" style="stroke:#000000;stroke-width:1;"/><text fill="#000000" font-family="Verdana" font-size="13" lengthAdjust="spacing" textLength="68.4581" x="958" y="577.8252">predictions</text></g><!--link InternVL_Inf to Aggregator--><g id="link_InternVL_Inf_Aggregator"><path d="M796.57,891.7782 C804.76,858.3782 823.46,803.7282 862,775.9282 C883.1,760.7082 902.9,787.5482 920,767.9282 C925.55,761.5582 924.61,755.9982 920,748.9282 C901.96,721.2582 872.99,744.4382 852,718.9282 C767.19,615.8482 876.25,524.2882 786,425.9282 C725.13,359.5882 625.372,338.7067 555.282,331.9167 " fill="none" id="InternVL_Inf-to-Aggregator" style="stroke:#000000;stroke-width:1;"/><polygon fill="#000000" points="549.31,331.3382,557.8824,336.1874,554.2867,331.8203,558.6538,328.2247,549.31,331.3382" style="stroke:#000000;stroke-width:1;"/><text fill="#000000" font-family="Verdana" font-size="13" lengthAdjust="spacing" textLength="68.4581" x="853" y="577.8252">predictions</text></g><!--link Aggregator to OutputBucket--><g id="link_Aggregator_OutputBucket"><path d="M549.13,330.8582 C666.65,335.6782 897.97,348.5182 974,376.9282 C1047.04,404.2182 1091.0317,485.074 1111.8417,533.034 " fill="none" id="Aggregator-to-OutputBucket" style="stroke:#000000;stroke-width:1;"/><polygon fill="#000000" points="1114.23,538.5382,1114.317,528.6897,1112.2398,533.9514,1106.9781,531.8741,1114.23,538.5382" style="stroke:#000000;stroke-width:1;"/><text fill="#000000" font-family="Verdana" font-size="13" lengthAdjust="spacing" textLength="119.1581" x="1009" y="391.8252">Pseudo-labels JSON</text></g><!--SRC=[jPPTRzis58RlzIkuxc9R2bbkYc91W0sGFs8ei6N5iWiCRM7GqgdCXIOraaeR5FtlEwHiMMfSRnUfSn6JV5xo79uF-YUpXHsGabCcF7tFH4aLtP4DpUuB9IkH3oMNYlnyCxP_BIAJkr8A42OrZno8WinGKN3mFCCCJeoYkv0a6gfS-bEw0Sv4GIBn4HI834Z2IZi5xyM0ccnB4YKpqDf2Drn-yhnVo1_F-C7jXlDPCe_7yH9D2oUBS7RTCYTKsPOPzA5IyDn7UoLU9Ys0l9Z9d7AIWde0nT5RQu2YsgZA7Vo2K4rgveld4TBe9icA959o1-30VaU4u4V8787mLN-2csaC0TxYU_7hKg6MX8IpOcj-Sph7r29oZ1uQjKgZEvHS_ZuZBhIwvjty6YryAhchA6V3QPIWxDMRVbVNB3RQhrxNrBv_rPyCJjgx1VhmI5wIUZneBE-Vidmai-ZENq39MKQj1szcADrHVRytnG7VSU4JYDV-swb_DK3brQ3h0YwUbaN2W19lfwzFwWwhBS_ttZUXd6EY0KQS6YQ54tLczcwsJgpB8qKchpWe9sb6ty8Bq1Kt92mA1GKriiQFGyV_Kq65bjpA3SOAlpe6HsxW3Fxw0yelYfFLCfYlblZlsIiifuPkg0OReB8o9DhXPTkycWnJCgYoUp272E5oFT4IJUcZHDKCCuSCALvkhTpN0SwwoPPWNXbxZEjhkWtN2_i3VaGFY-FnS1dDu_JPxx1rDSJt_pmc6RacTHBAZuIvY_MEQvOyv0w28uQPp3QL0VAtt6ZFQzOisBGK95s8y9t1ZRjGft-S0vlgRg2w-4zkkg_e5begh1lJnTe5_1JrcbHuSdwYmBTrY8xdTGT2kl7MqiSYHBnKaBFC5hpsklwUHOyddj_nuEnPgkFhMT9hhLYmdUJMz_gHvwuOo6qwZprFICm0PHyVR2WN5wciL0RN5nSuyebMMT3hzGA-_raGK7o4QQ0g8K3roiTp43iysS7EFfJ_cwOb-mzMOrmnSfQgRSuKAuq-6EsE2x1DCx7MhE2il5pliDaoWz5kH1YXQeUjs3NpMlhkNIupZOSSVs44EQE5VJO23W_0_SkWRDsXDOc973xtTlc73ySTy3UQ47OnISUhqNmz3GVZQHHFribYVejTOPrCm_XxcbKStKJZqL6KBXVXSZpvgnOuuyFHecCoZdNGxrzU-Ggq0ECRiCclV6sg79tqspxL-u38YOszzoy0]--></g></svg>
