<svg xmlns="http://www.w3.org/2000/svg" xmlns:xlink="http://www.w3.org/1999/xlink" contentStyleType="text/css" height="2310px" preserveAspectRatio="none" style="width:2535px;height:2310px;background:#FEFEFE;" version="1.1" viewBox="0 0 2535 2310" width="2535px" zoomAndPan="magnify"><title>Foundry RAG Pipeline - Multi-Track Architecture</title><defs/><g><rect fill="#FEFEFE" height="2310" style="stroke:none;stroke-width:1;" width="2535" x="0" y="0"/><text fill="#000000" font-family="Verdana" font-size="22" font-weight="bold" lengthAdjust="spacing" textLength="525.3838" x="1000.3081" y="38.5181">Foundry RAG Pipeline - Multi-Track Architecture</text><text fill="#000000" font-family="Verdana" font-size="22" font-weight="bold" lengthAdjust="spacing" textLength="627.332" x="949.334" y="68.4822">Level 0: Pipeline Context (Cloud Workflows Orchestrated)</text><!--cluster Ingest--><g id="cluster_Ingest"><rect fill="#FFEBEE" height="306" rx="2.5" ry="2.5" style="stroke:#000000;stroke-width:1;" width="1365" x="390" y="285.9195"/><text fill="#000000" font-family="Verdana" font-size="14" font-weight="bold" lengthAdjust="spacing" textLength="161.7554" x="991.6223" y="302.8855">Ingest (foundry-ingest)</text><text fill="#008000" font-family="Verdana" font-size="10" font-weight="bold" lengthAdjust="spacing" textLength="43.0782" x="1050.9609" y="317.6774">&#9632; Active</text><text fill="#000000" font-family="Verdana" font-size="10" font-weight="bold" lengthAdjust="spacing" textLength="215.6198" x="964.6901" y="331.2974">POST /process | GET /status | 1000+ files/hr</text></g><!--cluster NativeText--><g id="cluster_NativeText"><rect fill="#FFFFFF" height="150" rx="2.5" ry="2.5" style="stroke:#000000;stroke-width:1;" width="304" x="481" y="401.9195"/><polygon fill="#FFFFFF" points="768,406.9195,768,420.9195,780,420.9195,780,412.9195,774,406.9195,768,406.9195" style="stroke:#000000;stroke-width:1;"/><line style="stroke:#000000;stroke-width:1;" x1="774" x2="774" y1="406.9195" y2="412.9195"/><line style="stroke:#000000;stroke-width:1;" x1="780" x2="774" y1="412.9195" y2="412.9195"/><text fill="#000000" font-family="Verdana" font-size="14" font-weight="bold" lengthAdjust="spacing" textLength="123.0455" x="571.4772" y="418.8855">Native Text Track</text></g><!--cluster ImageTrack--><g id="cluster_ImageTrack"><rect fill="#FFFFFF" height="150" rx="2.5" ry="2.5" style="stroke:#000000;stroke-width:1;" width="236" x="843" y="401.9195"/><polygon fill="#FFFFFF" points="1062,406.9195,1062,420.9195,1074,420.9195,1074,412.9195,1068,406.9195,1062,406.9195" style="stroke:#000000;stroke-width:1;"/><line style="stroke:#000000;stroke-width:1;" x1="1068" x2="1068" y1="406.9195" y2="412.9195"/><line style="stroke:#000000;stroke-width:1;" x1="1074" x2="1068" y1="412.9195" y2="412.9195"/><text fill="#000000" font-family="Verdana" font-size="14" font-weight="bold" lengthAdjust="spacing" textLength="87.2197" x="917.3902" y="418.8855">Image Track</text></g><!--cluster PDFTrack--><g id="cluster_PDFTrack"><rect fill="#FFFFFF" height="143" rx="2.5" ry="2.5" style="stroke:#000000;stroke-width:1;" width="274" x="1137" y="405.4195"/><polygon fill="#FFFFFF" points="1394,410.4195,1394,424.4195,1406,424.4195,1406,416.4195,1400,410.4195,1394,410.4195" style="stroke:#000000;stroke-width:1;"/><line style="stroke:#000000;stroke-width:1;" x1="1400" x2="1400" y1="410.4195" y2="416.4195"/><line style="stroke:#000000;stroke-width:1;" x1="1406" x2="1400" y1="416.4195" y2="416.4195"/><text fill="#000000" font-family="Verdana" font-size="14" font-weight="bold" lengthAdjust="spacing" textLength="69.2717" x="1239.3641" y="422.3855">PDF Track</text></g><!--cluster AudioSources--><g id="cluster_AudioSources"><rect fill="#FFFFFF" height="150" rx="2.5" ry="2.5" style="stroke:#000000;stroke-width:1;" width="246" x="1469" y="401.9195"/><polygon fill="#FFFFFF" points="1698,406.9195,1698,420.9195,1710,420.9195,1710,412.9195,1704,406.9195,1698,406.9195" style="stroke:#000000;stroke-width:1;"/><line style="stroke:#000000;stroke-width:1;" x1="1704" x2="1704" y1="406.9195" y2="412.9195"/><line style="stroke:#000000;stroke-width:1;" x1="1710" x2="1704" y1="412.9195" y2="412.9195"/><text fill="#000000" font-family="Verdana" font-size="14" font-weight="bold" lengthAdjust="spacing" textLength="83.0897" x="1550.4552" y="418.8855">Audio Track</text></g><!--cluster Stage0Router--><g id="cluster_Stage0Router"><rect fill="#FFF9C4" height="197" rx="2.5" ry="2.5" style="stroke:#000000;stroke-width:1;" width="620" x="712" y="640.9195"/><text fill="#000000" font-family="Verdana" font-size="14" font-weight="bold" lengthAdjust="spacing" textLength="233.3231" x="905.3385" y="657.8855">Stage 0 &#8212; Document Type Router</text><text fill="#FFA500" font-family="Verdana" font-size="10" font-weight="bold" lengthAdjust="spacing" textLength="52.0755" x="995.9622" y="672.6774">&#9680; Planned</text><text fill="#000000" font-family="Verdana" font-size="10" font-weight="bold" lengthAdjust="spacing" textLength="351.2096" x="846.3952" y="686.2974">Format detect &#183; PDF sub-classify &#183; Text-layer validity check &#183; &lt;20ms CPU</text></g><!--cluster FastPath--><g id="cluster_FastPath"><rect fill="#E8F0FE" height="273" rx="2.5" ry="2.5" style="stroke:#000000;stroke-width:1;" width="298" x="1355" y="970.9195"/><text fill="#000000" font-family="Verdana" font-size="14" font-weight="bold" lengthAdjust="spacing" textLength="65.3377" x="1471.3311" y="987.8855">Fast Path</text><text fill="#008000" font-family="Verdana" font-size="10" font-weight="bold" lengthAdjust="spacing" textLength="119.0981" x="1444.4509" y="1002.6774">&#9632; Active (pass-through)</text><text fill="#000000" font-family="Verdana" font-size="10" font-weight="bold" lengthAdjust="spacing" textLength="152.8298" x="1427.5851" y="1016.2974">Native text + born-digital PDFs</text><text fill="#000000" font-family="Verdana" font-size="14" font-weight="bold" lengthAdjust="spacing" textLength="282.253" x="1362.8735" y="1034.1934">No image preprocessing required&lt;/size&gt;</text></g><!--cluster PrepareDoc--><g id="cluster_PrepareDoc"><rect fill="#E8F5E9" height="570" rx="2.5" ry="2.5" style="stroke:#000000;stroke-width:1;" width="716" x="12" y="1027.9195"/><text fill="#000000" font-family="Verdana" font-size="14" font-weight="bold" lengthAdjust="spacing" textLength="244.0751" x="247.9625" y="1044.8855">Prepare-Doc (foundry-prepare-doc)</text><text fill="#008000" font-family="Verdana" font-size="10" font-weight="bold" lengthAdjust="spacing" textLength="43.0782" x="348.4609" y="1059.6774">&#9632; Active</text><text fill="#000000" font-family="Verdana" font-size="10" font-weight="bold" lengthAdjust="spacing" textLength="243.0297" x="248.4851" y="1073.2974">Images + scanned/hybrid PDFs &#183; ~55ms GPU total</text></g><!--cluster PrepareAudio--><g id="cluster_PrepareAudio"><rect fill="#E8F5E9" height="564" rx="2.5" ry="2.5" style="stroke:#000000;stroke-width:1;" width="496" x="786" y="1033.9195"/><text fill="#000000" font-family="Verdana" font-size="14" font-weight="bold" lengthAdjust="spacing" textLength="273.2369" x="897.3815" y="1050.8855">Prepare-Audio (foundry-prepare-audio)</text><text fill="#008000" font-family="Verdana" font-size="10" font-weight="bold" lengthAdjust="spacing" textLength="43.0782" x="1012.4609" y="1065.6774">&#9632; Active</text><text fill="#000000" font-family="Verdana" font-size="10" font-weight="bold" lengthAdjust="spacing" textLength="122.7698" x="972.6151" y="1079.2974">&lt;1 min per hour of audio</text></g><!--cluster Unify--><g id="cluster_Unify"><rect fill="#E0E0E0" height="587.5" rx="2.5" ry="2.5" style="stroke:#000000;stroke-width:1;" width="828" x="1701" y="1350.9195"/><text fill="#000000" font-family="Verdana" font-size="14" font-weight="bold" lengthAdjust="spacing" textLength="146.7895" x="2041.6053" y="1367.8855">Unify (foundry-unify)</text><text fill="#808080" font-family="Verdana" font-size="10" font-weight="bold" lengthAdjust="spacing" textLength="88.6855" x="2070.6573" y="1382.6774">&#9675; Not Yet Started</text><text fill="#000000" font-family="Verdana" font-size="10" font-weight="bold" lengthAdjust="spacing" textLength="220.3998" x="2004.8001" y="1396.2974">Multi-engine OCR | Docling DOM unification</text></g><!--cluster OCRLayer--><g id="cluster_OCRLayer"><rect fill="#FFFFFF" height="431.5" rx="2.5" ry="2.5" style="stroke:#000000;stroke-width:1;" width="476" x="2013" y="1466.9195"/><text fill="#000000" font-family="Verdana" font-size="14" font-weight="bold" lengthAdjust="spacing" textLength="131.1655" x="2185.4173" y="1483.8855">OCR Orchestration</text></g><!--cluster Chunk--><g id="cluster_Chunk"><rect fill="#E0E0E0" height="383" rx="2.5" ry="2.5" style="stroke:#000000;stroke-width:1;" width="434" x="749" y="1713.4195"/><text fill="#000000" font-family="Verdana" font-size="14" font-weight="bold" lengthAdjust="spacing" textLength="161.9654" x="885.0173" y="1730.3855">Chunk (foundry-chunk)</text><text fill="#808080" font-family="Verdana" font-size="10" font-weight="bold" lengthAdjust="spacing" textLength="88.6855" x="921.6573" y="1745.1774">&#9675; Not Yet Started</text><text fill="#000000" font-family="Verdana" font-size="10" font-weight="bold" lengthAdjust="spacing" textLength="197.3598" x="867.3201" y="1758.7974">Identical chunking for all content types</text></g><!--cluster Embed--><g id="cluster_Embed"><rect fill="#E0E0E0" height="387.5" rx="2.5" ry="2.5" style="stroke:#000000;stroke-width:1;" width="424" x="266" y="1708.9195"/><text fill="#000000" font-family="Verdana" font-size="14" font-weight="bold" lengthAdjust="spacing" textLength="168.9094" x="393.5453" y="1725.8855">Embed (foundry-embed)</text><text fill="#808080" font-family="Verdana" font-size="10" font-weight="bold" lengthAdjust="spacing" textLength="88.6855" x="433.6573" y="1740.6774">&#9675; Not Yet Started</text><text fill="#000000" font-family="Verdana" font-size="10" font-weight="bold" lengthAdjust="spacing" textLength="159.1498" x="398.4251" y="1754.2974">Output: RAG-ready collection ID</text></g><!--entity DOCX, HTML, MD, LaTeX\nCSV, XML, EPUB, VTT--><g id="elem_DOCX, HTML, MD, LaTeX\nCSV, XML, EPUB, VTT"><path d="M579.5,472.4195 L579.5,525.5554 A2.5,2.5 0 0 0 582,528.0554 L757.5653,528.0554 A2.5,2.5 0 0 0 760.0653,525.5554 L760.0653,479.9195 L750.0653,469.9195 L582,469.9195 A2.5,2.5 0 0 0 579.5,472.4195 " fill="#FFFFFF" style="stroke:#000000;stroke-width:1;"/><path d="M750.0653,469.9195 L750.0653,477.4195 A2.5,2.5 0 0 0 752.5653,479.9195 L760.0653,479.9195 " fill="#FFFFFF" style="stroke:#000000;stroke-width:1;"/><text fill="#000000" font-family="Verdana" font-size="14" lengthAdjust="spacing" textLength="160.5653" x="589.5" y="494.8855">DOCX, HTML, MD, LaTeX</text><text fill="#000000" font-family="Verdana" font-size="14" lengthAdjust="spacing" textLength="134.9034" x="589.5" y="513.9534">CSV, XML, EPUB, VTT</text></g><!--entity JPG, PNG, TIFF\nWebP, BMP--><g id="elem_JPG, PNG, TIFF\nWebP, BMP"><path d="M941,472.4195 L941,525.5554 A2.5,2.5 0 0 0 943.5,528.0554 L1052.1316,528.0554 A2.5,2.5 0 0 0 1054.6316,525.5554 L1054.6316,479.9195 L1044.6316,469.9195 L943.5,469.9195 A2.5,2.5 0 0 0 941,472.4195 " fill="#FFFFFF" style="stroke:#000000;stroke-width:1;"/><path d="M1044.6316,469.9195 L1044.6316,477.4195 A2.5,2.5 0 0 0 1047.1316,479.9195 L1054.6316,479.9195 " fill="#FFFFFF" style="stroke:#000000;stroke-width:1;"/><text fill="#000000" font-family="Verdana" font-size="14" lengthAdjust="spacing" textLength="93.6316" x="951" y="494.8855">JPG, PNG, TIFF</text><text fill="#000000" font-family="Verdana" font-size="14" lengthAdjust="spacing" textLength="75.6557" x="951" y="513.9534">WebP, BMP</text></g><!--entity PDF (all variants)\n<size:9>born-digital | scanned | hybrid</size>--><g id="elem_PDF (all variants)\n&lt;size:9&gt;born-digital | scanned | hybrid&lt;/size&gt;"><path d="M1235.5,475.9195 L1235.5,522.2455 A2.5,2.5 0 0 0 1238,524.7455 L1384.4459,524.7455 A2.5,2.5 0 0 0 1386.9459,522.2455 L1386.9459,483.4195 L1376.9459,473.4195 L1238,473.4195 A2.5,2.5 0 0 0 1235.5,475.9195 " fill="#FFFFFF" style="stroke:#000000;stroke-width:1;"/><path d="M1376.9459,473.4195 L1376.9459,480.9195 A2.5,2.5 0 0 0 1379.4459,483.4195 L1386.9459,483.4195 " fill="#FFFFFF" style="stroke:#000000;stroke-width:1;"/><text fill="#000000" font-family="Verdana" font-size="14" lengthAdjust="spacing" textLength="109.3396" x="1245.5" y="498.3855">PDF (all variants)</text><text fill="#000000" font-family="Verdana" font-size="9" lengthAdjust="spacing" textLength="131.4459" x="1245.5" y="512.1085">born-digital | scanned | hybrid</text></g><!--entity WAV, MP3, MP4\nAudio / Video--><g id="elem_WAV, MP3, MP4\nAudio / Video"><path d="M1567,472.4195 L1567,525.5554 A2.5,2.5 0 0 0 1569.5,528.0554 L1688.0016,528.0554 A2.5,2.5 0 0 0 1690.5016,525.5554 L1690.5016,479.9195 L1680.5016,469.9195 L1569.5,469.9195 A2.5,2.5 0 0 0 1567,472.4195 " fill="#FFFFFF" style="stroke:#000000;stroke-width:1;"/><path d="M1680.5016,469.9195 L1680.5016,477.4195 A2.5,2.5 0 0 0 1683.0016,479.9195 L1690.5016,479.9195 " fill="#FFFFFF" style="stroke:#000000;stroke-width:1;"/><text fill="#000000" font-family="Verdana" font-size="14" lengthAdjust="spacing" textLength="103.5016" x="1577" y="494.8855">WAV, MP3, MP4</text><text fill="#000000" font-family="Verdana" font-size="14" lengthAdjust="spacing" textLength="87.7657" x="1577" y="513.9534">Audio / Video</text></g><!--entity FormatDet--><g id="elem_FormatDet"><rect fill="#FFFFFF" height="51.326" rx="2.5" ry="2.5" style="stroke:#000000;stroke-width:1;" width="150.1859" x="1158" y="762.9195"/><text fill="#000000" font-family="Verdana" font-size="14" lengthAdjust="spacing" textLength="108.2476" x="1168" y="787.8855">Format Detector</text><text fill="#000000" font-family="Verdana" font-size="9" lengthAdjust="spacing" textLength="130.1859" x="1168" y="801.6085">MIME type + content signature</text></g><!--entity PDFClass--><g id="elem_PDFClass"><rect fill="#FFFFFF" height="51.326" rx="2.5" ry="2.5" style="stroke:#000000;stroke-width:1;" width="257.8267" x="810" y="762.9195"/><text fill="#000000" font-family="Verdana" font-size="14" lengthAdjust="spacing" textLength="118.4955" x="820" y="787.8855">PDF Sub-Classifier</text><text fill="#000000" font-family="Verdana" font-size="9" lengthAdjust="spacing" textLength="237.8267" x="820" y="801.6085">born_digital | scanned | hybrid | born_digital_degraded</text></g><!--entity PassThru--><g id="elem_PassThru"><rect fill="#FFFFFF" height="89.4618" rx="2.5" ry="2.5" style="stroke:#000000;stroke-width:1;" width="172.5994" x="1455.5" y="1130.9195"/><text fill="#000000" font-family="Verdana" font-size="14" lengthAdjust="spacing" textLength="90.8457" x="1465.5" y="1155.8855">Pass-Through</text><text fill="#000000" font-family="Verdana" font-size="9" lengthAdjust="spacing" textLength="110.2417" x="1465.5" y="1169.6085">DOCX &#183; HTML &#183; MD &#183; LaTeX</text><text fill="#000000" font-family="Verdana" font-size="14" lengthAdjust="spacing" textLength="145.8234" x="1465.5" y="1187.2115">CSV &#183; XML &#183; EPUB &#183; VTT</text><text fill="#000000" font-family="Verdana" font-size="14" lengthAdjust="spacing" textLength="152.5994" x="1465.5" y="1206.2794">born-digital PDF&lt;/size&gt;</text></g><!--entity Stage1--><g id="elem_Stage1"><rect fill="#FFFFFF" height="51.326" rx="2.5" ry="2.5" style="stroke:#000000;stroke-width:1;" width="244.2276" x="36" y="1149.9195"/><text fill="#000000" font-family="Verdana" font-size="14" lengthAdjust="spacing" textLength="186.7173" x="46" y="1174.8855">Stage 1: Pre-Correction Gate</text><text fill="#000000" font-family="Verdana" font-size="9" lengthAdjust="spacing" textLength="224.2276" x="46" y="1188.6085">MobileNetV4 ~3ms | Orientation | Skew | Resolution</text></g><!--entity Stage2--><g id="elem_Stage2"><rect fill="#FFFFFF" height="51.326" rx="2.5" ry="2.5" style="stroke:#000000;stroke-width:1;" width="258.7987" x="370.5" y="1149.9195"/><text fill="#000000" font-family="Verdana" font-size="14" lengthAdjust="spacing" textLength="180.9633" x="380.5" y="1174.8855">Stage 2: Multi-Task Analysis</text><text fill="#000000" font-family="Verdana" font-size="9" lengthAdjust="spacing" textLength="238.7987" x="380.5" y="1188.6085">SigLIP 2 ~50ms | IQA | Script | Handwriting | Page Attrs</text></g><!--entity DQS--><g id="elem_DQS"><rect fill="#FFFFFF" height="39.0679" rx="2.5" ry="2.5" style="stroke:#000000;stroke-width:1;" width="184.6394" x="350.5" y="1534.9195"/><text fill="#000000" font-family="Verdana" font-size="14" lengthAdjust="spacing" textLength="164.6394" x="360.5" y="1559.8855">DQS &amp; Routing Metadata</text></g><!--entity FFmpeg--><g id="elem_FFmpeg"><rect fill="#FFFFFF" height="39.0679" rx="2.5" ry="2.5" style="stroke:#000000;stroke-width:1;" width="142.7655" x="810.5" y="1155.9195"/><text fill="#000000" font-family="Verdana" font-size="14" lengthAdjust="spacing" textLength="122.7655" x="820.5" y="1180.8855">FFmpeg Extraction</text></g><!--entity Deepgram--><g id="elem_Deepgram"><rect fill="#FFFFFF" height="39.0679" rx="2.5" ry="2.5" style="stroke:#000000;stroke-width:1;" width="140.1895" x="1044" y="1155.9195"/><text fill="#000000" font-family="Verdana" font-size="14" lengthAdjust="spacing" textLength="120.1895" x="1054" y="1180.8855">Deepgram Nova-2</text></g><!--entity Diarize--><g id="elem_Diarize"><rect fill="#FFFFFF" height="39.0679" rx="2.5" ry="2.5" style="stroke:#000000;stroke-width:1;" width="91.3017" x="836.5" y="1534.9195"/><text fill="#000000" font-family="Verdana" font-size="14" lengthAdjust="spacing" textLength="71.3017" x="846.5" y="1559.8855">Diarization</text></g><!--entity DoclingDOM--><g id="elem_DoclingDOM"><path d="M1799.5,1530.9195 C1799.5,1520.9195 1865.1848,1520.9195 1865.1848,1520.9195 C1865.1848,1520.9195 1930.8696,1520.9195 1930.8696,1530.9195 L1930.8696,1578.0554 C1930.8696,1588.0554 1865.1848,1588.0554 1865.1848,1588.0554 C1865.1848,1588.0554 1799.5,1588.0554 1799.5,1578.0554 L1799.5,1530.9195 " fill="#FFFFFF" style="stroke:#000000;stroke-width:1;"/><path d="M1799.5,1530.9195 C1799.5,1540.9195 1865.1848,1540.9195 1865.1848,1540.9195 C1865.1848,1540.9195 1930.8696,1540.9195 1930.8696,1530.9195 " fill="none" style="stroke:#000000;stroke-width:1;"/><text fill="#000000" font-family="Verdana" font-size="14" lengthAdjust="spacing" textLength="87.3876" x="1809.5" y="1559.8855">Docling DOM</text><text fill="#000000" font-family="Verdana" font-size="14" lengthAdjust="spacing" textLength="111.3696" x="1809.5" y="1578.9534">(Unified Schema)</text></g><!--entity OCR--><g id="elem_OCR"><rect fill="#FFFFFF" height="39.0679" rx="2.5" ry="2.5" style="stroke:#000000;stroke-width:1;" width="135.4715" x="2111.5" y="1534.9195"/><text fill="#000000" font-family="Verdana" font-size="14" lengthAdjust="spacing" textLength="115.4715" x="2121.5" y="1559.8855">Multi-Engine OCR</text></g><!--entity EngineSelect--><g id="elem_EngineSelect"><rect fill="#FFFFFF" height="39.0679" rx="2.5" ry="2.5" style="stroke:#000000;stroke-width:1;" width="128.4436" x="2337" y="1534.9195"/><text fill="#000000" font-family="Verdana" font-size="14" lengthAdjust="spacing" textLength="108.4436" x="2347" y="1559.8855">Engine Selection</text></g><!--entity ResultFusion--><g id="elem_ResultFusion"><rect fill="#FFFFFF" height="39.0679" rx="2.5" ry="2.5" style="stroke:#000000;stroke-width:1;" width="107.6257" x="2125" y="1835.4195"/><text fill="#000000" font-family="Verdana" font-size="14" lengthAdjust="spacing" textLength="87.6257" x="2135" y="1860.3855">Result Fusion</text></g><!--entity Trust--><g id="elem_Trust"><rect fill="#FFFFFF" height="39.0679" rx="2.5" ry="2.5" style="stroke:#000000;stroke-width:1;" width="107.1497" x="772.5" y="1835.4195"/><text fill="#000000" font-family="Verdana" font-size="14" lengthAdjust="spacing" textLength="87.1497" x="782.5" y="1860.3855">Trust Scoring</text></g><!--entity Chunking--><g id="elem_Chunking"><rect fill="#FFFFFF" height="39.0679" rx="2.5" ry="2.5" style="stroke:#000000;stroke-width:1;" width="114.6396" x="969.5" y="1835.4195"/><text fill="#000000" font-family="Verdana" font-size="14" lengthAdjust="spacing" textLength="94.6396" x="979.5" y="1860.3855">RAG Chunking</text></g><!--entity Normalize--><g id="elem_Normalize"><rect fill="#FFFFFF" height="39.0679" rx="2.5" ry="2.5" style="stroke:#000000;stroke-width:1;" width="113.2816" x="773.5" y="2033.4195"/><text fill="#000000" font-family="Verdana" font-size="14" lengthAdjust="spacing" textLength="93.2816" x="783.5" y="2058.3855">Normalization</text></g><!--entity Embedding--><g id="elem_Embedding"><rect fill="#FFFFFF" height="39.0679" rx="2.5" ry="2.5" style="stroke:#000000;stroke-width:1;" width="125.8536" x="290" y="1835.4195"/><text fill="#000000" font-family="Verdana" font-size="14" lengthAdjust="spacing" textLength="105.8536" x="300" y="1860.3855">Embedding Gen</text></g><!--entity VectorDB--><g id="elem_VectorDB"><path d="M506.5,1840.9195 C506.5,1830.9195 549.1409,1830.9195 549.1409,1830.9195 C549.1409,1830.9195 591.7817,1830.9195 591.7817,1840.9195 L591.7817,1868.9874 C591.7817,1878.9874 549.1409,1878.9874 549.1409,1878.9874 C549.1409,1878.9874 506.5,1878.9874 506.5,1868.9874 L506.5,1840.9195 " fill="#FFFFFF" style="stroke:#000000;stroke-width:1;"/><path d="M506.5,1840.9195 C506.5,1850.9195 549.1409,1850.9195 549.1409,1850.9195 C549.1409,1850.9195 591.7817,1850.9195 591.7817,1840.9195 " fill="none" style="stroke:#000000;stroke-width:1;"/><text fill="#000000" font-family="Verdana" font-size="14" lengthAdjust="spacing" textLength="65.2817" x="516.5" y="1869.8855">Vector DB</text></g><!--entity Retrieval--><g id="elem_Retrieval"><rect fill="#FFFFFF" height="39.0679" rx="2.5" ry="2.5" style="stroke:#000000;stroke-width:1;" width="103.3277" x="301.5" y="2033.4195"/><text fill="#000000" font-family="Verdana" font-size="14" lengthAdjust="spacing" textLength="83.3277" x="311.5" y="2058.3855">Retrieval API</text></g><!--entity Orchestrator--><g id="elem_Orchestrator"><path d="M307.033,101.7413 C311.4886,95.9075 316.6132,95.9439 320.9779,101.8493 C323.5368,95.0237 329.6946,95.8188 333.4652,100.5388 C337.0924,93.9561 342.1233,94.4236 346.3615,99.8847 C350.9907,94.5068 355.4572,95.569 358.8077,101.3154 C361.5268,94.2963 367.6967,94.6992 372.0406,99.4956 C375.7024,91.9282 381.7673,92.6537 385.9453,98.9789 C389.8942,93.8 395.9851,93.3004 398.6476,100.3185 C401.8038,93.6005 407.7041,93.2633 411.9498,99.1706 C416.3111,92.823 422.6385,94.646 425.7018,100.6194 C429.2371,94.2689 434.3159,92.7298 438.879,99.5945 C443.1447,93.0685 449.1528,93.2728 452.0999,100.8321 C454.9401,95.2345 461.036,94.75 464.6153,99.9776 C468.5051,93.9745 475.2221,94.0485 478.0468,101.0754 C482.6072,93.6329 486.8611,93.6335 491.9218,100.5935 C503.486,106.5358 503.5229,116.5678 494.2956,124.5688 C503.5846,133.3284 503.3989,142.0878 491.9048,148.7965 C488.059,155.5779 482.9726,155.1565 478.792,149.1395 C473.8962,157.4597 469.1191,157.2785 463.6854,149.6489 C461.1065,154.647 456.5788,156.4636 452.593,151.1645 C449.5917,157.452 442.5405,158.548 438.0564,152.9831 C434.0217,158.8097 429.2014,161.0392 424.3818,153.8049 C421.4014,159.374 418.1627,161.7132 412.8374,156.2609 C409.8768,162.6662 405.1067,163.5102 400.4749,157.9938 C394.7579,165.1546 389.5711,164.3422 385.7391,156.1809 C381.5087,161.3321 377.0589,160.6153 374.0234,154.8934 C370.148,160.9795 363.2119,161.5187 360.1662,154.0454 C355.0462,159.0365 350.4418,159.8877 347.0613,152.2416 C341.9326,158.597 337.4937,157.5707 334.3056,150.4101 C330.1718,156.6691 325.3969,155.6219 322.0317,149.6393 C316.9955,156.898 310.3598,155.5473 307.3249,147.6919 C297.1957,142.0322 295.7802,133.3229 304.1212,125.0499 C292.859,117.193 296.3299,106.8543 307.033,101.7413 " fill="#E3F2FD" style="stroke:#000000;stroke-width:1;"/><text fill="#000000" font-family="Verdana" font-size="14" lengthAdjust="spacing" textLength="162.0774" x="313.5" y="121.8855">Google Cloud Workflows</text><text fill="#000000" font-family="Verdana" font-size="10" lengthAdjust="spacing" textLength="169.0298" x="313.5" y="136.6774">Orchestrator | trace_id propagation</text></g><!--entity GCS--><g id="elem_GCS"><rect fill="#FFF3E0" height="52.6879" rx="35" ry="35" style="stroke:#000000;stroke-width:1;" width="274.463" x="588" y="96.9195"/><text fill="#000000" font-family="Verdana" font-size="14" lengthAdjust="spacing" textLength="254.463" x="598" y="121.8855">GCS: gs://rag-pipeline-{env}/{trace_id}/</text><text fill="#000000" font-family="Verdana" font-size="10" lengthAdjust="spacing" textLength="108.7199" x="598" y="136.6774">Canonical artifact store</text></g><!--reverse link Orchestrator to Ingest--><g id="link_Orchestrator_Ingest"><path d="M398,160.9895 C398,183.1145 398,209.3633 398,245.352 C398,254.3492 398,263.5802 398,272.9451 C398,275.2863 398,277.6359 398,279.9924 C398,281.1706 398,282.3505 398,283.5319 C398,284.1226 398,284.7137 398,285.3052 " fill="none" id="Orchestrator-backto-Ingest" style="stroke:#000000;stroke-width:1;"/><polygon fill="#000000" points="398,154.9895,394,163.9895,398,159.9895,402,163.9895,398,154.9895" style="stroke:#000000;stroke-width:1;"/><text fill="#000000" font-family="Verdana" font-size="13" lengthAdjust="spacing" textLength="108.0171" x="399" y="239.8165">initiates workflow</text><text fill="#000000" font-family="Verdana" font-size="13" lengthAdjust="spacing" textLength="96.2391" x="404.889" y="257.5226">(POST /execute)</text></g><!--link NativeText to Stage0Router--><g id="link_NativeText_Stage0Router"><path d="M514.7024,552.4259 C514.7994,552.606 514.8966,552.7863 514.994,552.9668 C515.3835,553.6888 515.7762,554.4137 516.1721,555.1412 C519.3395,560.9616 522.7086,566.9519 526.2378,572.9567 C533.2963,584.9664 540.995,597.0345 549,607.9195 C581.13,651.6095 623.0575,695.7745 657.3538,729.3633 C674.5019,746.1577 689.7422,760.308 700.8961,770.4328 C703.6846,772.964 706.2176,775.2436 708.4613,777.2501 C709.5831,778.2533 710.6326,779.1882 711.6054,780.0522 C711.727,780.1602 707.3594,776.2849 707.4786,776.3906 " fill="none" id="NativeText-to-Stage0Router" style="stroke:#000000;stroke-width:1;"/><polygon fill="#000000" points="711.9666,780.3728,707.8894,771.4075,708.2266,777.0543,702.5798,777.3915,711.9666,780.3728" style="stroke:#000000;stroke-width:1;"/></g><!--link ImageTrack to Stage0Router--><g id="link_ImageTrack_Stage0Router"><path d="M842.8168,515.4117 C842.7539,515.5298 842.6906,515.6485 842.6271,515.7677 C842.5,516.0062 842.3717,516.2468 842.2422,516.4897 C841.2061,518.4323 840.093,520.5141 838.911,522.7176 C836.5471,527.1245 833.9078,532.0183 831.0587,537.2595 C819.6625,558.2245 804.91,584.7495 791,607.9195 C786.37,615.6395 784.03,616.8695 780,624.9195 C777.88,629.1552 775.7938,633.4847 773.7451,637.8805 C773.489,638.43 773.2336,638.9805 772.9787,639.532 C772.8512,639.8078 775.2327,634.6334 775.1055,634.9097 " fill="none" id="ImageTrack-to-Stage0Router" style="stroke:#000000;stroke-width:1;"/><polygon fill="#000000" points="772.5968,640.36,779.9935,633.857,774.6874,635.8181,772.7263,630.512,772.5968,640.36" style="stroke:#000000;stroke-width:1;"/></g><!--link PDFTrack to Stage0Router--><g id="link_PDFTrack_Stage0Router"><path d="M1136.9484,530.543 C1136.8388,530.8732 1136.728,531.2049 1136.6159,531.5381 C1136.1674,532.871 1135.6986,534.228 1135.2087,535.6053 C1134.2289,538.36 1133.165,541.1959 1132.0125,544.0833 C1122.7925,567.182 1107.9,593.5695 1085,607.9195 C1070.62,616.9295 793.65,614.8295 780,624.9195 C776.1906,627.7345 772.6229,630.8182 769.2815,634.1269 C767.6108,635.7813 765.9967,637.4919 764.4372,639.2533 C764.0473,639.6936 767.5671,635.5829 767.1841,636.0295 " fill="none" id="PDFTrack-to-Stage0Router" style="stroke:#000000;stroke-width:1;"/><polygon fill="#000000" points="763.2778,640.5838,772.1734,636.3565,766.533,636.7885,766.101,631.1482,763.2778,640.5838" style="stroke:#000000;stroke-width:1;"/></g><!--link AudioSources to PrepareAudio--><g id="link_AudioSources_PrepareAudio"><path d="M1488.9921,552.9234 C1489.0839,553.4099 1489.1759,553.899 1489.2678,554.3908 C1489.4518,555.3745 1489.636,556.3689 1489.8203,557.3738 C1490.1888,559.3837 1490.5575,561.4357 1490.9254,563.5281 C1491.6612,567.713 1492.3934,572.0594 1493.1127,576.5535 C1494.5512,585.5416 1495.9378,595.1203 1497.1978,605.1779 C1499.7176,625.2931 1501.7303,647.3239 1502.6362,670.377 C1506.26,762.5895 1492.175,871.1595 1422,938.9195 C1407.72,952.7095 1348.14,934.0795 1333,946.9195 C1313.395,963.5445 1299.8663,985.7645 1290.6105,1009.8189 C1288.2965,1015.8325 1286.2496,1021.9607 1284.4416,1028.1449 C1283.9896,1029.6909 1283.5526,1031.2404 1283.13,1032.7925 C1282.9187,1033.5686 1282.711,1034.3453 1282.5069,1035.1225 C1282.4049,1035.5111 1283.8019,1030.0899 1283.7016,1030.4788 " fill="none" id="AudioSources-to-PrepareAudio" style="stroke:#000000;stroke-width:1;"/><polygon fill="#000000" points="1282.2034,1036.2887,1288.324,1028.5726,1283.4519,1031.4471,1280.5774,1026.575,1282.2034,1036.2887" style="stroke:#000000;stroke-width:1;"/><text fill="#000000" font-family="Verdana" font-size="13" lengthAdjust="spacing" textLength="74.7371" x="1519.5155" y="784.8165">Audio/Video</text><text fill="#000000" font-family="Verdana" font-size="13" lengthAdjust="spacing" textLength="105.7681" x="1504" y="802.5226">(bypasses router)</text></g><!--link Stage0Router to FastPath--><g id="link_Stage0Router_FastPath"><path d="M758.4681,838.1422 C758.5802,838.2451 758.6925,838.3477 758.805,838.4503 C759.03,838.6553 759.2556,838.8597 759.482,839.0635 C760.3875,839.8784 761.3044,840.6828 762.2321,841.4744 C764.0874,843.0578 765.9861,844.5904 767.9244,846.0562 C771.8011,848.9878 775.8363,851.652 780,853.9195 C987.73,967.0195 1129.69,787.0395 1304,946.9195 C1322.985,964.332 1336.32,986.952 1345.6361,1011.162 C1347.9651,1017.2145 1350.043,1023.3664 1351.8951,1029.5611 C1352.8212,1032.6585 1353.6908,1035.7666 1354.5072,1038.8783 C1354.6093,1039.2673 1353.2114,1033.8466 1353.3118,1034.2357 " fill="none" id="Stage0Router-to-FastPath" style="stroke:#000000;stroke-width:1;"/><polygon fill="#000000" points="1354.8109,1040.0454,1356.4353,1030.3314,1353.5616,1035.2039,1348.6891,1032.3302,1354.8109,1040.0454" style="stroke:#000000;stroke-width:1;"/><text fill="#000000" font-family="Verdana" font-size="13" lengthAdjust="spacing" textLength="64.285" x="1314.4555" y="907.8165">native text</text><text fill="#000000" font-family="Verdana" font-size="13" lengthAdjust="spacing" textLength="105.1961" x="1294" y="925.5226">born-digital PDFs</text></g><!--link Stage0Router to PrepareDoc--><g id="link_Stage0Router_PrepareDoc"><path d="M720,838.3823 C720,842.4888 720,846.7971 720,851.2847 C720,887.1855 720,934.5627 720,981.9383 C720,993.7822 720,1005.626 720,1017.2904 C720,1020.2065 720,1023.1113 720,1026.0022 C720,1026.3636 720,1020.7247 720,1021.0856 " fill="none" id="Stage0Router-to-PrepareDoc" style="stroke:#000000;stroke-width:1;"/><polygon fill="#000000" points="720,1027.0856,724,1018.0856,720,1022.0856,716,1018.0856,720,1027.0856" style="stroke:#000000;stroke-width:1;"/><text fill="#000000" font-family="Verdana" font-size="13" lengthAdjust="spacing" textLength="44.356" x="752.3625" y="898.8165">images</text><text fill="#000000" font-family="Verdana" font-size="13" lengthAdjust="spacing" textLength="84.8641" x="732.1085" y="916.5226">scanned PDFs</text><text fill="#000000" font-family="Verdana" font-size="13" lengthAdjust="spacing" textLength="107.0811" x="721" y="934.2286">hybrid PDF pages</text></g><!--link FastPath to Unify--><g id="link_FastPath_Unify"><path d="M1404.9873,1244.1405 C1406.9885,1246.1913 1409.0639,1248.166 1411.2136,1250.0416 C1415.5128,1253.7927 1420.1087,1257.147 1425,1259.9195 C1494.45,1299.2895 1728.96,1231.1595 1783,1289.9195 C1794.13,1302.0195 1791.25,1312.6995 1783,1326.9195 C1779.4,1333.1195 1773.39,1329.2595 1769,1334.9195 C1765.2019,1339.8145 1764.8387,1339.8555 1761.5059,1345.1538 " fill="none" id="FastPath-to-Unify" style="stroke:#000000;stroke-width:1;"/><polygon fill="#000000" points="1758.3111,1350.2325,1766.4891,1344.7443,1760.9734,1346.0002,1759.7174,1340.4846,1758.3111,1350.2325" style="stroke:#000000;stroke-width:1;"/><text fill="#000000" font-family="Verdana" font-size="13" lengthAdjust="spacing" textLength="161.3562" x="1791" y="1313.8165">direct &#8212; no preprocessing</text></g><!--link PrepareDoc to Unify--><g id="link_PrepareDoc_Unify"><path d="M728.168,1195.2117 C728.2824,1195.4465 728.3981,1195.6828 728.5149,1195.9205 C728.7485,1196.396 728.9869,1196.8773 729.2299,1197.364 C731.1741,1201.2576 733.4181,1205.4992 735.955,1209.9133 C746.1025,1227.5695 760.935,1247.9845 780,1259.9195 C945.91,1363.7995 1026.62,1278.3095 1214,1334.9195 C1328.2,1369.4245 1450.915,1423.4695 1545.5913,1469.1745 C1592.9294,1492.027 1633.2578,1512.7945 1662.0073,1527.992 C1676.3821,1535.5908 1687.8621,1541.797 1695.8763,1546.1752 C1696.8781,1546.7224 1697.8257,1547.2411 1698.718,1547.7304 C1699.1642,1547.9751 1699.5966,1548.2123 1700.015,1548.4422 C1700.2242,1548.5571 1695.1721,1545.7794 1695.3743,1545.8906 " fill="none" id="PrepareDoc-to-Unify" style="stroke:#000000;stroke-width:1;"/><polygon fill="#000000" points="1700.6321,1548.7813,1694.6726,1540.9401,1696.2506,1546.3724,1690.8183,1547.9504,1700.6321,1548.7813" style="stroke:#000000;stroke-width:1;"/><text fill="#000000" font-family="Verdana" font-size="13" lengthAdjust="spacing" textLength="149.8381" x="1182.676" y="1304.8165">gs://.../01-preprocessed/</text><text fill="#000000" font-family="Verdana" font-size="13" lengthAdjust="spacing" textLength="151.1901" x="1182" y="1322.5226">DocumentMetadata.json</text></g><!--link PrepareAudio to Unify--><g id="link_PrepareAudio_Unify"><path d="M1282.0158,1195.7253 C1282.0717,1195.8443 1282.128,1195.9636 1282.1845,1196.0833 C1282.4106,1196.5619 1282.6414,1197.0464 1282.8768,1197.5362 C1284.7598,1201.4551 1286.9394,1205.7205 1289.4125,1210.1533 C1299.305,1227.8845 1313.895,1248.2945 1333,1259.9195 C1416.18,1310.5195 1468.7,1236.3495 1550,1289.9195 C1606.215,1326.9595 1645.61,1391.372 1671.125,1447.2383 C1683.8825,1475.1714 1693.17,1500.968 1699.355,1520.1381 C1699.7416,1521.3363 1700.116,1522.5085 1700.4784,1523.6538 C1700.569,1523.9401 1698.8566,1518.5018 1698.9457,1518.7847 " fill="none" id="PrepareAudio-to-Unify" style="stroke:#000000;stroke-width:1;"/><polygon fill="#000000" points="1700.748,1524.5077,1701.8598,1514.7218,1699.2461,1519.7386,1694.2293,1517.1248,1700.748,1524.5077" style="stroke:#000000;stroke-width:1;"/><text fill="#000000" font-family="Verdana" font-size="13" lengthAdjust="spacing" textLength="136.4611" x="1589" y="1313.8165">gs://.../02-transcribed/</text></g><!--link OCRLayer to DoclingDOM--><g id="link_OCRLayer_DoclingDOM"><path d="M2012.9246,1554.4195 C2012.8077,1554.4195 2012.6908,1554.4195 2012.5739,1554.4195 C2012.3401,1554.4195 2012.1062,1554.4195 2011.8724,1554.4195 C2010.9372,1554.4195 2010.0019,1554.4195 2009.0667,1554.4195 C2005.3257,1554.4195 2001.5848,1554.4195 1997.8441,1554.4195 C1990.3625,1554.4195 1982.8813,1554.4195 1975.4,1554.4195 C1960.4375,1554.4195 1951.475,1554.4195 1936.51,1554.4195 " fill="none" id="OCRLayer-to-DoclingDOM" style="stroke:#000000;stroke-width:1;"/><polygon fill="#000000" points="1930.51,1554.4195,1939.51,1558.4195,1935.51,1554.4195,1939.51,1550.4195,1930.51,1554.4195" style="stroke:#000000;stroke-width:1;"/></g><!--link DoclingDOM to Chunk--><g id="link_DoclingDOM_Chunk"><path d="M1836.39,1588.1595 C1824.77,1599.9895 1810.64,1612.6995 1796,1621.9195 C1672.335,1699.8395 1518.535,1757.5445 1394.935,1795.9158 C1333.135,1815.1014 1278.885,1829.4536 1239.7269,1839.0825 C1220.1478,1843.897 1204.3417,1847.5306 1193.2513,1849.9972 C1190.4787,1850.6138 1188.0009,1851.1575 1185.8325,1851.6285 C1185.2904,1851.7462 1184.7676,1851.8594 1184.2644,1851.9681 C1184.0128,1852.0224 1189.6317,1850.8127 1189.3899,1850.8647 " fill="none" id="DoclingDOM-to-Chunk" style="stroke:#000000;stroke-width:1;"/><polygon fill="#000000" points="1183.5243,1852.1277,1193.1647,1854.1437,1188.4123,1851.0752,1191.4807,1846.3229,1183.5243,1852.1277" style="stroke:#000000;stroke-width:1;"/><text fill="#000000" font-family="Verdana" font-size="13" lengthAdjust="spacing" textLength="143.5981" x="1735" y="1672.8165">gs://.../03-docling-dom/</text></g><!--link Chunk to Embed--><g id="link_Chunk_Embed"><path d="M1129.2697,1713.0175 C1129.0813,1712.8228 1128.8921,1712.6289 1128.7022,1712.4358 C1128.3223,1712.0496 1127.9393,1711.6665 1127.5531,1711.2865 C1126.7808,1710.5267 1125.9959,1709.7795 1125.1982,1709.0457 C1122.0075,1706.1106 1118.6125,1703.3889 1115,1700.9195 C1046.76,1654.2695 811.38,1654.4595 743,1700.9195 C713.98,1720.6395 698.765,1756.5395 690.7887,1788.7195 C690.5395,1789.7252 691.6746,1784.8874 691.4393,1785.8851 " fill="none" id="Chunk-to-Embed" style="stroke:#000000;stroke-width:1;"/><polygon fill="#000000" points="690.062,1791.7249,696.0211,1783.8834,691.2097,1786.8584,688.2348,1782.047,690.062,1791.7249" style="stroke:#000000;stroke-width:1;"/><text fill="#000000" font-family="Verdana" font-size="13" lengthAdjust="spacing" textLength="110.0711" x="683" y="1672.8165">gs://.../04-chunks/</text></g><rect fill="none" height="166.5433" id="_legend" rx="7.5" ry="7.5" style="stroke:#000000;stroke-width:1;" width="329.1428" x="1098.4286" y="2106.4195"/><text fill="#000000" font-family="Verdana" font-size="14" font-weight="bold" lengthAdjust="spacing" textLength="36.8759" x="1107.0686" y="2128.3855">Color</text><text fill="#000000" font-family="Verdana" font-size="14" font-weight="bold" lengthAdjust="spacing" textLength="61.4598" x="1151.2244" y="2128.3855">Meaning</text><rect fill="#E3F2FD" height="19.0679" style="stroke:none;stroke-width:1;" width="44.1558" x="1103.4286" y="2132.4874"/><text fill="#000000" font-family="Verdana" font-size="14" lengthAdjust="spacing" textLength="3.64" x="1103.4286" y="2147.4534">&#160;</text><text fill="#000000" font-family="Verdana" font-size="14" lengthAdjust="spacing" textLength="214.3952" x="1151.2244" y="2147.4534">Orchestration (Cloud Workflows)</text><rect fill="#FFF3E0" height="19.0679" style="stroke:none;stroke-width:1;" width="44.1558" x="1103.4286" y="2151.5554"/><text fill="#000000" font-family="Verdana" font-size="14" lengthAdjust="spacing" textLength="3.64" x="1103.4286" y="2166.5213">&#160;</text><text fill="#000000" font-family="Verdana" font-size="14" lengthAdjust="spacing" textLength="108.2756" x="1151.2244" y="2166.5213">Data Store (GCS)</text><rect fill="#FFEBEE" height="19.0679" style="stroke:none;stroke-width:1;" width="44.1558" x="1103.4286" y="2170.6233"/><text fill="#000000" font-family="Verdana" font-size="14" lengthAdjust="spacing" textLength="3.64" x="1103.4286" y="2185.5892">&#160;</text><text fill="#000000" font-family="Verdana" font-size="14" lengthAdjust="spacing" textLength="126.0135" x="1151.2244" y="2185.5892">Ingest (Entry Point)</text><rect fill="#FFF9C4" height="19.0679" style="stroke:none;stroke-width:1;" width="44.1558" x="1103.4286" y="2189.6912"/><text fill="#000000" font-family="Verdana" font-size="14" lengthAdjust="spacing" textLength="3.64" x="1103.4286" y="2204.6571">&#160;</text><text fill="#000000" font-family="Verdana" font-size="14" lengthAdjust="spacing" textLength="247.757" x="1151.2244" y="2204.6571">Stage 0: Document Type Router (new)</text><rect fill="#E8F0FE" height="19.0679" style="stroke:none;stroke-width:1;" width="44.1558" x="1103.4286" y="2208.7591"/><text fill="#000000" font-family="Verdana" font-size="14" lengthAdjust="spacing" textLength="3.64" x="1103.4286" y="2223.7251">&#160;</text><text fill="#000000" font-family="Verdana" font-size="14" lengthAdjust="spacing" textLength="267.707" x="1151.2244" y="2223.7251">Fast Path (Native Text / Born-Digital PDF)</text><rect fill="#E8F5E9" height="19.0679" style="stroke:none;stroke-width:1;" width="44.1558" x="1103.4286" y="2227.827"/><text fill="#000000" font-family="Verdana" font-size="14" lengthAdjust="spacing" textLength="3.64" x="1103.4286" y="2242.793">&#160;</text><text fill="#000000" font-family="Verdana" font-size="14" lengthAdjust="spacing" textLength="131.4875" x="1151.2244" y="2242.793">Active Development</text><rect fill="#E0E0E0" height="19.0679" style="stroke:none;stroke-width:1;" width="44.1558" x="1103.4286" y="2246.895"/><text fill="#000000" font-family="Verdana" font-size="14" lengthAdjust="spacing" textLength="3.64" x="1103.4286" y="2261.8609">&#160;</text><text fill="#000000" font-family="Verdana" font-size="14" lengthAdjust="spacing" textLength="100.2536" x="1151.2244" y="2261.8609">Not Yet Started</text><line style="stroke:#000000;stroke-width:1;" x1="1103.4286" x2="1422.5714" y1="2113.4195" y2="2113.4195"/><line style="stroke:#000000;stroke-width:1;" x1="1103.4286" x2="1422.5714" y1="2132.4874" y2="2132.4874"/><line style="stroke:#000000;stroke-width:1;" x1="1103.4286" x2="1422.5714" y1="2151.5554" y2="2151.5554"/><line style="stroke:#000000;stroke-width:1;" x1="1103.4286" x2="1422.5714" y1="2170.6233" y2="2170.6233"/><line style="stroke:#000000;stroke-width:1;" x1="1103.4286" x2="1422.5714" y1="2189.6912" y2="2189.6912"/><line style="stroke:#000000;stroke-width:1;" x1="1103.4286" x2="1422.5714" y1="2208.7591" y2="2208.7591"/><line style="stroke:#000000;stroke-width:1;" x1="1103.4286" x2="1422.5714" y1="2227.827" y2="2227.827"/><line style="stroke:#000000;stroke-width:1;" x1="1103.4286" x2="1422.5714" y1="2246.895" y2="2246.895"/><line style="stroke:#000000;stroke-width:1;" x1="1103.4286" x2="1422.5714" y1="2265.9629" y2="2265.9629"/><line style="stroke:#000000;stroke-width:1;" x1="1103.4286" x2="1103.4286" y1="2113.4195" y2="2265.9629"/><line style="stroke:#000000;stroke-width:1;" x1="1147.5844" x2="1147.5844" y1="2113.4195" y2="2265.9629"/><line style="stroke:#000000;stroke-width:1;" x1="1422.5714" x2="1422.5714" y1="2113.4195" y2="2265.9629"/><text fill="#000000" font-family="Verdana" font-size="10" lengthAdjust="spacing" textLength="233.6298" x="1146.1851" y="2294.6529">Foundry Pipeline Overview | v5.0 | February 2026</text><!--SRC=[jLbBRnl94RxpLrHaO5U2HP5w1J6X5K0DXnIpucD9oh810KAJqo9dDUoUzFHGvbfUx6alkGH1a5ppBtBFJ_4lILNtl4XAcyEADY1oUgghggk-UZN_e6TypY4Cc2zAqOClGgRO7CPiyZ1LCXQU8mEfu4tJfVy5YX0fs9GFzJBWeFX4Cp4DU85W8kUX55peTPBIjt35bZBMI2Aqaa5KsAMOU8Xu28SdrSAga1wdrNVLKadB4BI4iTHQpi7pYR4l1RxmDSffaj9g2ODw2_f-o0DVS2X39mwqNnufr1hgQZBpDMwB5RyLLtp10wZMSce7rUAVDEmwWOmzk97guJwGZn7qS2EFj6AQUtkbUoarLvd0R7jlmTN2vu_m18lJWof-DFbOnGnfZgf7VwJpV_UA_v1TR-1SkiFHe3vgzxfmLV_e3chWNFMk6t3J6tpVlEhT35zRQcbYZBFJaXAT2ckckXLdaVyJhnrMptEZ8OwU0BzC-9tlGQXaoAQCV7TM8UBp7M156nFitEFcKREn1PCrwgCw34UzWLk3bZE4tL16Fkd2FK9Nv7jyxzLD5k6PC6RGQCwm1jEeLgdWSpbCa5F-pCNYI-LpQg8lbO8P7IQay2Si0AQqVyyc6eWTBzgE3lAcsMmUkzKjc6pGku736hIxBSGQVFtb7mHz1MqHOYYRo8fUtM99be6TjfWYAc3ttaPRsJVFUmK3dKqeKzMcYdDn_lMV_uOwveK5siUidoTsAcpez_0O5OJXX4SH8hFbucEacOxfwR1QhRw5Up_WKMMcYbPEL453knUk2vzBaBjafyj8A8meVnYRc2rsrImIEHY-iDFeEH_suNBKkTg7JcCVq-A8VxWLpl3zFdoWHRT_VR4FxqUZ7TprPKLGUqvsoKMOPvlVYYB-t6_jGx-BVqRjPlDMtF1nVnykElrDZlr6iy0FdpQv4Sak2m9OCEKpeQFC0U_EnrA9ikTFVOqOVO9emWG5qnFCbcFbUwa5DyJMOy-N1S7cUOZ8GhUi2B-feraw_MFwSt8hxBuAlCTGbPRjbssX_k2qXicYtdAXQe2FZhlkkDqHZ3xsNIIv7ha3sErYpgUteU8BNyPHi8Iv7qK8LGnL7hv-FibgAkmCDS4XqKvEuZaMNXWjGmu3hBHSRGOAfY84yldNV_qD-e7nrSkXqfHgpZHudAec_FS_X0w8ud5v4Z0yuFsIrWZUvO0jiIOkME1xlbu2vdA44BuyEwhE8t3wryL8CafNhO8cSRrpJepBizu1TXBH3IDQgXnldNR71KqdV6iQ2QAE_AbWLDQBKYm7PB3Ac8umn2CuzWW-LwjOldiPo_YbI77dyQbY7lUAKf6zuRmrK1xLO7Gvm0JK7_GSTpZ4l0pz-kWIQnbLBnWljrJ5j9nox1eLUWejMi1Was5Qx3Cz-_zP6UijsgQiPzXZJcTxBoCloQUc7tiBApa6BOnzHbU2Rr8XHbsIoodW5FzBZAtXYaj8Fr8Fsue_DQjDDyakHKoGKYEhL8u6IjE4OKhKzDbfqDyyMTFJ1_kA4ZPzOig-5UlQhi039Q6WsEIjLJFsyI1CyJA6SLxlmcJHavFVLVHCcOZGb0ccAmcYoPYa-C-dfnYdhVurTa6ezehALWLIYmnuwhxRDA1DGzWb877PaIffpg65BNCXTEKOCtgNw_SdyFFndCfjJ_d8m7I3-3HyCEtpW4SoYDSxH2FZy7d961H9fyyYRFG52vQH7-MIX_xqgjs78pndrSXj_r0dUHFbXng_N3BXFIfi1152J-WaP5dNMaKRye_MvJT-6C8t9jdItWxNp6EQcGtuwZVSRElOXgCPBVykLvyTOlaH46AapgXHa_TWc3xZKwl3YrvjDkSXduBxYJfJSeSD9xEwOGVEmodDR5svOEKZQu1aROFMnpRY9vPnjC_S6cjRUVEu1jVTTlEZAPKzPu1UQ_GwPgtjc0bgUrtijQ1QcVawfiTdVSoMM9Z_YZRKy95hWfpIlrMWBUYvc9e150_rH5r0G52amv4Wd1tM8ycgyyQjqd_ZzW8-YKi-ZAKkmjKhK-8tG69LS3CLKl9rkeHYo0EUOyakshNr3PW5a3KquoYbjYjs8UadATZ6BAAcEZ_thTYb8_fOkeTua3dRip2p54YmDP2TuFnzUTtzte1iDBZ6IUCRku9bUfiL6I03cpEBnKCEjWazlWhOsXxwnOoYXYSP-nw7TPeBqaQC-hALf6cLAK9jnSSZ5MFlC9n8XTpC1hEo0OLwot9AgTA7TS8kzNn1CRUaApnDnPcTtFaO0PBPYTFZgzYf5siSZMjq5LLMd7dO3iiWGJsq6qNpM1rUD8zvxP6XMrpa6xpqv3dwtvik6HeNXie-DIusGqfZlSKk7UhzTX9IoShM1YcwXGAdr-sw3YNPrx-G-dOrNPMIERqSX-NprMkb6lW2Qpps914y9bTMc2liXG3_n2SuaEmHmu5yX4Fu-klV8PclQk2bmvKsDnw0Np7mb9bXIeKv7pkrHu62YpDEgJ2aF_i-6xgVVOiAsK8zNbBtpADKAr82czrWMLePdbCcAqM-PdbKpDYCXyvusIEOOsV391wSJ81T5NRgd1iQGY5-89fuL5gPu59vMPzT0v6txvlzy0lR2trcpVRssC2b8vXj-lEc5SCOtwU-EifKnYfF-SYg7Q8o4UMc1LTuC1mdJUKhPOgcecr1h2MtoYPv2xawMPGAwgrlCpTw1mS7bUfXET-4JVQjI6Voj34y-352YAvuvcLkHsK46vf0-HZqbVImnuXYj1lsk3LJyhMacbVAAdHP-TEPHeQ5UfTjJUrqKihVPXhOP5tKu9W63oB3ptccmKd6vhHazsGoRK8hiZYn5IYgR26tNBajjzjuzOmIy2aNNl9J0oR6f-_0_Xo2NpgS2JCbq3gS9JVLvsQKAMIXZHyHzh8TzgAMTZGG41XqKk5St7A6HHAwOYIIzFxJ5Pf-Qv3e-XLExvmJ8ilIr7DtGB0h-6E-omx1j2iRt66tU7zPWGkAs4OUiIkRSLIWpSb0tw2VKMHeP6P4ffmHqLhDH0eqh3KlmG5Vyngr_sPocFbSCJJY4d0QipyOC1mOwJu9oro0kGfZ9al4o0sd75zu_DF1t4DcQtTJITzBbrVC3qm2Zofw7jvD0dHX75OIPD_TctkYkoJ7tR5aUBHCqvIOPa2FqrrJmYsa-pDShS1kQA_Izah_0m00]--></g></svg>
